<svg width="40" height="40" viewBox="0 0 40 40" fill="none" xmlns="http://www.w3.org/2000/svg">
<path d="M17.4941 3.38007C16.6602 3.38007 15.9843 4.03956 15.9843 4.85308C15.9843 5.66661 16.6602 6.3261 17.4941 6.3261C18.328 6.3261 19.0039 5.66661 19.0039 4.85308C19.0039 4.03956 18.328 3.38007 17.4941 3.38007Z" fill="#320049"/>
<path d="M23.3734 3.38007C22.5395 3.38007 21.8635 4.03956 21.8635 4.85308C21.8635 5.66661 22.5395 6.3261 23.3734 6.3261C24.2072 6.3261 24.8832 5.66661 24.8832 4.85308C24.8832 4.03956 24.2072 3.38007 23.3734 3.38007Z" fill="#320049"/>
<path d="M17.4941 8.29652C16.6602 8.29652 15.9843 8.95602 15.9843 9.76954C15.9843 10.5831 16.6602 11.2426 17.4941 11.2426C18.328 11.2426 19.0039 10.5831 19.0039 9.76954C19.0039 8.95602 18.328 8.29652 17.4941 8.29652Z" fill="#320049"/>
<path d="M23.3734 8.29652C22.5395 8.29652 21.8635 8.95602 21.8635 9.76954C21.8635 10.5831 22.5395 11.2426 23.3734 11.2426C24.2072 11.2426 24.8832 10.5831 24.8832 9.76954C24.8832 8.95602 24.2072 8.29652 23.3734 8.29652Z" fill="#320049"/>
<path d="M17.4941 13.213C16.6602 13.213 15.9843 13.8725 15.9843 14.686C15.9843 15.4995 16.6602 16.159 17.4941 16.159C18.328 16.159 19.0039 15.4995 19.0039 14.686C19.0039 13.8725 18.328 13.213 17.4941 13.213Z" fill="#320049"/>
<path d="M23.3734 13.213C22.5395 13.213 21.8635 13.8725 21.8635 14.686C21.8635 15.4995 22.5395 16.159 23.3734 16.159C24.2072 16.159 24.8832 15.4995 24.8832 14.686C24.8832 13.8725 24.2072 13.213 23.3734 13.213Z" fill="#320049"/>
<path d="M28.0328 18.9489H12.8346V20.2561H28.0328V18.9489Z" fill="#320049"/>
<path d="M17.4941 23.0459C16.6602 23.0459 15.9843 23.7054 15.9843 24.5189C15.9843 25.3324 16.6602 25.9919 17.4941 25.9919C18.328 25.9919 19.0039 25.3324 19.0039 24.5189C19.0039 23.7054 18.328 23.0459 17.4941 23.0459Z" fill="#320049"/>
<path d="M23.3734 23.0459C22.5395 23.0459 21.8635 23.7054 21.8635 24.5189C21.8635 25.3324 22.5395 25.9919 23.3734 25.9919C24.2072 25.9919 24.8832 25.3324 24.8832 24.5189C24.8832 23.7054 24.2072 23.0459 23.3734 23.0459Z" fill="#320049"/>
<path d="M17.4941 27.9624C16.6602 27.9624 15.9843 28.6219 15.9843 29.4354C15.9843 30.2489 16.6602 30.9084 17.4941 30.9084C18.328 30.9084 19.0039 30.2489 19.0039 29.4354C19.0039 28.6219 18.328 27.9624 17.4941 27.9624Z" fill="#320049"/>
<path d="M23.3734 27.9624C22.5395 27.9624 21.8635 28.6219 21.8635 29.4354C21.8635 30.2489 22.5395 30.9084 23.3734 30.9084C24.2072 30.9084 24.8832 30.2489 24.8832 29.4354C24.8832 28.6219 24.2072 27.9624 23.3734 27.9624Z" fill="#320049"/>
<path d="M17.4941 32.8788C16.6602 32.8788 15.9843 33.5383 15.9843 34.3518C15.9843 35.1654 16.6602 35.8249 17.4941 35.8249C18.328 35.8249 19.0039 35.1654 19.0039 34.3518C19.0039 33.5383 18.328 32.8788 17.4941 32.8788Z" fill="#320049"/>
<path d="M23.3734 32.8788C22.5395 32.8788 21.8635 33.5383 21.8635 34.3518C21.8635 35.1654 22.5395 35.8249 23.3734 35.8249C24.2072 35.8249 24.8832 35.1654 24.8832 34.3518C24.8832 33.5383 24.2072 32.8788 23.3734 32.8788Z" fill="#320049"/>
<path fill-rule="evenodd" clip-rule="evenodd" d="M11.0899 0C10.488 0 10 0.476063 10 1.06331V38.4489C10 39.0361 10.488 39.5122 11.0899 39.5122H29.6726C30.2745 39.5122 30.7625 39.0361 30.7625 38.4489V1.06331C30.7625 0.476061 30.2745 0 29.6726 0H11.0899ZM11.3399 38.205V1.30721H29.4226V38.205H11.3399Z" fill="#320049"/>
</svg>
