<svg width="40" height="40" viewBox="0 0 40 40" fill="none" xmlns="http://www.w3.org/2000/svg">
<path d="M34.1836 31.4133C34.0024 31.232 33.7328 31.1492 33.4789 31.2C33.4289 31.2101 33.3797 31.225 33.3328 31.2445C33.2852 31.264 33.2399 31.2883 33.1977 31.3164C33.1547 31.3445 33.1149 31.3773 33.0789 31.4133C33.043 31.4492 33.0102 31.489 32.9821 31.532C32.9539 31.5742 32.9297 31.6195 32.9102 31.6672C32.8907 31.714 32.8758 31.7633 32.8657 31.8133C32.8555 31.8633 32.85 31.9148 32.85 31.9656C32.85 32.0172 32.8555 32.0679 32.8657 32.1187C32.8758 32.1687 32.8907 32.2179 32.9102 32.2648C32.9297 32.3117 32.9539 32.357 32.9821 32.3992C33.0102 32.4422 33.043 32.482 33.0789 32.5187C33.1149 32.5547 33.1547 32.5867 33.1977 32.6156C33.2399 32.6437 33.2852 32.6679 33.3328 32.6875C33.3797 32.707 33.4289 32.7219 33.4789 32.732C33.5289 32.7422 33.5805 32.7469 33.6313 32.7469C33.8375 32.7469 34.0383 32.664 34.1836 32.5187C34.3289 32.3726 34.4125 32.1719 34.4125 31.9656C34.4125 31.7601 34.3289 31.5586 34.1836 31.4133Z" fill="#320049"/>
<path d="M24.2183 15.5515C20.3024 15.5515 17.1167 18.7373 17.1167 22.6531C17.1167 26.569 20.3024 29.7548 24.2183 29.7548C28.1342 29.7548 31.3199 26.569 31.3199 22.6531C31.3199 18.7373 28.1342 15.5515 24.2183 15.5515ZM24.2183 28.1922C21.164 28.1922 18.6792 25.7074 18.6792 22.6531C18.6792 19.5988 21.164 17.1139 24.2183 17.1139C27.2726 17.1139 29.7574 19.5988 29.7574 22.6531C29.7574 25.7074 27.2726 28.1922 24.2183 28.1922Z" fill="#320049"/>
<path d="M24.6739 22.016V20.6033C25.2973 20.6517 25.4796 20.9614 25.796 20.9614C26.2182 20.9614 26.3907 20.4292 26.3907 20.1679C26.3907 19.5003 25.2685 19.3455 24.6739 19.3261V19.0842C24.6739 18.9488 24.4917 18.823 24.3094 18.823C24.0983 18.823 23.9449 18.9488 23.9449 19.0842V19.3552C22.9282 19.5003 22.0265 20.0907 22.0265 21.3195C22.0265 22.558 23.0624 22.9742 23.9449 23.3128V24.8803C23.2351 24.7546 22.909 24.1837 22.5061 24.1837C22.1417 24.1837 21.8539 24.6675 21.8539 24.9965C21.8539 25.6158 22.7939 26.2157 23.9449 26.2544V26.496C23.9449 26.6315 24.0984 26.7573 24.3094 26.7573C24.4916 26.7573 24.6739 26.6315 24.6739 26.496V26.2154C25.796 26.0316 26.5634 25.3059 26.5634 24.106C26.5634 22.7998 25.5467 22.345 24.6739 22.016ZM24.0407 21.784C23.6763 21.6292 23.4269 21.455 23.4269 21.1744C23.4269 20.9421 23.6092 20.7196 24.0407 20.6325V21.784ZM24.5779 24.8707V23.5741C24.9232 23.7385 25.1629 23.9418 25.163 24.2611C25.163 24.6095 24.904 24.7933 24.5779 24.8707Z" fill="#320049"/>
<path d="M37.5088 31.3152V23.7859C37.5088 21.1003 36.6888 18.2763 35.1999 15.8341C34.088 14.0104 32.6304 12.4451 30.988 11.2889C31.5427 10.8777 31.903 10.2182 31.903 9.47617C31.903 8.23258 30.8912 7.22078 29.6476 7.22078H28.8425L32.172 1.15719C32.3048 0.915156 32.3002 0.620938 32.1595 0.383281C32.0188 0.145781 31.7632 0 31.4871 0H27.4714C27.2973 0 27.1282 0.058125 26.991 0.165156L24.3788 2.20227L23.032 0.325703C22.8852 0.12125 22.6489 0 22.3973 0H16.9491C16.673 0 16.4174 0.145781 16.2768 0.383359C16.1362 0.621016 16.1314 0.915234 16.2643 1.15727L19.5938 7.22086H18.7888C17.5452 7.22086 16.5334 8.23258 16.5334 9.47625C16.5334 10.2141 16.8895 10.8704 17.439 11.2821C16.0463 12.2448 14.8037 13.4748 13.7841 14.9095C12.4455 16.793 11.5445 18.9548 11.1637 21.188H0.78125C0.349766 21.188 0 21.5378 0 21.9693V26.2817C0 26.7132 0.349766 27.063 0.78125 27.063H1.56266V29.8128H0.78125C0.349766 29.8128 0 30.1626 0 30.5941V34.9065C0 35.338 0.349766 35.6877 0.78125 35.6877H1.56266V39.2188C1.56266 39.6502 1.91242 40 2.34391 40H15.8109C16.2423 40 16.5921 39.6502 16.5921 39.2188V38.1829H36.4898C38.4253 38.1829 40 36.6083 40 34.6727C40 33.1147 38.9514 31.7575 37.5088 31.3152ZM18.2694 1.5625H21.9963L23.5834 3.77383C23.7073 3.94656 23.8964 4.06133 24.1068 4.09156C24.317 4.12195 24.5309 4.06508 24.6985 3.93438L27.74 1.5625H30.1668L27.0598 7.22078H21.3762L18.2694 1.5625ZM18.7888 8.78336H29.6476C30.0297 8.78336 30.3405 9.09422 30.3405 9.47625C30.3405 9.85836 30.0296 10.1691 29.6476 10.1691H18.7888C18.4066 10.1691 18.0959 9.85828 18.0959 9.47625C18.0958 9.09414 18.4066 8.78336 18.7888 8.78336ZM1.5625 25.5004V22.7505H13.467V25.5004H1.5625ZM15.0296 27.0629V29.8127H3.12516V27.0629H15.0296ZM1.5625 34.1252V31.3752H13.467V34.1252H1.5625ZM15.0296 38.4375H3.12516V35.6877H15.0296V38.4375V38.4375ZM36.4898 36.6204H16.5921V34.9064C16.5921 34.4749 16.2423 34.1252 15.8109 34.1252H15.0295V32.7472H30.5432C30.9747 32.7472 31.3245 32.3974 31.3245 31.9659C31.3245 31.5345 30.9747 31.1847 30.5432 31.1847H16.3223C16.4876 31.0415 16.5922 30.8299 16.5922 30.594V26.2816C16.5922 25.8502 16.2424 25.5004 15.8109 25.5004H15.0295V21.9692C15.0295 21.5377 14.6798 21.188 14.2483 21.188H12.7518C13.5254 17.1722 16.2002 13.5274 19.7269 11.7316H28.7092C32.9124 13.8782 35.9463 18.9158 35.9463 23.7859V31.9548C35.9463 32.3602 36.2565 32.6984 36.6604 32.7332C37.6569 32.8193 38.4375 33.6713 38.4375 34.6728C38.4375 35.7467 37.5638 36.6204 36.4898 36.6204Z" fill="#320049"/>
</svg>
