<svg width="40" height="40" viewBox="0 0 40 40" fill="none" xmlns="http://www.w3.org/2000/svg">
<path d="M9.19761 10.0211C9.14691 10.0211 9.09527 10.0165 9.04535 10.0064C8.99527 9.99622 8.94613 9.98137 8.89926 9.96184C8.8516 9.94231 8.80629 9.91809 8.7641 9.88997C8.72113 9.86106 8.68129 9.82825 8.64535 9.79231C8.60941 9.75637 8.5766 9.71653 8.54847 9.67348C8.52035 9.63129 8.49613 9.58606 8.4766 9.53911C8.45707 9.49153 8.44222 9.44223 8.43207 9.39301C8.42191 9.34231 8.41644 9.29067 8.41644 9.23989C8.41644 9.18918 8.42191 9.13754 8.43207 9.08754C8.44222 9.03754 8.45707 8.98832 8.4766 8.94153C8.49613 8.89387 8.52035 8.84856 8.54847 8.80637C8.5766 8.7634 8.60941 8.72356 8.64535 8.68762C8.68129 8.65168 8.72113 8.61879 8.7641 8.59075C8.80629 8.56262 8.8516 8.5384 8.89926 8.51887C8.94613 8.49934 8.99527 8.4845 9.04535 8.47434C9.14605 8.45403 9.24918 8.45403 9.35074 8.47434C9.39996 8.4845 9.44926 8.49934 9.49683 8.51887C9.54379 8.5384 9.5891 8.56262 9.63129 8.59075C9.67426 8.61879 9.7141 8.65168 9.75004 8.68762C9.78597 8.72356 9.81879 8.7634 9.84769 8.80637C9.87504 8.84856 9.89926 8.89387 9.91879 8.94153C9.93832 8.9884 9.95394 9.03754 9.96332 9.08754C9.97347 9.13762 9.97886 9.18918 9.97886 9.23989C9.97886 9.29067 9.97347 9.34231 9.96332 9.39301C9.95394 9.44223 9.93832 9.49153 9.91879 9.53911C9.89926 9.58606 9.87496 9.63129 9.84769 9.67348C9.81879 9.71653 9.78597 9.75637 9.75004 9.79231C9.7141 9.82825 9.67426 9.86106 9.63129 9.88997C9.5891 9.91809 9.54379 9.94231 9.49683 9.96184C9.44926 9.98137 9.39996 9.99622 9.35074 10.0064C9.30004 10.0164 9.24847 10.0211 9.19761 10.0211Z" fill="#320049"/>
<path d="M10.493 28.0015H6.67282C6.24141 28.0015 5.89157 27.6517 5.89157 27.2203V20.2205C5.89157 19.7891 6.24141 19.4393 6.67282 19.4393H10.4929C10.9243 19.4393 11.2741 19.7891 11.2741 20.2205V27.2203C11.2742 27.6517 10.9244 28.0015 10.493 28.0015ZM7.45407 26.439H9.71164V21.0018H7.45407V26.439Z" fill="#320049"/>
<path d="M18.1045 28.0015H14.2844C13.853 28.0015 13.5032 27.6517 13.5032 27.2203V17.8727C13.5032 17.4413 13.853 17.0914 14.2844 17.0914H18.1045C18.536 17.0914 18.8858 17.4413 18.8858 17.8727V27.2202C18.8858 27.6517 18.536 28.0015 18.1045 28.0015ZM15.0657 26.439H17.3233V18.6539H15.0657V26.439Z" fill="#320049"/>
<path d="M25.7156 28.0015H21.8955C21.4641 28.0015 21.1143 27.6517 21.1143 27.2203V15.525C21.1143 15.0936 21.4641 14.7437 21.8955 14.7437H25.7156C26.147 14.7437 26.4968 15.0936 26.4968 15.525V27.2203C26.4968 27.6517 26.1471 28.0015 25.7156 28.0015ZM22.6768 26.439H24.9343V16.3062H22.6768V26.439Z" fill="#320049"/>
<path d="M33.3272 28.0015H29.5071C29.0756 28.0015 28.7259 27.6517 28.7259 27.2203V13.1771C28.7259 12.7457 29.0756 12.3958 29.5071 12.3958H33.3272C33.7586 12.3958 34.1084 12.7457 34.1084 13.1771V21.3727C34.1084 21.8041 33.7586 22.1539 33.3272 22.1539C32.8958 22.1539 32.5459 21.8041 32.5459 21.3727V13.9583H30.2884V26.439H33.3272C33.7586 26.439 34.1084 26.7889 34.1084 27.2203C34.1084 27.6517 33.7586 28.0015 33.3272 28.0015Z" fill="#320049"/>
<path d="M39.2188 3.93409H23.0181C23.0876 3.70346 23.1292 3.44448 23.1292 3.15018C23.1292 1.42081 21.7223 0.013855 19.993 0.013855C18.2637 0.013855 16.8568 1.42081 16.8568 3.15018C16.8568 3.44448 16.8984 3.70346 16.9678 3.93409H0.78125C0.349766 3.93409 0 4.28393 0 4.71534V9.23995C0 9.67136 0.349766 10.0212 0.78125 10.0212H1.87156V30.5827C1.87156 31.0141 2.22133 31.3639 2.65281 31.3639H18.3584V33.9373C17.0402 34.2839 16.0651 35.4859 16.0651 36.9114C16.0651 38.6068 17.4443 39.9862 19.1397 39.9862C20.835 39.9862 22.2143 38.6069 22.2143 36.9114C22.2143 35.4859 21.2391 34.2839 19.9209 33.9373V31.3639H37.3472C37.7786 31.3639 38.1284 31.0141 38.1284 30.5827V10.0212H39.2188C39.6502 10.0212 40 9.67136 40 9.23995V4.71534C40 4.28393 39.6502 3.93409 39.2188 3.93409ZM20.6518 36.9114C20.6518 37.7453 19.9734 38.4237 19.1397 38.4237C18.3059 38.4237 17.6276 37.7453 17.6276 36.9114C17.6276 36.0776 18.3059 35.3992 19.1397 35.3992C19.9734 35.3992 20.6518 36.0776 20.6518 36.9114ZM18.4194 3.15018C18.4194 2.28237 19.1253 1.57635 19.993 1.57635C20.8608 1.57635 21.5668 2.28237 21.5668 3.15018C21.5668 3.44909 21.4898 3.65339 21.2595 3.93409H18.7266C18.4963 3.65346 18.4194 3.44925 18.4194 3.15018ZM38.4375 8.4587H13.0561C12.6247 8.4587 12.2748 8.80854 12.2748 9.23995C12.2748 9.67136 12.6247 10.0212 13.0561 10.0212H36.5659V29.8014H3.43406V10.0212H5.60008C6.03148 10.0212 6.38133 9.67136 6.38133 9.23995C6.38133 8.80854 6.03148 8.4587 5.60008 8.4587H1.5625V5.49659H38.4375V8.4587Z" fill="#320049"/>
</svg>
