<svg width="32" height="40" viewBox="0 0 32 40" fill="none" xmlns="http://www.w3.org/2000/svg">
<path d="M31.3106 7.65625C31.3105 7.45305 31.233 7.2532 31.0837 7.10383L24.2087 0.228828C24.0673 0.0874219 23.872 0 23.6562 0H1.46875C1.03727 0 0.6875 0.349844 0.6875 0.78125V16.4844C0.6875 16.9158 1.03727 17.2656 1.46875 17.2656C1.90023 17.2656 2.25 16.9158 2.25 16.4844V1.5625H22.875V7.65625C22.875 8.08766 23.2248 8.4375 23.6562 8.4375H29.75V38.4375H2.25V23.5156C2.25 23.0842 1.90023 22.7344 1.46875 22.7344C1.03727 22.7344 0.6875 23.0842 0.6875 23.5156V39.2188C0.6875 39.6502 1.03727 40 1.46875 40H30.5312C30.9627 40 31.3125 39.6502 31.3125 39.2188V7.65625H31.3106ZM24.4375 6.875V2.66742L28.6452 6.875H24.4375Z" fill="#320049"/>
<path d="M8.33785 21.0094L14.2666 26.9382C14.7445 27.4161 15.3722 27.6551 16 27.6551C16.6278 27.6551 17.2556 27.4161 17.7335 26.9382L23.6622 21.0094C24.7593 19.9123 25.3635 18.4537 25.3635 16.9022C25.3635 15.3508 24.7593 13.8921 23.6622 12.795C21.5734 10.7063 18.2765 10.5439 16 12.3081C13.7236 10.5439 10.4268 10.7063 8.33793 12.795C7.24082 13.8921 6.6366 15.3508 6.6366 16.9023C6.6366 18.4537 7.24082 19.9123 8.33785 21.0094ZM16.6286 25.8333C16.282 26.18 15.718 26.1798 15.3714 25.8333L9.44269 19.9045C9.34066 19.8025 9.24465 19.6961 9.15441 19.5859H12.4949C12.7525 19.5859 12.9935 19.459 13.1392 19.2465L14.0674 17.8929L15.1697 22.1032C15.2497 22.4091 15.5063 22.6366 15.8196 22.6794C15.855 22.6843 15.8905 22.6866 15.9257 22.6866C16.2007 22.6866 16.4591 22.5412 16.6004 22.2989L18.1824 19.5859H22.8453C22.7556 19.6958 22.6596 19.8022 22.5572 19.9045L16.6286 25.8333ZM9.44269 13.8998C10.2705 13.072 11.3579 12.6581 12.4452 12.6581C13.5325 12.6581 14.6198 13.072 15.4476 13.8998C15.7527 14.2048 16.2474 14.2048 16.5525 13.8998C18.208 12.2443 20.9019 12.2443 22.5574 13.8998C23.6725 15.0149 24.0354 16.6009 23.6483 18.0234H17.7336C17.4557 18.0234 17.1987 18.1711 17.0587 18.4112L16.2026 19.8792L15.1459 15.843C15.0685 15.5472 14.8255 15.3238 14.5243 15.2713C14.2227 15.2189 13.9188 15.3469 13.7458 15.5991L12.0833 18.0234H8.3491C8.25089 17.6624 8.19902 17.2864 8.19902 16.9022C8.1991 15.768 8.64074 14.7018 9.44269 13.8998Z" fill="#320049"/>
<path d="M23.4086 30.4688H8.59158C8.1601 30.4688 7.81033 30.8186 7.81033 31.25C7.81033 31.6814 8.1601 32.0312 8.59158 32.0312H23.4086C23.8401 32.0312 24.1898 31.6814 24.1898 31.25C24.1898 30.8186 23.8401 30.4688 23.4086 30.4688Z" fill="#320049"/>
<path d="M23.4086 34.2188H8.59158C8.1601 34.2188 7.81033 34.5686 7.81033 35C7.81033 35.4314 8.1601 35.7812 8.59158 35.7812H23.4086C23.8401 35.7812 24.1898 35.4314 24.1898 35C24.1898 34.5686 23.8401 34.2188 23.4086 34.2188Z" fill="#320049"/>
<path d="M1.46875 20.7812C1.67422 20.7812 1.87578 20.6977 2.02109 20.5523C2.16641 20.407 2.25 20.2055 2.25 20C2.25 19.7945 2.16641 19.593 2.02109 19.4477C1.87578 19.3023 1.67422 19.2188 1.46875 19.2188C1.26328 19.2188 1.06172 19.3023 0.916406 19.4477C0.771094 19.593 0.6875 19.7945 0.6875 20C0.6875 20.2055 0.771094 20.407 0.916406 20.5523C1.06172 20.6977 1.26328 20.7812 1.46875 20.7812Z" fill="#320049"/>
</svg>
