<svg width="40" height="40" viewBox="0 0 40 40" fill="none" xmlns="http://www.w3.org/2000/svg">
<path d="M32.3497 35.5414C32.2029 35.3949 32.0042 35.3125 31.797 35.3125H31.0158V33.6157C31.9252 33.2932 32.5783 32.4246 32.5783 31.4062C32.5783 30.1138 31.5269 29.0625 30.2345 29.0625H29.1557C34.2323 26.5665 37.7345 21.3409 37.7345 15.3125C37.7345 6.8692 30.8653 0 22.422 0C17.2969 0 12.7528 2.53204 9.97206 6.40991L9.86189 6.39374C9.86189 6.39374 8.59602 3.78632 8.59358 3.78174C8.31709 3.21198 7.46443 3.21259 7.18794 3.78174L5.91993 6.39374L3.08912 6.81183C2.79646 6.85486 2.55323 7.05994 2.46107 7.341C2.3686 7.62207 2.44337 7.93121 2.65333 8.13965L4.7093 10.1764C4.7093 10.1764 4.22438 13.0502 4.22346 13.0554C4.11848 13.6774 4.80513 14.1721 5.36177 13.8745L7.21724 12.8833C7.13728 13.638 7.10951 14.6375 7.10951 15.3125C7.10951 21.3409 10.612 26.5665 15.6886 29.0625H14.6095C13.3171 29.0625 12.2658 30.1138 12.2658 31.4062C12.2658 32.4246 12.9191 33.2932 13.8283 33.6157V35.3125H13.047C12.8398 35.3125 12.6411 35.3949 12.4946 35.5414C12.4946 35.5414 9.3733 38.6627 9.36964 38.6664C8.89479 39.1412 9.23384 40 9.92201 40H34.922C35.6026 40 35.9562 39.1483 35.4747 38.6664L32.3497 35.5414ZM6.09694 9.3515L4.86311 8.12927L6.55653 7.87903C6.81196 7.84119 7.0323 7.67975 7.14521 7.44751L7.89076 5.91156L8.63661 7.44751C8.74922 7.67975 8.96986 7.84119 9.22529 7.87903L10.9187 8.12927L9.68458 9.3515C9.50422 9.53064 9.42183 9.78607 9.46424 10.0366L9.75264 11.7465L8.25911 10.9485C8.03053 10.8264 7.75099 10.8264 7.52272 10.9485L6.02888 11.7465L6.31727 10.0366C6.35969 9.78607 6.2776 9.53064 6.09694 9.3515ZM8.67201 15.3125C8.67201 14.5389 8.73793 13.7808 8.86122 13.042C8.86122 13.042 10.4158 13.8727 10.4198 13.8745C10.9773 14.1727 11.6633 13.6783 11.5581 13.0554L11.0722 10.1764C11.0722 10.1764 13.1239 8.14362 13.1282 8.13965C13.5759 7.69592 13.3153 6.90369 12.6924 6.81183L11.7369 6.67053C14.2598 3.55713 18.1117 1.5625 22.422 1.5625C30.0038 1.5625 36.172 7.73071 36.172 15.3125C36.172 22.8943 30.0038 29.0625 22.422 29.0625C14.8402 29.0625 8.67201 22.8943 8.67201 15.3125V15.3125ZM14.6095 30.625H30.2345C30.6654 30.625 31.0158 30.9753 31.0158 31.4062C31.0158 31.8372 30.6654 32.1875 30.2345 32.1875H14.6095C14.1789 32.1875 13.8283 31.8372 13.8283 31.4062C13.8283 30.9753 14.1789 30.625 14.6095 30.625ZM15.3908 33.75H29.4533V35.3125H15.3908V33.75ZM11.8083 38.4375L13.3708 36.875H31.4735L33.036 38.4375H11.8083Z" fill="#320049"/>
<path d="M22.4554 3.125C22.0257 3.125 21.6751 3.47412 21.6735 3.90381C21.672 4.32587 22.0339 4.68597 22.4529 4.6875L22.4554 4.68353V4.6875C22.8842 4.6875 23.2351 4.33838 23.2366 3.90869C23.2382 3.48938 22.871 3.12653 22.4554 3.125Z" fill="#320049"/>
<path d="M33.8283 16.0937C34.2589 16.0937 34.6095 15.7431 34.6095 15.3125C34.6095 13.9483 34.3852 12.6086 33.944 11.3311C33.0943 8.87295 31.4382 6.71322 29.294 5.24532C28.2063 4.50222 27.0149 3.94375 25.7524 3.58578C25.3493 3.47164 24.905 3.71334 24.7878 4.12411C24.6706 4.53884 24.912 4.97188 25.3267 5.08907C29.8735 6.37874 33.0486 10.5828 33.047 15.3125C33.047 15.7431 33.398 16.0937 33.8283 16.0937V16.0937Z" fill="#320049"/>
<path d="M20.9703 15.2173L18.6763 14.8877C18.6763 14.8877 17.6534 12.839 17.6522 12.8366C17.3699 12.2717 16.5358 12.2726 16.2541 12.8366L15.23 14.8877C15.23 14.8877 12.9387 15.217 12.9357 15.2173C12.3101 15.307 12.0494 16.1142 12.5048 16.5533L14.1594 18.1473C14.1594 18.1473 13.7697 20.3927 13.7691 20.3958C13.6614 21.0171 14.3401 21.513 14.8992 21.2225L16.953 20.1553C16.953 20.1553 19.0041 21.221 19.0068 21.2225C19.5671 21.5136 20.2443 21.0147 20.1369 20.3958L19.7469 18.1473C19.7469 18.1473 21.3991 16.5551 21.4015 16.5533C21.8526 16.1184 21.5895 15.3061 20.9703 15.2173V15.2173ZM18.3641 17.3095C18.1774 17.4896 18.0922 17.7502 18.1365 18.0056L18.3278 19.1086C18.3278 19.1086 17.314 18.5818 17.3134 18.5815C17.0964 18.4686 16.8163 18.4655 16.5929 18.5815L15.5785 19.1086L15.7698 18.0056C15.8141 17.7502 15.7286 17.4896 15.5422 17.3095L14.7396 16.5365L15.8571 16.376C16.1107 16.3397 16.3304 16.181 16.4449 15.9518L16.953 14.9344L17.4611 15.9518C17.5759 16.1813 17.7953 16.3397 18.0492 16.3763L19.1664 16.5368L18.3641 17.3095Z" fill="#320049"/>
</svg>
