<svg width="40" height="40" viewBox="0 0 40 40" fill="none" xmlns="http://www.w3.org/2000/svg">
<path d="M3.40588 24.0666C3.58258 24.0668 3.75211 23.9968 3.87722 23.872L8.54388 19.2053C8.77889 18.9409 8.76652 18.539 8.51569 18.2896C8.26487 18.0402 7.86292 18.0301 7.59988 18.2666L2.93322 22.9333C2.74575 23.1246 2.69092 23.4094 2.794 23.6566C2.89709 23.9038 3.13808 24.0653 3.40588 24.0666Z" fill="#320049"/>
<path d="M2.90118 30.5073C3.16152 30.7676 3.58352 30.7676 3.84385 30.5073L8.51052 25.8407C8.68382 25.6733 8.75332 25.4254 8.69231 25.1923C8.6313 24.9592 8.44927 24.7772 8.21619 24.7162C7.9831 24.6552 7.73523 24.7247 7.56785 24.898L2.90118 29.5647C2.64093 29.825 2.64093 30.247 2.90118 30.5073Z" fill="#320049"/>
<path d="M15.1434 24.8666C14.883 24.6064 14.461 24.6064 14.2007 24.8666L6.86737 32.2C6.69407 32.3674 6.62456 32.6152 6.68557 32.8483C6.74658 33.0814 6.92861 33.2634 7.1617 33.3244C7.39479 33.3854 7.64266 33.3159 7.81004 33.1426L15.1434 25.8093C15.4036 25.549 15.4036 25.127 15.1434 24.8666Z" fill="#320049"/>
<path d="M20.7999 31.4666L16.1333 36.1333C15.96 36.3007 15.8905 36.5485 15.9515 36.7816C16.0125 37.0147 16.1945 37.1967 16.4276 37.2578C16.6607 37.3188 16.9085 37.2493 17.0759 37.076L21.7426 32.4093C21.9952 32.1477 21.9916 31.7319 21.7345 31.4747C21.4773 31.2176 21.0615 31.214 20.7999 31.4666Z" fill="#320049"/>
<path d="M14.1672 31.498L9.50052 36.1647C9.32722 36.332 9.25771 36.5799 9.31872 36.813C9.37973 37.0461 9.56176 37.2281 9.79485 37.2891C10.0279 37.3501 10.2758 37.2806 10.4432 37.1073L15.1099 32.4407C15.3625 32.1791 15.3589 31.7633 15.1017 31.5061C14.8446 31.249 14.4288 31.2453 14.1672 31.498Z" fill="#320049"/>
<path d="M25.0605 6.23395C23.4404 5.25477 21.364 5.48934 20.0032 6.80529C19.8299 6.97267 19.7604 7.22054 19.8214 7.45362C19.8824 7.68671 20.0644 7.86874 20.2975 7.92975C20.5306 7.99076 20.7785 7.92126 20.9458 7.74795C22.4285 6.26595 24.2925 7.32929 24.3765 7.37795C24.6915 7.55538 25.0904 7.44949 25.2759 7.13923C25.4614 6.82898 25.3659 6.42741 25.0605 6.23395Z" fill="#320049"/>
<path d="M25.1552 31.3226C25.4376 32.5178 26.1746 33.556 27.2099 34.2166C27.8121 34.5414 28.5252 34.59 29.1659 34.35C29.3595 34.2807 29.5423 34.1847 29.7092 34.0646C29.9222 34.8007 30.2739 35.4892 30.7452 36.0933C31.4174 37.0552 32.6393 37.4646 33.7552 37.102C33.9598 37.0273 34.153 36.9246 34.3292 36.7966L34.3352 36.8213C34.619 38.0178 35.3564 39.0573 36.3919 39.7206C36.7353 39.9033 37.1182 39.9992 37.5072 40C37.7946 39.9987 38.0796 39.9473 38.3492 39.848C39.3372 39.4853 39.9956 38.5465 39.9999 37.494L39.9866 27.7166C39.9936 24.8723 38.6283 22.1991 36.3199 20.5373C37.7823 18.041 37.412 14.8776 35.4126 12.7866C33.8416 11.2225 31.68 10.3997 29.4666 10.5233C29.5884 8.31014 28.7644 6.1494 27.1999 4.57931C25.1092 2.57978 21.9459 2.20944 19.4499 3.67197C17.7918 1.38197 15.1359 0.0262474 12.3086 0.026639H12.2879L2.50657 0.0133057C1.45353 0.0184425 0.51472 0.677819 0.152572 1.66664C-0.0868903 2.30694 -0.0382882 3.01945 0.285906 3.62131C0.948351 4.65601 1.98662 5.39313 3.18191 5.67731L3.20657 5.68397C3.07834 5.86047 2.97514 6.05386 2.89991 6.25864C2.54185 7.37592 2.95451 8.59606 3.91724 9.26664C4.518 9.73863 5.20439 10.09 5.93857 10.3013C5.81814 10.4675 5.72206 10.65 5.65324 10.8433C5.41276 11.4846 5.46138 12.1985 5.78657 12.8013C6.44735 13.8368 7.48576 14.5738 8.68124 14.856C9.73132 15.0862 10.8081 15.1705 11.8812 15.1066C12.8256 15.052 13.7729 15.1263 14.6972 15.3273C14.8693 17.9496 15.259 20.553 15.8626 23.1106C15.9759 23.6191 16.3715 24.017 16.8792 24.1333C19.4422 24.7385 22.0513 25.1285 24.6792 25.2993C24.882 26.2254 24.9571 27.1749 24.9026 28.1213C24.8404 29.1949 24.9254 30.272 25.1552 31.3226ZM14.6592 13.9366C13.7344 13.7826 12.7957 13.7285 11.8592 13.7753C10.906 13.8349 9.94915 13.7654 9.01457 13.5686C8.1826 13.3778 7.45126 12.8845 6.96257 12.1846C6.81112 11.9129 6.7903 11.5874 6.90591 11.2986C7.07687 10.9183 7.45296 10.6718 7.86991 10.6666H12.6666C13.0348 10.6666 13.3332 10.3682 13.3332 9.99997C13.3332 9.63178 13.0348 9.33331 12.6666 9.33331H7.84391C7.73234 9.32848 7.62108 9.31802 7.51057 9.30197C6.5178 9.19039 5.57073 8.8241 4.76124 8.23864C4.26201 7.90618 4.019 7.30065 4.14991 6.71531C4.33006 6.26807 4.77142 5.98192 5.25324 5.99997H5.25991H9.99991C10.3681 5.99997 10.6666 5.7015 10.6666 5.33331C10.6666 4.96512 10.3681 4.66664 9.99991 4.66664H5.25524C4.66905 4.63751 4.08781 4.54429 3.52191 4.38864C2.68897 4.19509 1.95696 3.70051 1.46657 2.99997C1.31622 2.73043 1.29492 2.40759 1.40857 2.12064C1.57749 1.6596 2.01425 1.35134 2.50524 1.34664L12.2886 1.35997H12.3059C14.6835 1.35979 16.9201 2.48788 18.3332 4.39997C18.0581 4.61073 17.7965 4.83851 17.5499 5.08197C15.6052 7.02864 14.6512 9.92131 14.6592 13.9366ZM18.4946 6.02531C19.6253 4.83547 21.1824 4.14361 22.8232 4.10197C24.114 4.09362 25.3537 4.60546 26.2626 5.52197C27.724 7.00026 28.3926 9.08696 28.0626 11.1393C28.0164 11.3599 28.0848 11.589 28.2445 11.7481C28.4041 11.9072 28.6334 11.9749 28.8539 11.928C30.9048 11.6093 32.9858 12.2764 34.4692 13.728C36.5399 15.7986 36.3232 19.138 33.9659 21.496C31.1232 24.3386 25.7866 24.7626 17.1619 22.8193C15.2292 14.2046 15.6526 8.86664 18.4946 6.02531ZM26.1112 25.3386C30.1006 25.3386 32.9712 24.378 34.9112 22.44C35.1554 22.192 35.3838 21.9291 35.5952 21.6526C37.5248 23.0693 38.6618 25.3222 38.6552 27.716L38.6666 37.4946C38.6633 37.9867 38.3551 38.4251 37.8932 38.5946C37.6056 38.7093 37.2816 38.6883 37.0112 38.5373C36.3104 38.0453 35.8164 37.3112 35.6246 36.4766C35.4682 35.9109 35.3749 35.3296 35.3466 34.7433V30C35.3466 29.6318 35.0481 29.3333 34.6799 29.3333C34.3117 29.3333 34.0132 29.6318 34.0132 30V34.7666C34.0244 35.2407 33.7393 35.6716 33.2986 35.8466C32.716 35.9829 32.1099 35.7439 31.7772 35.2466C31.1914 34.436 30.8241 33.4883 30.7106 32.4946C30.6941 32.3842 30.6832 32.2729 30.6779 32.1613V27.3333C30.6779 26.9651 30.3794 26.6666 30.0112 26.6666C29.643 26.6666 29.3446 26.9651 29.3446 27.3333V32.1333C29.337 32.5483 29.0894 32.9213 28.7099 33.0893C28.4218 33.204 28.0974 33.1829 27.8266 33.032C27.127 32.5437 26.634 31.8128 26.4432 30.9813C26.2458 30.0459 26.1759 29.0881 26.2352 28.134C26.2816 27.1975 26.2269 26.2587 26.0719 25.334L26.1112 25.3386Z" fill="#320049"/>
</svg>
