<svg width="40" height="40" viewBox="0 0 40 40" fill="none" xmlns="http://www.w3.org/2000/svg">
<path d="M9.60938 20.9398V21.7204C9.60938 22.044 9.87164 22.3064 10.1953 22.3064C10.519 22.3064 10.7812 22.044 10.7812 21.7204V20.9398C10.7812 20.6162 10.519 20.3539 10.1953 20.3539C9.87164 20.3539 9.60938 20.6162 9.60938 20.9398Z" fill="#320049"/>
<path d="M17.7344 20.9398V21.7204C17.7344 22.044 17.9966 22.3064 18.3203 22.3064C18.644 22.3064 18.9062 22.044 18.9062 21.7204V20.9398C18.9062 20.6162 18.644 20.3539 18.3203 20.3539C17.9966 20.3539 17.7344 20.6162 17.7344 20.9398Z" fill="#320049"/>
<path d="M14.8873 21.3122C14.7284 21.4946 14.4989 21.5992 14.2579 21.5992C14.0169 21.5992 13.7875 21.4946 13.6285 21.3122C13.4158 21.0683 13.0457 21.0429 12.8018 21.2555C12.5578 21.4682 12.5325 21.8383 12.745 22.0822C13.1267 22.5201 13.678 22.7711 14.2578 22.7711C14.8377 22.7711 15.389 22.5201 15.7706 22.0822C15.9832 21.8383 15.9578 21.4682 15.7139 21.2555C15.47 21.0429 15.0999 21.0682 14.8873 21.3122Z" fill="#320049"/>
<path d="M35.5078 0H15.9766C13.9956 0 12.2846 1.26789 11.6964 3.125H4.49219C2.01516 3.125 0 5.14016 0 7.61719V35.5078C0 37.9848 2.01516 40 4.49219 40H24.0234C26.0238 40 27.7223 38.6854 28.3022 36.875H35.5078C37.9848 36.875 40 34.8598 40 32.3828V4.49219C40 2.01516 37.9848 0 35.5078 0ZM24.0234 38.8281H4.49219C2.66133 38.8281 1.17188 37.3387 1.17188 35.5078V7.61719C1.17188 5.78633 2.66133 4.29688 4.49219 4.29688H23.9062H24.0234C25.8543 4.29688 27.3438 5.78633 27.3438 7.61719V35.5078C27.3438 37.3387 25.8543 38.8281 24.0234 38.8281ZM38.8281 32.3828C38.8281 34.2137 37.3387 35.7031 35.5078 35.7031H28.5107C28.5135 35.6383 28.5156 35.5733 28.5156 35.5078V33.75H32.3828C32.7065 33.75 32.9688 33.4877 32.9688 33.1641C32.9688 31.3332 34.4582 29.8438 36.2891 29.8438C36.6127 29.8438 36.875 29.5814 36.875 29.2578V23.363C36.875 23.0394 36.6127 22.777 36.2891 22.777C35.9654 22.777 35.7031 23.0394 35.7031 23.363V28.7098C33.6937 28.9727 32.0978 30.5686 31.8349 32.578H28.5156V7.61719C28.5156 6.30312 27.9484 5.11906 27.046 4.29688H31.835C32.0978 6.30633 33.6938 7.90219 35.7032 8.16508V21.0914C35.7032 21.415 35.9655 21.6773 36.2891 21.6773C36.6128 21.6773 36.8751 21.415 36.8751 21.0914V7.61719C36.8751 7.29359 36.6128 7.03125 36.2891 7.03125C34.4582 7.03125 32.9688 5.5418 32.9688 3.71094C32.9688 3.38734 32.7065 3.125 32.3828 3.125H24.0234H23.9062H12.9488C13.4749 1.94945 14.6427 1.17188 15.9766 1.17188H35.5078C37.3387 1.17188 38.8281 2.66133 38.8281 4.49219V32.3828Z" fill="#320049"/>
<path d="M19.4691 17.898C19.2402 17.6692 18.8693 17.6692 18.6405 17.898C18.4116 18.1269 18.4116 18.4979 18.6405 18.7266L21.4763 21.5625L14.258 28.7808L7.03974 21.5625L14.258 14.3442L17.0938 17.18C17.3227 17.4088 17.6937 17.4088 17.9225 17.18C18.1513 16.9512 18.1513 16.5801 17.9225 16.3514L14.6723 13.1012C14.4434 12.8724 14.0725 12.8724 13.8437 13.1012L5.79677 21.1481C5.56795 21.3769 5.56795 21.7479 5.79677 21.9767L13.8437 30.0236C13.9581 30.1379 14.1081 30.1952 14.258 30.1952C14.408 30.1952 14.558 30.138 14.6724 30.0236L22.7193 21.9767C22.9481 21.7479 22.9481 21.3769 22.7193 21.1481L19.4691 17.898Z" fill="#320049"/>
<path d="M17.4947 13.2914C17.404 13.5104 17.4541 13.7623 17.6217 13.9299L21.8906 18.1988C22.0028 18.3109 22.1526 18.3705 22.3051 18.3705C22.3806 18.3705 22.4567 18.3559 22.5292 18.3259C22.7482 18.2352 22.8909 18.0215 22.8909 17.7845V13.5156C22.8909 13.192 22.6286 12.9297 22.305 12.9297H18.036C17.799 12.9297 17.5853 13.0724 17.4947 13.2914ZM21.7189 14.1016V16.3699L19.4506 14.1016H21.7189Z" fill="#320049"/>
<path d="M5.98672 18.3259C6.05922 18.3559 6.13531 18.3705 6.21078 18.3705C6.36328 18.3705 6.51313 18.3109 6.62531 18.1988L10.8942 13.9299C11.0618 13.7623 11.1119 13.5103 11.0212 13.2914C10.9305 13.0724 10.7168 12.9297 10.4798 12.9297H6.21094C5.88727 12.9297 5.625 13.192 5.625 13.5156V17.7845C5.625 18.0216 5.76773 18.2352 5.98672 18.3259ZM6.79688 14.1016H9.06523L6.79688 16.3699V14.1016Z" fill="#320049"/>
<path d="M10.4813 30.1953C10.805 30.1953 11.0673 29.9329 11.0673 29.6093C11.0673 29.4346 10.9908 29.2776 10.8695 29.1703L6.62531 24.9261C6.45766 24.7584 6.2057 24.7083 5.98672 24.799C5.76773 24.8897 5.625 25.1034 5.625 25.3404V29.6093C5.625 29.9329 5.88727 30.1953 6.21094 30.1953H10.4798H10.4813ZM6.79688 29.0234V26.755L9.06523 29.0234H6.79688Z" fill="#320049"/>
<path d="M22.5291 24.7992C22.3101 24.7085 22.0581 24.7587 21.8905 24.9262L17.6216 29.1951C17.454 29.3627 17.4039 29.6147 17.4946 29.8336C17.5852 30.0526 17.799 30.1953 18.0359 30.1953H22.3049C22.6285 30.1953 22.8908 29.933 22.8908 29.6094V25.3405C22.8908 25.1035 22.7481 24.8899 22.5291 24.7992ZM21.7189 29.0235H19.4506L21.7189 26.7551V29.0235Z" fill="#320049"/>
<path d="M10.3796 11.7578H18.1361C18.4598 11.7578 18.722 11.4955 18.722 11.1719C18.722 10.8483 18.4598 10.5859 18.1361 10.5859H10.3796C10.0559 10.5859 9.79367 10.8483 9.79367 11.1719C9.79367 11.4955 10.056 11.7578 10.3796 11.7578Z" fill="#320049"/>
<path d="M18.1362 31.3672H10.3797C10.056 31.3672 9.79376 31.6295 9.79376 31.9531C9.79376 32.2767 10.056 32.5391 10.3797 32.5391H18.1362C18.4599 32.5391 18.7221 32.2767 18.7221 31.9531C18.7221 31.6295 18.4598 31.3672 18.1362 31.3672Z" fill="#320049"/>
<path d="M24.8047 10.1562C22.9738 10.1562 21.4844 8.6668 21.4844 6.83594C21.4844 6.51234 21.2221 6.25 20.8984 6.25H7.61719C7.29352 6.25 7.03125 6.51234 7.03125 6.83594C7.03125 8.6668 5.5418 10.1562 3.71094 10.1562C3.38727 10.1562 3.125 10.4186 3.125 10.7422V32.3828C3.125 32.7064 3.38727 32.9688 3.71094 32.9688C5.5418 32.9688 7.03125 34.4582 7.03125 36.2891C7.03125 36.6127 7.29352 36.875 7.61719 36.875H20.8984C21.2221 36.875 21.4844 36.6127 21.4844 36.2891C21.4844 34.4582 22.9738 32.9688 24.8047 32.9688C25.1284 32.9688 25.3906 32.7064 25.3906 32.3828V10.7422C25.3906 10.4186 25.1284 10.1562 24.8047 10.1562ZM24.2188 31.8349C22.2093 32.0978 20.6134 33.6937 20.3505 35.7031H8.16508C7.90227 33.6937 6.30633 32.0978 4.29688 31.8349V11.2901C6.30633 11.0272 7.90219 9.43133 8.16508 7.42188H20.3506C20.6134 9.43133 22.2094 11.0272 24.2188 11.2901V31.8349H24.2188Z" fill="#320049"/>
</svg>
