<svg width="40" height="40" viewBox="0 0 40 40" fill="none" xmlns="http://www.w3.org/2000/svg">
<path d="M32.6562 5.18039V0.78125C32.6562 0.349844 32.3064 0 31.875 0H27.1875C26.7561 0 26.4062 0.349844 26.4062 0.78125V5.16203C24.2927 5.81641 22.4535 7.10703 21.1805 8.8425C20.9124 9.20875 20.4822 9.41875 20 9.41875C19.5178 9.41875 19.0875 9.20875 18.8191 8.8418C17.5465 7.10695 15.7073 5.81633 13.5938 5.16195V0.78125C13.5938 0.349844 13.2439 0 12.8125 0H8.125C7.69359 0 7.34375 0.349844 7.34375 0.78125V5.18039C5.3732 5.8243 3.5875 7.08609 2.26672 8.78008C0.805 10.6548 0 12.9513 0 15.2469V39.2188C0 39.6502 0.349844 40 0.78125 40C3.49797 40 5.97109 37.9877 6.35383 35.2622C8.78828 34.9358 10.8507 33.0444 11.1976 30.5747C13.632 30.2483 15.6943 28.3572 16.0413 25.8875C17.7208 25.6627 19.1615 24.6741 20 23.2822C20.8385 24.674 22.2792 25.6627 23.9587 25.8875C24.3059 28.3584 26.3692 30.2485 28.8024 30.5747C29.1495 33.0455 31.213 34.9359 33.6462 35.2622C34.0287 37.9855 36.5003 40 39.2188 40C39.6502 40 40 39.6502 40 39.2188V30.5469C40 30.1155 39.6502 29.7656 39.2188 29.7656C38.7873 29.7656 38.4375 30.1155 38.4375 30.5469V38.3616C36.5938 38.0001 35.1562 36.3927 35.1562 34.5312V22.3438C35.1562 21.9123 34.8064 21.5625 34.375 21.5625C33.9436 21.5625 33.5938 21.9123 33.5938 22.3438V33.6735C31.7502 33.3119 30.3125 31.705 30.3125 29.8438V20C30.3125 19.5686 29.9627 19.2188 29.5312 19.2188C29.0998 19.2188 28.75 19.5686 28.75 20V28.986C26.9065 28.6244 25.4688 27.0175 25.4688 25.1562V17.6562C25.4688 17.2248 25.1189 16.875 24.6875 16.875C24.2561 16.875 23.9062 17.2248 23.9062 17.6562V24.2964C22.1254 23.9334 20.7812 22.3552 20.7812 20.4688V10.8801C21.4459 10.707 22.0371 10.3176 22.4409 9.76602C24.2656 7.27836 27.3693 6.00375 30.3784 6.29023C34.8159 6.71227 38.4375 10.6681 38.4375 15.2469V23.5156C38.4375 23.947 38.7873 24.2969 39.2188 24.2969C39.6502 24.2969 40 23.947 40 23.5156V15.2469C40 10.7257 36.9277 6.5757 32.6562 5.18039ZM12.0312 1.5625V4.80445C11.1852 4.67719 10.3285 4.65328 9.47367 4.73477C9.2843 4.75273 9.09508 4.77844 8.90625 4.80773V1.5625H12.0312ZM16.0938 24.2964V17.6562C16.0938 17.2248 15.7439 16.875 15.3125 16.875C14.8811 16.875 14.5312 17.2248 14.5312 17.6562V25.1562C14.5312 27.0175 13.0935 28.6244 11.25 28.986V20C11.25 19.5686 10.9002 19.2188 10.4688 19.2188C10.0373 19.2188 9.6875 19.5686 9.6875 20V29.8438C9.6875 31.705 8.24977 33.3119 6.40625 33.6735V22.3438C6.40625 21.9123 6.05641 21.5625 5.625 21.5625C5.19359 21.5625 4.84375 21.9123 4.84375 22.3438V34.5312C4.84375 36.3927 3.40625 38.0001 1.5625 38.3616V15.2469C1.5625 10.6641 5.18836 6.71172 9.6218 6.29016C12.6609 6.00078 15.761 7.31469 17.5587 9.76523C17.9627 10.3173 18.5541 10.7069 19.2188 10.88V20.4688C19.2188 22.3552 17.8746 23.9334 16.0938 24.2964ZM27.9688 4.80437V1.5625H31.0938V4.80766C30.9049 4.77836 30.7158 4.75273 30.5265 4.73469C29.6715 4.6532 28.8148 4.67711 27.9688 4.80437Z" fill="#320049"/>
<path d="M39.2188 27.8125C39.6502 27.8125 40 27.4627 40 27.0312C40 26.5998 39.6502 26.25 39.2188 26.25C38.7873 26.25 38.4375 26.5998 38.4375 27.0312C38.4375 27.4627 38.7873 27.8125 39.2188 27.8125Z" fill="#320049"/>
</svg>
