<svg width="40" height="40" viewBox="0 0 40 40" fill="none" xmlns="http://www.w3.org/2000/svg">
<g clip-path="url(#clip0)">
<path d="M35.9998 0H25.3331C24.5968 0 23.9998 0.596954 23.9998 1.33333V2.66667C24.0018 4.36012 25.0699 5.86885 26.6665 6.43333V10C26.6665 13.6819 29.6512 16.6667 33.3331 16.6667C37.015 16.6667 39.9998 13.6819 39.9998 10V4C39.9976 1.79178 38.208 0.00220492 35.9998 0ZM25.3331 2.66667V1.33333H35.9998C37.4726 1.33333 38.6665 2.52724 38.6665 4V5.33333H27.9998C26.5271 5.33333 25.3331 4.13943 25.3331 2.66667ZM38.6665 10C38.6704 11.9372 37.6215 13.7236 35.9279 14.6641C34.2343 15.6046 32.1635 15.5507 30.5211 14.5233H30.5745C32.4206 14.5892 34.197 13.8148 35.4051 12.4173C35.5549 12.232 35.5945 11.9809 35.509 11.7585C35.4234 11.5361 35.2257 11.3762 34.9903 11.3392C34.7549 11.3021 34.5176 11.3934 34.3678 11.5787C33.0251 13.2393 30.6391 13.4507 28.9011 12.9547C28.314 12.0811 28.0002 11.0525 27.9998 10V6.66667H38.6665L38.6665 10Z" fill="#320049"/>
<path d="M29.9999 9.99996C30.3681 9.99996 30.6665 9.70148 30.6665 9.33329C30.6665 8.9651 30.3681 8.66663 29.9999 8.66663C29.6317 8.66663 29.3332 8.9651 29.3332 9.33329C29.3332 9.70148 29.6317 9.99996 29.9999 9.99996Z" fill="#320049"/>
<path d="M33.3333 9.99996C33.7015 9.99996 34 9.70148 34 9.33329C34 8.9651 33.7015 8.66663 33.3333 8.66663C32.9652 8.66663 32.6667 8.9651 32.6667 9.33329C32.6667 9.70148 32.9652 9.99996 33.3333 9.99996Z" fill="#320049"/>
<path d="M14.6667 23.3334H3.99999C1.79176 23.3356 0.00218966 25.1251 -1.52588e-05 27.3334V33.3334C-1.52588e-05 37.0153 2.98475 40 6.66665 40C10.3486 40 13.3333 37.0153 13.3333 33.3334V29.7667C14.9299 29.2022 15.9981 27.6935 16 26V24.6667C16 23.9303 15.403 23.3334 14.6667 23.3334ZM12 33.3334C12.001 34.3862 11.6884 35.4156 11.102 36.29C9.36065 36.7854 6.97465 36.5747 5.63532 34.914C5.40373 34.6276 4.98377 34.5831 4.69732 34.8147C4.41087 35.0463 4.36639 35.4663 4.59799 35.7527C5.80622 37.15 7.5826 37.9244 9.42865 37.8587H9.48199C7.83916 38.888 5.76662 38.9427 4.07179 38.0015C2.37696 37.0603 1.32791 35.272 1.33332 33.3334L1.3333 30H12L12 33.3334ZM14.6667 26C14.6667 27.4728 13.4727 28.6667 12 28.6667H1.33332V27.3334C1.33332 25.8606 2.52723 24.6667 3.99999 24.6667H14.6667V26Z" fill="#320049"/>
<path d="M9.99987 33.3333C10.3681 33.3333 10.6665 33.0348 10.6665 32.6667C10.6665 32.2985 10.3681 32 9.99987 32C9.63168 32 9.33321 32.2985 9.33321 32.6667C9.33321 33.0348 9.63168 33.3333 9.99987 33.3333Z" fill="#320049"/>
<path d="M6.66684 33.3333C7.03503 33.3333 7.3335 33.0348 7.3335 32.6667C7.3335 32.2985 7.03503 32 6.66684 32C6.29865 32 6.00017 32.2985 6.00017 32.6667C6.00017 33.0348 6.29865 33.3333 6.66684 33.3333Z" fill="#320049"/>
<path d="M3.61198 21.486C4.10123 21.7555 4.70709 21.6882 5.12532 21.318L8.91665 18H19.3333C21.1734 17.9978 22.6644 16.5067 22.6667 14.6667V5.33333C22.6644 3.4933 21.1734 2.0022 19.3333 2H3.33332C1.49328 2.0022 0.00218882 3.4933 -1.52588e-05 5.33333V14.6667C0.00123469 16.4677 1.43123 17.9428 3.23132 18L2.92798 20.1267C2.84579 20.6788 3.11962 21.223 3.61198 21.486ZM1.33332 14.6667V5.33333C1.33332 4.22876 2.22875 3.33333 3.33332 3.33333H19.3333C20.4379 3.33333 21.3333 4.22876 21.3333 5.33333V14.6667C21.3333 15.7712 20.4379 16.6667 19.3333 16.6667H8.66665C8.50509 16.6665 8.34897 16.725 8.22732 16.8313L4.24732 20.3147L4.65998 17.428C4.68744 17.2366 4.63045 17.0427 4.50381 16.8966C4.37716 16.7506 4.19333 16.6666 3.99998 16.6667H3.33332C2.22875 16.6667 1.33332 15.7712 1.33332 14.6667V14.6667Z" fill="#320049"/>
<path d="M36.7686 22L37.072 19.8733C37.1522 19.3204 36.8791 18.776 36.3879 18.5098C35.8967 18.2435 35.2916 18.3117 34.872 18.6807L31.0833 22H20.6666C18.8266 22.0022 17.3355 23.4933 17.3333 25.3333V34.6667C17.3355 36.5067 18.8266 37.9978 20.6666 38H36.6666C38.5067 37.9978 39.9978 36.5067 40 34.6667V25.3333C39.9987 23.5323 38.5687 22.0572 36.7686 22V22ZM38.6666 34.6667C38.6666 35.7712 37.7712 36.6667 36.6666 36.6667H20.6666C19.5621 36.6667 18.6666 35.7712 18.6666 34.6667V25.3333C18.6666 24.2288 19.5621 23.3333 20.6666 23.3333H31.3333C31.4949 23.3335 31.651 23.275 31.7726 23.1687L35.7526 19.6853L35.34 22.572C35.3125 22.7634 35.3695 22.9573 35.4962 23.1033C35.6228 23.2494 35.8066 23.3333 36 23.3333H36.6666C37.7712 23.3333 38.6666 24.2288 38.6666 25.3333V34.6667Z" fill="#320049"/>
<path d="M4.66648 7.33327H6.66648C7.03467 7.33327 7.33315 7.0348 7.33315 6.66661C7.33315 6.29842 7.03467 5.99994 6.66648 5.99994H4.66648C4.29829 5.99994 3.99982 6.29842 3.99982 6.66661C3.99982 7.0348 4.29829 7.33327 4.66648 7.33327Z" fill="#320049"/>
<path d="M9.33354 7.33327H18.0002C18.3684 7.33327 18.6669 7.0348 18.6669 6.66661C18.6669 6.29842 18.3684 5.99994 18.0002 5.99994H9.33354C8.96535 5.99994 8.66687 6.29842 8.66687 6.66661C8.66687 7.0348 8.96535 7.33327 9.33354 7.33327Z" fill="#320049"/>
<path d="M4.66648 14H6.66648C7.03467 14 7.33315 13.7015 7.33315 13.3334C7.33315 12.9652 7.03467 12.6667 6.66648 12.6667H4.66648C4.29829 12.6667 3.99982 12.9652 3.99982 13.3334C3.99982 13.7015 4.29829 14 4.66648 14Z" fill="#320049"/>
<path d="M18.0002 12.6667H9.33354C8.96535 12.6667 8.66687 12.9652 8.66687 13.3334C8.66687 13.7015 8.96535 14 9.33354 14H18.0002C18.3684 14 18.6669 13.7015 18.6669 13.3334C18.6669 12.9652 18.3684 12.6667 18.0002 12.6667Z" fill="#320049"/>
<path d="M18.0001 9.33331H16.0001C15.6319 9.33331 15.3334 9.63179 15.3334 9.99998C15.3334 10.3682 15.6319 10.6666 16.0001 10.6666H18.0001C18.3682 10.6666 18.6667 10.3682 18.6667 9.99998C18.6667 9.63179 18.3682 9.33331 18.0001 9.33331Z" fill="#320049"/>
<path d="M4.66648 10.6666H13.3332C13.7013 10.6666 13.9998 10.3682 13.9998 9.99998C13.9998 9.63179 13.7013 9.33331 13.3332 9.33331H4.66648C4.29829 9.33331 3.99982 9.63179 3.99982 9.99998C3.99982 10.3682 4.29829 10.6666 4.66648 10.6666Z" fill="#320049"/>
<path d="M21.9998 27.3333H23.9998C24.368 27.3333 24.6665 27.0348 24.6665 26.6667C24.6665 26.2985 24.368 26 23.9998 26H21.9998C21.6316 26 21.3331 26.2985 21.3331 26.6667C21.3331 27.0348 21.6316 27.3333 21.9998 27.3333Z" fill="#320049"/>
<path d="M35.3335 26H26.6668C26.2987 26 26.0002 26.2985 26.0002 26.6667C26.0002 27.0348 26.2987 27.3333 26.6668 27.3333H35.3335C35.7017 27.3333 36.0002 27.0348 36.0002 26.6667C36.0002 26.2985 35.7017 26 35.3335 26Z" fill="#320049"/>
<path d="M23.9998 32.6667H21.9998C21.6316 32.6667 21.3331 32.9652 21.3331 33.3333C21.3331 33.7015 21.6316 34 21.9998 34H23.9998C24.368 34 24.6665 33.7015 24.6665 33.3333C24.6665 32.9652 24.368 32.6667 23.9998 32.6667Z" fill="#320049"/>
<path d="M35.3335 32.6667H26.6668C26.2987 32.6667 26.0002 32.9652 26.0002 33.3333C26.0002 33.7015 26.2987 34 26.6668 34H35.3335C35.7017 34 36.0002 33.7015 36.0002 33.3333C36.0002 32.9652 35.7017 32.6667 35.3335 32.6667Z" fill="#320049"/>
<path d="M35.3334 29.3333H33.3334C32.9652 29.3333 32.6667 29.6318 32.6667 30C32.6667 30.3682 32.9652 30.6666 33.3334 30.6666H35.3334C35.7016 30.6666 36 30.3682 36 30C36 29.6318 35.7016 29.3333 35.3334 29.3333Z" fill="#320049"/>
<path d="M21.9998 30.6666H30.6665C31.0347 30.6666 31.3331 30.3682 31.3331 30C31.3331 29.6318 31.0347 29.3333 30.6665 29.3333H21.9998C21.6316 29.3333 21.3331 29.6318 21.3331 30C21.3331 30.3682 21.6316 30.6666 21.9998 30.6666Z" fill="#320049"/>
</g>
<defs>
<clipPath id="clip0">
<rect width="40" height="40" fill="white"/>
</clipPath>
</defs>
</svg>
