<svg width="40" height="40" viewBox="0 0 40 40" fill="none" xmlns="http://www.w3.org/2000/svg">
<path fill-rule="evenodd" clip-rule="evenodd" d="M15.7316 26.2133C16.085 26.2131 16.4372 26.1722 16.7812 26.0914C17.4314 25.9405 18.0404 25.6485 18.5651 25.236L18.0807 27.7981C18.0634 27.8896 18.0737 27.9843 18.1104 28.0699C18.1472 28.1556 18.2086 28.2284 18.2869 28.2789C18.3651 28.3295 18.4567 28.3556 18.5499 28.3539C18.6431 28.3522 18.7336 28.3227 18.81 28.2693C19.6111 27.7069 20.5984 27.4758 21.5659 27.6242C21.6569 27.6381 21.7501 27.6247 21.8336 27.5859C21.9172 27.5471 21.9875 27.4845 22.0357 27.406C22.0839 27.3275 22.1078 27.2365 22.1046 27.1444C22.1014 27.0523 22.0711 26.9633 22.0176 26.8883L20.504 24.7697C21.5522 24.9709 22.6378 24.7987 23.5724 24.283C24.5069 23.7672 25.2314 22.9406 25.62 21.9464C26.0086 20.9523 26.0369 19.8535 25.6998 18.8407C25.3628 17.8279 24.6818 16.9651 23.775 16.402L16.8094 12.0796C16.7569 12.0471 16.6985 12.0252 16.6376 12.0153C16.5767 12.0053 16.5144 12.0075 16.4543 12.0217C16.3942 12.0359 16.3376 12.0619 16.2875 12.098C16.2375 12.1342 16.1951 12.1799 16.1628 12.2325L11.8594 19.2353C11.431 19.9266 11.1948 20.7197 11.1752 21.5328C11.1555 22.3458 11.3532 23.1494 11.7479 23.8606C12.1425 24.5717 12.7197 25.1647 13.42 25.5782C14.1203 25.9918 14.9183 26.2111 15.7316 26.2133ZM19.1855 27.0004L19.5538 25.0527L20.6963 26.652C20.1769 26.6839 19.6664 26.8016 19.1855 27.0004ZM12.2055 22.4713C12.0955 22.007 12.0787 21.5254 12.1562 21.0545C12.2338 20.5836 12.404 20.1327 12.6571 19.7281L16.7151 13.1245L23.2803 17.1986C24.0931 17.7041 24.6734 18.5102 24.8948 19.4414C25.1162 20.3726 24.9608 21.3536 24.4624 22.1708C23.9641 22.988 23.1631 23.5753 22.2339 23.8048C21.3046 24.0343 20.3223 23.8875 19.5008 23.3963C19.4019 23.3369 19.2846 23.3161 19.1713 23.3379L19.1343 23.3449C19.0707 23.3571 19.0103 23.3824 18.9569 23.4191C18.9035 23.4558 18.8584 23.5032 18.8242 23.5582C18.4456 24.1682 17.8946 24.6522 17.2409 24.949C16.5872 25.2458 15.8602 25.3422 15.1518 25.2258C14.4434 25.1095 13.7853 24.7857 13.2609 24.2954C12.7365 23.8051 12.3692 23.1704 12.2055 22.4713Z" fill="#320049"/>
<path fill-rule="evenodd" clip-rule="evenodd" d="M35.8739 3.69115C36.277 3.85559 36.6433 4.09867 36.9515 4.40619C37.2617 4.71143 37.5084 5.07519 37.6771 5.4764C37.8458 5.87761 37.9332 6.3083 37.9344 6.74353L38.0876 35.3193C38.0913 36.1977 37.7464 37.0417 37.1287 37.6661C36.5109 38.2905 35.6707 38.6444 34.7923 38.6501L15.4355 38.7538L12.0975 39.5351C11.8866 39.5846 11.6707 39.6097 11.4541 39.6099C10.8233 39.6081 10.2117 39.3936 9.71794 39.0012C9.22422 38.6087 8.87729 38.0612 8.73327 37.4471L1.98616 8.62377C1.81778 7.90081 1.94304 7.14058 2.33448 6.50987C2.72592 5.87916 3.35155 5.42947 4.07413 5.25947L24.5568 0.464783C25.2798 0.29558 26.0404 0.420508 26.6714 0.812087C27.3023 1.20367 27.7518 1.82982 27.9211 2.55283L28.1388 3.48299L34.6037 3.44838C35.039 3.44417 35.4708 3.5267 35.8739 3.69115ZM11.1576 38.6467C11.3989 38.6864 11.6457 38.678 11.8838 38.6223L15.2107 37.8437C15.2432 37.8322 15.2768 37.8243 15.311 37.8203L32.3669 33.8276C32.8477 33.7149 33.2641 33.4159 33.5245 32.9963C33.7848 32.5767 33.8679 32.0708 33.7553 31.59L27.0083 2.76666C26.9125 2.35819 26.6817 1.99398 26.3533 1.73292C26.0249 1.47186 25.618 1.32922 25.1984 1.32806C25.0543 1.32809 24.9107 1.34471 24.7704 1.3776L4.2878 6.17228C3.80718 6.28535 3.39103 6.58445 3.13065 7.00396C2.87027 7.42347 2.78692 7.92914 2.8989 8.41002L9.64609 37.2334C9.70179 37.4715 9.80387 37.6964 9.94648 37.895C10.0891 38.0937 10.2695 38.2624 10.4773 38.3914C10.6851 38.5203 10.9162 38.6071 11.1576 38.6467ZM19.5344 37.7942L34.7873 37.7125C35.4171 37.7084 36.0195 37.4547 36.4625 37.0069C36.9054 36.5592 37.1527 35.954 37.15 35.3242L36.9968 6.74861C36.9936 6.12084 36.7419 5.51987 36.2969 5.07711C35.8518 4.63434 35.2496 4.38579 34.6218 4.3858H34.6087L28.358 4.41931L34.668 31.3762C34.7519 31.7342 34.7644 32.1052 34.7048 32.468C34.6453 32.8308 34.5148 33.1784 34.3209 33.4908C34.1271 33.8032 33.8735 34.0744 33.5748 34.2888C33.2762 34.5032 32.9382 34.6567 32.5802 34.7405L19.5344 37.7942Z" fill="#320049"/>
<path fill-rule="evenodd" clip-rule="evenodd" d="M15.7316 26.2133C16.085 26.2131 16.4372 26.1722 16.7812 26.0914C17.4314 25.9405 18.0404 25.6485 18.5651 25.236L18.0807 27.7981C18.0634 27.8896 18.0737 27.9843 18.1104 28.0699C18.1472 28.1556 18.2086 28.2284 18.2869 28.2789C18.3651 28.3295 18.4567 28.3556 18.5499 28.3539C18.6431 28.3522 18.7336 28.3227 18.81 28.2693C19.6111 27.7069 20.5984 27.4758 21.5659 27.6242C21.6569 27.6381 21.7501 27.6247 21.8336 27.5859C21.9172 27.5471 21.9875 27.4845 22.0357 27.406C22.0839 27.3275 22.1078 27.2365 22.1046 27.1444C22.1014 27.0523 22.0711 26.9633 22.0176 26.8883L20.504 24.7697C21.5522 24.9709 22.6378 24.7987 23.5724 24.283C24.5069 23.7672 25.2314 22.9406 25.62 21.9464C26.0086 20.9523 26.0369 19.8535 25.6998 18.8407C25.3628 17.8279 24.6818 16.9651 23.775 16.402L16.8094 12.0796C16.7569 12.0471 16.6985 12.0252 16.6376 12.0153C16.5767 12.0053 16.5144 12.0075 16.4543 12.0217C16.3942 12.0359 16.3376 12.0619 16.2875 12.098C16.2375 12.1342 16.1951 12.1799 16.1628 12.2325L11.8594 19.2353C11.431 19.9266 11.1948 20.7197 11.1752 21.5328C11.1555 22.3458 11.3532 23.1494 11.7479 23.8606C12.1425 24.5717 12.7197 25.1647 13.42 25.5782C14.1203 25.9918 14.9183 26.2111 15.7316 26.2133ZM19.1855 27.0004L19.5538 25.0527L20.6963 26.652C20.1769 26.6839 19.6664 26.8016 19.1855 27.0004ZM12.2055 22.4713C12.0955 22.007 12.0787 21.5254 12.1562 21.0545C12.2338 20.5836 12.404 20.1327 12.6571 19.7281L16.7151 13.1245L23.2803 17.1986C24.0931 17.7041 24.6734 18.5102 24.8948 19.4414C25.1162 20.3726 24.9608 21.3536 24.4624 22.1708C23.9641 22.988 23.1631 23.5753 22.2339 23.8048C21.3046 24.0343 20.3223 23.8875 19.5008 23.3963C19.4019 23.3369 19.2846 23.3161 19.1713 23.3379L19.1343 23.3449C19.0707 23.3571 19.0103 23.3824 18.9569 23.4191C18.9035 23.4558 18.8584 23.5032 18.8242 23.5582C18.4456 24.1682 17.8946 24.6522 17.2409 24.949C16.5872 25.2458 15.8602 25.3422 15.1518 25.2258C14.4434 25.1095 13.7853 24.7857 13.2609 24.2954C12.7365 23.8051 12.3692 23.1704 12.2055 22.4713Z" stroke="#320049" stroke-width="0.5"/>
<path fill-rule="evenodd" clip-rule="evenodd" d="M35.8739 3.69115C36.277 3.85559 36.6433 4.09867 36.9515 4.40619C37.2617 4.71143 37.5084 5.07519 37.6771 5.4764C37.8458 5.87761 37.9332 6.3083 37.9344 6.74353L38.0876 35.3193C38.0913 36.1977 37.7464 37.0417 37.1287 37.6661C36.5109 38.2905 35.6707 38.6444 34.7923 38.6501L15.4355 38.7538L12.0975 39.5351C11.8866 39.5846 11.6707 39.6097 11.4541 39.6099C10.8233 39.6081 10.2117 39.3936 9.71794 39.0012C9.22422 38.6087 8.87729 38.0612 8.73327 37.4471L1.98616 8.62377C1.81778 7.90081 1.94304 7.14058 2.33448 6.50987C2.72592 5.87916 3.35155 5.42947 4.07413 5.25947L24.5568 0.464783C25.2798 0.29558 26.0404 0.420508 26.6714 0.812087C27.3023 1.20367 27.7518 1.82982 27.9211 2.55283L28.1388 3.48299L34.6037 3.44838C35.039 3.44417 35.4708 3.5267 35.8739 3.69115ZM11.1576 38.6467C11.3989 38.6864 11.6457 38.678 11.8838 38.6223L15.2107 37.8437C15.2432 37.8322 15.2768 37.8243 15.311 37.8203L32.3669 33.8276C32.8477 33.7149 33.2641 33.4159 33.5245 32.9963C33.7848 32.5767 33.8679 32.0708 33.7553 31.59L27.0083 2.76666C26.9125 2.35819 26.6817 1.99398 26.3533 1.73292C26.0249 1.47186 25.618 1.32922 25.1984 1.32806C25.0543 1.32809 24.9107 1.34471 24.7704 1.3776L4.2878 6.17228C3.80718 6.28535 3.39103 6.58445 3.13065 7.00396C2.87027 7.42347 2.78692 7.92914 2.8989 8.41002L9.64609 37.2334C9.70179 37.4715 9.80387 37.6964 9.94648 37.895C10.0891 38.0937 10.2695 38.2624 10.4773 38.3914C10.6851 38.5203 10.9162 38.6071 11.1576 38.6467ZM19.5344 37.7942L34.7873 37.7125C35.4171 37.7084 36.0195 37.4547 36.4625 37.0069C36.9054 36.5592 37.1527 35.954 37.15 35.3242L36.9968 6.74861C36.9936 6.12084 36.7419 5.51987 36.2969 5.07711C35.8518 4.63434 35.2496 4.38579 34.6218 4.3858H34.6087L28.358 4.41931L34.668 31.3762C34.7519 31.7342 34.7644 32.1052 34.7048 32.468C34.6453 32.8308 34.5148 33.1784 34.3209 33.4908C34.1271 33.8032 33.8735 34.0744 33.5748 34.2888C33.2762 34.5032 32.9382 34.6567 32.5802 34.7405L19.5344 37.7942Z" stroke="#320049" stroke-width="0.5"/>
</svg>
