<svg width="40" height="40" viewBox="0 0 40 40" fill="none" xmlns="http://www.w3.org/2000/svg">
<path d="M22.3448 18.125C21.9136 18.125 21.5636 18.475 21.5636 18.9062C21.5636 19.3375 21.9136 19.6875 22.3448 19.6875C22.7761 19.6875 23.1261 19.3375 23.1261 18.9062C23.1261 18.475 22.7761 18.125 22.3448 18.125Z" fill="#320049"/>
<path d="M19.2198 13.4375C18.7885 13.4375 18.4385 13.7875 18.4385 14.2188C18.4385 14.65 18.7885 15 19.2198 15C19.651 15 20.0011 14.65 20.0011 14.2188C20.0011 13.7875 19.651 13.4375 19.2198 13.4375Z" fill="#320049"/>
<path d="M16.876 33.3594C16.4448 33.3594 16.0948 33.7094 16.0948 34.1406C16.0948 34.5719 16.4448 34.9219 16.876 34.9219C17.3073 34.9219 17.6573 34.5719 17.6573 34.1406C17.6573 33.7094 17.3073 33.3594 16.876 33.3594Z" fill="#320049"/>
<path d="M34.0483 25.3077C34.0743 25.1768 34.066 25.0437 34.0268 24.9202C33.8246 22.0889 32.7858 19.4209 31.0157 17.1938C29.3573 15.1072 27.1789 13.5535 24.6889 12.675V4.55367C25.5983 4.23125 26.2514 3.36234 26.2514 2.34375C26.2514 1.05141 25.2 0 23.9076 0H16.0951C14.8028 0 13.7514 1.05141 13.7514 2.34375C13.7514 3.36234 14.4044 4.23117 15.3139 4.55367V12.6751C12.8196 13.5549 10.6386 15.1118 8.97933 17.2031C7.21519 19.4266 6.1798 22.088 5.97699 24.9089C5.93207 25.043 5.92519 25.1827 5.95261 25.3147C5.94347 25.5163 5.93878 25.725 5.93878 25.9376C5.93878 33.6916 12.2472 40 20.0013 40C27.7553 40 34.0638 33.6916 34.0638 25.9375C34.0638 25.727 34.0576 25.5165 34.0483 25.3077ZM16.3245 13.9866C16.6525 13.8859 16.8763 13.583 16.8763 13.2398V4.6875H17.6575C18.0889 4.6875 18.4388 4.33773 18.4388 3.90625C18.4388 3.47477 18.0889 3.125 17.6575 3.125H16.095C15.6643 3.125 15.3138 2.77453 15.3138 2.34375C15.3138 1.91297 15.6643 1.5625 16.095 1.5625H23.9075C24.3383 1.5625 24.6888 1.91297 24.6888 2.34375C24.6888 2.77453 24.3383 3.125 23.9075 3.125H22.345C21.9136 3.125 21.5638 3.47477 21.5638 3.90625C21.5638 4.33773 21.9136 4.6875 22.345 4.6875H23.1263V13.2398C23.1263 13.583 23.3501 13.8859 23.6781 13.9866C28.2061 15.378 31.5478 19.2524 32.327 23.8568C28.2072 22.182 23.6571 22.384 19.6421 24.4625C17.6619 25.4879 15.5486 26.0078 13.3607 26.0078C11.3518 26.0078 9.40535 25.5681 7.56285 24.7002C8.05394 19.7297 11.5197 15.463 16.3245 13.9866ZM20.0013 38.4375C13.2586 38.4375 7.74668 33.0709 7.51019 26.3849C9.37168 27.1622 11.3713 27.5703 13.3607 27.5703C15.7667 27.5703 18.1871 26.9755 20.3605 25.85C24.2099 23.8573 28.6078 23.7869 32.4969 25.639C32.4993 25.7384 32.5013 25.838 32.5013 25.9375C32.5013 32.83 26.8939 38.4375 20.0013 38.4375Z" fill="#320049"/>
<path d="M28.2231 28.5604C27.8254 28.3921 27.3673 28.5777 27.1989 28.975C25.97 31.8757 23.1447 33.7501 20.001 33.7501C19.5696 33.7501 19.2198 34.0998 19.2198 34.5313C19.2198 34.9628 19.5696 35.3125 20.001 35.3125C23.7734 35.3125 27.1635 33.0641 28.6376 29.5845C28.8059 29.1872 28.6203 28.7287 28.2231 28.5604Z" fill="#320049"/>
<path d="M16.0948 18.125C14.8024 18.125 13.751 19.1764 13.751 20.4688C13.751 21.7611 14.8024 22.8125 16.0948 22.8125C17.3871 22.8125 18.4385 21.7611 18.4385 20.4688C18.4385 19.1764 17.3871 18.125 16.0948 18.125ZM16.0948 21.25C15.664 21.25 15.3135 20.8995 15.3135 20.4688C15.3135 20.038 15.664 19.6875 16.0948 19.6875C16.5256 19.6875 16.876 20.038 16.876 20.4688C16.876 20.8995 16.5256 21.25 16.0948 21.25Z" fill="#320049"/>
</svg>
