<svg width="40" height="40" viewBox="0 0 40 40" fill="none" xmlns="http://www.w3.org/2000/svg">
<path d="M29.9758 16.701C31.0543 15.6225 31.0543 13.8675 29.9758 12.7889C29.4532 12.2665 28.7586 11.9787 28.0198 11.9787C27.281 11.9787 26.5861 12.2665 26.0637 12.789L2.9516 35.9009C2.83194 36.0206 2.7647 36.183 2.7647 36.3523C2.7647 36.5215 2.83194 36.6839 2.9516 36.8036L5.96096 39.8129C6.08564 39.9375 6.24904 39.9999 6.41236 39.9999C6.57568 39.9999 6.73909 39.9376 6.86377 39.8129L29.9758 16.701ZM26.9664 13.6917C27.2478 13.4103 27.6218 13.2553 28.0198 13.2553C28.4176 13.2553 28.7917 13.4103 29.073 13.6916C29.6539 14.2724 29.6539 15.2174 29.073 15.7983L26.1291 18.7422L24.0225 16.6356L26.9664 13.6917ZM6.41236 38.4591L4.30564 36.3523L23.1197 17.5384L25.2263 19.645L6.41236 38.4591Z" fill="#320049"/>
<path d="M33.5301 4.02383C33.4046 3.86774 33.2136 3.77906 33.0129 3.78562C32.8127 3.79183 32.627 3.89157 32.5113 4.05515C32.3005 4.35328 31.9247 4.88485 31.5879 5.36102C31.0226 3.94536 29.9791 1.74043 28.4776 0.193702C28.3574 0.0698723 28.1922 0 28.0197 0C27.8472 0 27.6819 0.0698723 27.5616 0.193702C26.0605 1.74 25.0168 3.94553 24.4514 5.36111C24.1146 4.88485 23.7387 4.35336 23.5279 4.05515C23.4123 3.89157 23.2266 3.79183 23.0263 3.78562C22.8239 3.78026 22.6345 3.86774 22.5091 4.02383C22.3594 4.21013 18.8422 8.64349 18.804 13.573C18.7963 14.5626 18.9346 15.5466 19.215 16.4978C19.3147 16.8359 19.6695 17.0291 20.0077 16.9295C20.3459 16.8299 20.5391 16.475 20.4395 16.1369C20.1946 15.3061 20.0738 14.4469 20.0805 13.583C20.1069 10.1758 22.0547 6.90792 23.0004 5.52051L24.0409 6.99149C24.2878 7.34009 24.574 7.44553 24.891 7.30443C25.0477 7.23481 25.1698 7.10502 25.2297 6.94434C25.2326 6.93668 25.24 6.91532 25.2515 6.88111C25.5213 6.07294 26.467 3.47251 28.0195 1.5954C29.5726 3.47311 30.518 6.07345 30.7877 6.88162C30.799 6.91532 30.8063 6.93634 30.8091 6.94392C30.8689 7.10477 30.9912 7.23472 31.148 7.30443C31.4653 7.44553 31.7512 7.34009 31.9981 6.99149L33.0391 5.51975C33.9849 6.90494 35.9319 10.1677 35.9584 13.583C35.976 15.8531 35.1236 18.0243 33.6198 19.5398C32.189 20.9817 30.2525 21.7438 28.0194 21.7438C27.7156 21.7438 27.4097 21.7292 27.1105 21.7003C26.759 21.6669 26.4476 21.9233 26.4137 22.2742C26.3798 22.6251 26.6367 22.9371 26.9876 22.971C27.3275 23.0038 27.6746 23.0205 28.0193 23.0205C30.6002 23.0205 32.8501 22.1279 34.5259 20.4391C36.2678 18.6837 37.2551 16.1811 37.2349 13.5731C37.197 8.64349 33.6798 4.21013 33.5301 4.02383Z" fill="#320049"/>
</svg>
