<svg width="40" height="40" viewBox="0 0 40 40" fill="none" xmlns="http://www.w3.org/2000/svg">
<path d="M35.0921 15.5808C34.9554 15.717 34.8776 15.9058 34.8776 16.0986C34.8776 16.2913 34.9554 16.4801 35.0921 16.6163C35.2283 16.7527 35.4166 16.831 35.61 16.831C35.8025 16.831 35.9907 16.7527 36.1277 16.6163C36.2639 16.4801 36.3415 16.2913 36.3415 16.0986C36.3415 15.9052 36.2639 15.717 36.1277 15.5808C35.9907 15.4447 35.8025 15.3661 35.61 15.3661C35.4166 15.3661 35.2283 15.4447 35.0921 15.5808Z" fill="#320049"/>
<path d="M35.006 27.899C36.0968 26.9846 36.7919 25.6131 36.7919 24.0819C36.7919 21.3358 34.5576 19.1015 31.8115 19.1015H29.3835V11.8432L34.8769 9.55414V13.1689C34.8769 13.5735 35.2051 13.9013 35.6093 13.9013C36.014 13.9013 36.3417 13.5735 36.3417 13.1689V8.45551C36.3417 8.15957 36.1641 7.89292 35.8913 7.7794L20.3104 1.28695C20.13 1.21164 19.9273 1.21164 19.7471 1.28695L4.16625 7.7794C3.8932 7.89292 3.71559 8.15957 3.71559 8.45551C3.71559 8.751 3.8932 9.01764 4.16625 9.1314L10.6738 11.8432V19.1015H3.97949C3.57482 19.1015 3.24707 19.4295 3.24707 19.8339V27.5975H2.00195C1.59729 27.5975 1.26953 27.9255 1.26953 28.33V37.9979C1.26953 38.4026 1.59729 38.7303 2.00195 38.7303H33.2031C36.2724 38.7303 38.7695 36.2332 38.7695 33.1639C38.7695 30.7257 37.1929 28.6499 35.006 27.899ZM35.3271 24.0819C35.3271 26.0206 33.7501 27.5975 31.8115 27.5975H25.1549C26.0544 26.6962 26.6113 25.4527 26.6113 24.0819C26.6113 23.1133 26.3359 22.1891 25.8246 21.3949L28.7529 20.5663H31.8115C33.7501 20.5663 35.3271 22.1433 35.3271 24.0819ZM20.0289 2.75636L31.9476 7.72309H20.0289C19.6242 7.72309 19.2965 8.05085 19.2965 8.45551C19.2965 8.85994 19.6242 9.18793 20.0289 9.18793H31.9476L20.0289 14.1547L6.35207 8.45551L20.0289 2.75636ZM19.7471 15.6241C19.8371 15.6614 19.933 15.6804 20.0289 15.6804C20.1243 15.6804 20.2202 15.6614 20.3104 15.6241L27.9186 12.4534V19.28L20.109 21.4903L12.1387 19.2773V12.4534L19.7471 15.6241ZM4.71191 24.8144H14.7461C15.1505 24.8144 15.4785 24.4866 15.4785 24.0819C15.4785 23.6775 15.1505 23.3495 14.7461 23.3495H4.71191V20.5663H11.3064L19.9149 22.9567C19.979 22.9746 20.0449 22.9833 20.111 22.9833C20.1779 22.9833 20.2452 22.9741 20.3104 22.9556L24.3225 21.8204C24.8558 22.4528 25.1464 23.2438 25.1464 24.0819C25.1464 26.0203 23.5694 27.5975 21.6308 27.5975H4.71191V24.8144ZM2.73437 37.2655V35.5077H18.8476C19.2521 35.5077 19.58 35.1799 19.58 34.7753C19.58 34.3708 19.2521 34.0429 18.8476 34.0429H2.73437V32.285H11.5967C12.0011 32.285 12.3291 31.9573 12.3291 31.5526C12.3291 31.1482 12.0011 30.8202 11.5967 30.8202H2.73437V29.0624H19.1406C21.4022 29.0624 23.2421 30.9024 23.2421 33.1639C23.2421 35.4258 21.4022 37.2655 19.1406 37.2655H2.73437ZM33.2031 37.2655H22.8991C24.0094 36.2474 24.707 34.7856 24.707 33.1639C24.707 31.5423 24.0094 30.0807 22.8991 29.0624H33.2031C35.4646 29.0624 37.3046 30.9024 37.3046 33.1639C37.3046 35.4258 35.4646 37.2655 33.2031 37.2655Z" fill="#320049"/>
<path d="M15.015 30.8202C14.8211 30.8202 14.6332 30.8987 14.497 31.0349C14.3599 31.1711 14.2826 31.3601 14.2826 31.5526C14.2826 31.7453 14.3599 31.9344 14.497 32.0706C14.6332 32.2068 14.822 32.285 15.015 32.285C15.2075 32.285 15.3963 32.2068 15.5325 32.0706C15.6687 31.9344 15.7474 31.7453 15.7474 31.5526C15.7474 31.3601 15.6689 31.1711 15.5325 31.0349C15.3963 30.8987 15.2075 30.8202 15.015 30.8202Z" fill="#320049"/>
</svg>
