<svg width="40" height="40" viewBox="0 0 40 40" fill="none" xmlns="http://www.w3.org/2000/svg">
<g clip-path="url(#clip0)">
<path d="M10.4362 32.3819L9.20494 32.5993C8.88705 32.6555 8.58382 32.4436 8.52763 32.1257L8.31021 30.8935C8.27326 30.6547 8.11019 30.4541 7.8833 30.3698C7.65672 30.2855 7.40235 30.3307 7.21821 30.4874C7.03407 30.6443 6.94948 30.8886 6.99682 31.1256L7.21363 32.3577C7.3767 33.2732 8.17218 33.9408 9.10203 33.9429C9.21379 33.9426 9.32556 33.9328 9.43549 33.9136L10.6677 33.6959C10.9025 33.6546 11.0973 33.491 11.1788 33.2668C11.2601 33.043 11.2161 32.7923 11.0628 32.61C10.9095 32.4274 10.6704 32.3403 10.4356 32.3819H10.4362Z" fill="#320049"/>
<path d="M23.3123 29.5166L23.0955 28.2844C23.054 28.0499 22.8906 27.8551 22.6665 27.7736C22.4423 27.692 22.1919 27.7363 22.0093 27.8896C21.8267 28.0429 21.74 28.282 21.7815 28.5168L21.9983 29.7481C22.0252 29.9008 21.9907 30.0577 21.9021 30.1844C21.8133 30.3115 21.6777 30.3979 21.5253 30.4245L20.2931 30.6428C19.9539 30.7042 19.7175 31.0138 19.7475 31.3571C19.7774 31.7006 20.0638 31.9644 20.4086 31.9663C20.4477 31.9666 20.4868 31.9632 20.5252 31.9562L21.7568 31.7388C22.2579 31.6505 22.7031 31.3668 22.995 30.95C23.2867 30.5335 23.4009 30.0177 23.3123 29.5166Z" fill="#320049"/>
<path d="M15.6362 4.23486L16.8681 4.01744C17.0208 3.98965 17.178 4.02446 17.3045 4.11393C17.4315 4.2028 17.5179 4.33838 17.5448 4.49106L17.7622 5.72292C17.8184 6.04142 18.0948 6.2735 18.4178 6.27411C18.4569 6.27411 18.496 6.27075 18.5345 6.26403C18.7089 6.23319 18.864 6.13456 18.9654 5.98951C19.0668 5.84446 19.1064 5.66521 19.0756 5.49084L18.8588 4.2596C18.6728 3.21707 17.6792 2.52174 16.636 2.70374L15.4039 2.92055C15.1693 2.96208 14.9745 3.12576 14.893 3.3496C14.8114 3.57374 14.8557 3.82414 15.009 4.00675C15.1623 4.18936 15.4014 4.27639 15.6362 4.23486Z" fill="#320049"/>
<path d="M4.54368 6.19192L5.77584 5.97725C6.13862 5.91312 6.38108 5.56683 6.31695 5.20406C6.25282 4.84097 5.90654 4.59881 5.54376 4.66294L4.31221 4.88036C3.26968 5.06572 2.57375 6.06 2.75666 7.10314L2.97347 8.3353C3.02966 8.6538 3.30632 8.88619 3.62971 8.88619C3.6691 8.88619 3.70788 8.88283 3.74667 8.87642C3.92073 8.84557 4.07585 8.74694 4.17724 8.60189C4.27862 8.45684 4.31832 8.27759 4.28747 8.10322L4.07005 6.87106C4.04318 6.71868 4.07799 6.56142 4.16685 6.43469C4.25571 6.30796 4.3913 6.22154 4.54368 6.19467V6.19192Z" fill="#320049"/>
<path d="M14.5979 23.7351C14.7741 23.2053 14.7887 22.6348 14.64 22.0968C14.9405 21.9746 15.2263 21.8195 15.4926 21.6345C15.7378 21.8503 15.9 22.145 15.951 22.4675C16.2957 23.9113 17.243 24.3709 17.7481 24.4148C17.7679 24.4158 17.7878 24.4158 17.8073 24.4148C18.1557 24.4161 18.4486 24.1534 18.4852 23.8072C18.5039 23.6328 18.4516 23.4584 18.3402 23.3228C18.229 23.1876 18.0681 23.1024 17.8934 23.0868C17.8754 23.0828 17.4485 22.9918 17.2485 22.1527C17.1355 21.6042 16.8619 21.1016 16.4625 20.7092C16.5092 20.6499 16.558 20.5931 16.6014 20.5302C16.7425 20.3266 16.8665 20.1113 16.9715 19.8865C17.2925 19.95 17.581 20.1244 17.7869 20.3791C18.255 20.9339 18.9347 21.2674 19.6606 21.2976C19.8863 21.3004 20.1098 21.2549 20.3162 21.1642C20.6524 21.0072 20.8008 20.6102 20.65 20.2716C20.5788 20.111 20.4466 19.9858 20.2823 19.9241C20.118 19.8624 19.9357 19.8691 19.7766 19.9433C19.7608 19.95 19.3436 20.0835 18.7527 19.459C18.3808 19.0413 17.8931 18.7432 17.3517 18.6031C17.3969 18.2821 17.4064 17.9569 17.3798 17.6338C17.6888 17.53 18.0241 17.537 18.3283 17.654C19.754 18.0769 20.6231 17.4863 20.9132 17.0707C21.1276 16.7675 21.0586 16.3485 20.7587 16.1296C20.6167 16.0264 20.4396 15.9845 20.2667 16.0132C20.0936 16.0419 19.9394 16.1387 19.8386 16.2823C19.8261 16.2957 19.5333 16.62 18.7094 16.3751C18.1793 16.1992 17.6088 16.1842 17.0702 16.3323C16.948 16.0328 16.7926 15.7479 16.6072 15.4825C16.8228 15.2358 17.1181 15.0727 17.4418 15.0223C18.8853 14.6772 19.3451 13.73 19.3891 13.2252C19.4224 12.8554 19.1531 12.5271 18.7839 12.4881C18.6098 12.47 18.4358 12.5226 18.3005 12.6337C18.1652 12.7449 18.08 12.9055 18.0635 13.0796C18.0635 13.0976 17.9689 13.5248 17.1297 13.7248C16.5803 13.8375 16.0774 14.1117 15.6847 14.512C15.43 14.3132 15.1543 14.1428 14.8629 14.0036C14.9262 13.6817 15.1005 13.3926 15.3558 13.1864C16.4332 12.1665 16.3565 11.1185 16.1437 10.6568C15.9867 10.3212 15.5897 10.1728 15.2511 10.3233C15.0908 10.3944 14.9656 10.5267 14.9039 10.691C14.8422 10.8552 14.8489 11.0372 14.9228 11.1963C14.9289 11.2131 15.0636 11.6287 14.4385 12.2206C14.0207 12.5922 13.7224 13.0799 13.5819 13.6213C13.2613 13.5764 12.9364 13.5672 12.6133 13.5935C12.5128 13.2848 12.5223 12.9504 12.6408 12.6481C13.0637 11.2251 12.4734 10.3538 12.0578 10.0631C11.7543 9.84967 11.3356 9.91838 11.1164 10.2179C11.0132 10.3596 10.9713 10.5368 11 10.7099C11.0287 10.8827 11.1259 11.0369 11.2694 11.1377C11.2834 11.1499 11.6074 11.4428 11.3619 12.2673C11.186 12.7974 11.1714 13.3675 11.3195 13.9062C11.019 14.028 10.7335 14.1829 10.4675 14.3679C10.2223 14.152 10.0601 13.8573 10.0091 13.5346C9.66436 12.0911 8.7171 11.6315 8.21203 11.5875C7.84222 11.5539 7.51426 11.8233 7.47487 12.1925C7.45624 12.3668 7.50846 12.5412 7.61961 12.6768C7.73107 12.8121 7.892 12.8972 8.06667 12.9128C8.08469 12.9128 8.51159 13.0075 8.71161 13.8469C8.8252 14.3942 9.09943 14.8953 9.49885 15.2865C9.45213 15.3463 9.40357 15.4031 9.36021 15.466C9.21882 15.6697 9.09485 15.885 8.9898 16.1097C8.66886 16.0456 8.38059 15.8715 8.17477 15.6172C7.15545 14.5407 6.10682 14.6168 5.6451 14.8293C5.30919 14.9863 5.16078 15.3833 5.31164 15.7219C5.38248 15.8825 5.51501 16.0074 5.6793 16.0694C5.84359 16.1311 6.02559 16.1241 6.18468 16.0502C6.20148 16.0441 6.6177 15.9109 7.20858 16.5345C7.58052 16.9528 8.0682 17.2515 8.60961 17.3932C8.56534 17.7135 8.55618 18.0378 8.58213 18.3603C8.2734 18.4641 7.9378 18.4568 7.63366 18.3395C6.21064 17.9154 5.33942 18.5066 5.04871 18.9222C4.90275 19.1255 4.88229 19.3934 4.99527 19.6169C5.10796 19.8404 5.33607 19.9827 5.58647 19.9861C5.79778 19.9864 5.99566 19.8829 6.11598 19.7091C6.1288 19.696 6.42073 19.3717 7.24553 19.6166C7.77565 19.7925 8.34608 19.8071 8.88445 19.6584C9.00598 19.9589 9.1608 20.2447 9.34616 20.5104C9.13057 20.7562 8.83589 20.9187 8.51281 20.9694C7.06995 21.3141 6.61037 22.2608 6.56578 22.7658C6.53189 23.1356 6.80092 23.4639 7.17011 23.5036H7.2321C7.5735 23.5088 7.86116 23.2495 7.89108 22.9094C7.89444 22.8914 7.98575 22.4641 8.8252 22.2641C9.37334 22.1514 9.87567 21.8778 10.2681 21.4784C10.3279 21.5251 10.3847 21.5737 10.4473 21.617C10.6513 21.7584 10.8666 21.8824 11.091 21.9881C11.0278 22.3087 10.8535 22.5973 10.5988 22.8025C9.52083 23.8224 9.59809 24.8704 9.81093 25.3322C9.92392 25.5728 10.1655 25.727 10.4314 25.7282C10.5255 25.7282 10.6183 25.7078 10.7035 25.6684C10.8638 25.5972 10.9887 25.4647 11.0507 25.3004C11.1124 25.1364 11.1054 24.9541 11.0318 24.795C11.0257 24.7776 10.891 24.362 11.5161 23.7711C11.9342 23.3992 12.2322 22.9118 12.3727 22.3701C12.5715 22.3994 12.7721 22.4147 12.973 22.4162C13.093 22.4162 13.2146 22.3942 13.3358 22.3841C13.447 22.6968 13.4418 23.0391 13.3211 23.3482C12.8982 24.7712 13.4888 25.6424 13.9044 25.9331C14.0198 26.0137 14.1575 26.0568 14.2986 26.0565C14.5151 26.0586 14.7191 25.9548 14.8449 25.7783C14.9481 25.6366 14.9903 25.4592 14.9616 25.2864C14.9332 25.1132 14.8361 24.9587 14.6929 24.8579C14.6767 24.8518 14.3527 24.5596 14.5979 23.7351V23.7351ZM9.94499 18.5505C9.94499 18.5377 9.94499 18.5264 9.93919 18.5139C9.7065 17.1437 10.4189 15.7876 11.6789 15.2013C12.9388 14.6153 14.4351 14.9444 15.3332 16.005C15.3393 16.0135 15.3445 16.0221 15.3512 16.0309C15.6932 16.438 15.9232 16.9272 16.0182 17.4503C16.0182 17.4625 16.0182 17.4744 16.0237 17.4863C16.3034 19.1521 15.1931 20.7336 13.5312 21.0359L13.498 21.0414C11.8316 21.3233 10.2482 20.2133 9.94499 18.5505V18.5505Z" fill="#320049"/>
<path d="M37.3261 6.45551L23.153 3.80797C22.5471 3.69223 21.9208 3.74842 21.3452 3.96981L21.1312 2.75598C20.9772 1.88476 20.4838 1.11034 19.7591 0.602822C19.0342 0.0956049 18.1376 -0.102885 17.2667 0.0507158L2.80874 2.60237C1.93752 2.75628 1.16311 3.24976 0.655893 3.9744C0.148676 4.69903 -0.050119 5.5956 0.103787 6.46681L4.93807 33.8614C5.21993 35.4524 6.59989 36.6134 8.21559 36.6186C8.41225 36.6183 8.60891 36.6009 8.80251 36.5664L14.5535 35.5519C15.022 36.461 15.8834 37.1032 16.8884 37.2928L31.07 39.9413C31.2761 39.9804 31.4853 39.9999 31.6951 39.9999C33.297 39.995 34.6681 38.8493 34.9576 37.2736L39.9944 10.3514C40.1577 9.4808 39.9684 8.58118 39.4679 7.85044C38.9674 7.11969 38.1967 6.61797 37.3261 6.45612V6.45551ZM25.5999 28.0805L25.3645 26.7463C26.9203 26.0025 28.0771 24.6204 28.5354 22.9579C28.9941 21.2955 28.7092 19.5158 27.7546 18.0797C27.1136 17.1126 26.1932 16.3644 25.1162 15.9342C25.7758 15.8261 26.4494 15.8331 27.1069 15.9549C30.2183 16.6194 32.3052 19.5525 31.9128 22.7097C31.5204 25.8672 28.7794 28.2005 25.5999 28.0832V28.0805ZM23.8053 16.9327C24.9678 17.1507 25.992 17.8314 26.6431 18.8187C27.346 19.8792 27.5811 21.1825 27.2926 22.4214C27.004 23.6606 26.2174 24.726 25.1183 25.3667L23.6288 16.9101C23.6874 16.9174 23.7466 16.922 23.8053 16.9327V16.9327ZM8.57104 35.2518C7.48271 35.4438 6.44476 34.7177 6.25238 33.6293L1.41779 6.23473C1.22602 5.1464 1.95279 4.10876 3.04082 3.91668L17.4982 1.36502C17.6142 1.34456 17.7321 1.33418 17.8503 1.33418C18.8198 1.33632 19.6486 2.03317 19.8168 2.98806L24.6511 30.382C24.7437 30.9045 24.6243 31.4426 24.3201 31.8774C24.0157 32.3123 23.5509 32.6085 23.0281 32.7007L8.57104 35.2518ZM38.6822 10.1025L33.6476 37.0302C33.5532 37.5527 33.2543 38.0157 32.8167 38.3164C32.3791 38.6169 31.8395 38.7305 31.3182 38.6313L17.1357 35.9828C16.688 35.8936 16.2853 35.6521 15.9958 35.2991L18.0091 34.9436C18.1236 34.9916 18.2427 35.0282 18.3645 35.053L19.5793 35.2799C19.6199 35.2875 19.6608 35.2912 19.702 35.2912C20.023 35.2908 20.2981 35.0621 20.3573 34.7467C20.3693 34.6749 20.3693 34.6016 20.3573 34.5299L23.2657 34.0162C25.0787 33.6944 26.2891 31.9654 25.9706 30.1518L25.8421 29.4247C25.8854 29.4247 25.9294 29.4339 25.9755 29.4339C29.7761 29.3578 32.9144 26.4413 33.2689 22.6565C33.6232 18.8715 31.081 15.4233 27.3604 14.6427C25.9975 14.3939 24.5922 14.5435 23.3124 15.0736L22.3786 9.77365C22.487 9.67715 22.5609 9.54798 22.5887 9.40537L22.8156 8.19123C22.8739 7.88311 23.1704 7.68035 23.4785 7.73776L24.6927 7.96434C25.0536 8.02938 25.3993 7.79089 25.4668 7.43025C25.534 7.06992 25.2976 6.72241 24.9376 6.65309L23.7234 6.4262C23.04 6.30069 22.3429 6.55964 21.9068 7.10045L21.5947 5.33267C21.9941 5.11128 22.4583 5.03586 22.9075 5.11861L37.0824 7.76707C37.6046 7.86418 38.0663 8.16466 38.3668 8.60256C38.6669 9.04046 38.7808 9.57974 38.6834 10.1019L38.6822 10.1025Z" fill="#320049"/>
<path d="M32.416 33.8101C32.0538 33.7426 31.7057 33.9817 31.6382 34.3439L31.4107 35.5577C31.3524 35.8655 31.0565 36.0683 30.7484 36.0115L29.5336 35.7846C29.1727 35.7196 28.8267 35.9581 28.7595 36.3187C28.6923 36.6793 28.9287 37.0265 29.2887 37.0962L30.5029 37.3231C30.6195 37.345 30.7377 37.356 30.8565 37.3563C31.7717 37.3548 32.5562 36.7022 32.7244 35.8026L32.9519 34.5885C32.9843 34.4144 32.9461 34.2343 32.8457 34.088C32.7452 33.942 32.5907 33.8422 32.416 33.8101V33.8101Z" fill="#320049"/>
<path d="M35.8549 8.69356L34.6408 8.46667C34.2798 8.40163 33.9338 8.64043 33.8667 9.00076C33.7992 9.3614 34.0358 9.70861 34.3959 9.77823L35.61 10.0051C35.9181 10.0631 36.1212 10.36 36.0635 10.6681L35.8369 11.8822C35.8042 12.0563 35.8421 12.2361 35.9422 12.3821C36.0424 12.5281 36.1963 12.6282 36.3704 12.6609C36.4113 12.6682 36.4525 12.6719 36.4937 12.6722C36.815 12.6719 37.0901 12.4429 37.1491 12.1271L37.3756 10.913C37.5674 9.88053 36.8871 8.88747 35.8549 8.69356V8.69356Z" fill="#320049"/>
<path d="M32.1212 11.8663C32.1615 11.8736 32.2028 11.8773 32.244 11.8776C32.5649 11.8773 32.8404 11.6483 32.899 11.3325L33.0123 10.7255C33.0773 10.3645 32.8388 10.0188 32.4782 9.95135C32.1179 9.88417 31.7704 10.1205 31.7011 10.4806L31.5875 11.0876C31.5551 11.2617 31.593 11.4415 31.6931 11.5875C31.793 11.7335 31.9472 11.8339 32.1212 11.8663V11.8663Z" fill="#320049"/>
<path d="M31.458 12.3198C31.4907 12.1457 31.4528 11.9662 31.3527 11.8199C31.2525 11.6739 31.0986 11.5738 30.9246 11.5414L30.3181 11.4281C30.0833 11.3826 29.8417 11.4666 29.6857 11.648C29.5296 11.8294 29.4829 12.0807 29.5629 12.3061C29.6429 12.5317 29.8378 12.6969 30.0732 12.7394L30.6797 12.853C30.7203 12.8606 30.7618 12.8643 30.803 12.8643C31.124 12.864 31.3991 12.6352 31.458 12.3198V12.3198Z" fill="#320049"/>
<path d="M31.913 12.9815C31.7389 12.9491 31.5594 12.987 31.4131 13.0872C31.2671 13.1873 31.167 13.3412 31.1346 13.5153L31.0204 14.1217C30.988 14.2958 31.0259 14.4754 31.126 14.6216C31.2262 14.7676 31.3801 14.8678 31.5542 14.9001C31.5948 14.9081 31.636 14.912 31.6775 14.912C31.9985 14.9117 32.2736 14.6833 32.3326 14.3679L32.4468 13.7608C32.4794 13.5867 32.4416 13.4066 32.3414 13.2606C32.2412 13.1143 32.0873 13.0139 31.913 12.9815V12.9815Z" fill="#320049"/>
<path d="M33.9606 12.1091L33.3527 11.9958C32.9917 11.9305 32.646 12.1693 32.5789 12.5299C32.5114 12.8902 32.7477 13.2377 33.1081 13.3071L33.7151 13.4207C33.7557 13.428 33.797 13.4317 33.8385 13.432C34.183 13.4317 34.4706 13.169 34.5024 12.8261C34.5338 12.4832 34.2993 12.1723 33.9606 12.1091Z" fill="#320049"/>
<path d="M8.5584 8.01379C8.59718 8.01379 8.63596 8.01044 8.67444 8.00372C8.8488 7.97318 9.00393 7.87455 9.10562 7.7295C9.207 7.58445 9.247 7.40489 9.21616 7.23052L9.10745 6.6149C9.03538 6.26037 8.69398 6.02768 8.33762 6.09058C7.98156 6.15349 7.74032 6.48878 7.79375 6.84637L7.90186 7.46199C7.95804 7.7808 8.23471 8.01349 8.5584 8.01379Z" fill="#320049"/>
<path d="M6.92803 9.57208C6.96681 9.57208 7.0056 9.56872 7.04407 9.562L7.6597 9.45329C7.89452 9.41207 8.08935 9.24869 8.17119 9.02486C8.25272 8.80102 8.20875 8.55062 8.05576 8.36771C7.90246 8.18509 7.66367 8.09806 7.42884 8.13929L6.8126 8.248C6.47151 8.30755 6.23301 8.61811 6.26294 8.96287C6.29317 9.30763 6.58174 9.57238 6.92803 9.57208Z" fill="#320049"/>
<path d="M8.87798 9.1537C8.70361 9.18454 8.54879 9.28318 8.44741 9.42823C8.34572 9.57328 8.30602 9.75283 8.33687 9.92689L8.44588 10.5428C8.50207 10.8613 8.77873 11.0934 9.10212 11.0937C9.14121 11.094 9.18029 11.0907 9.21877 11.0836C9.58155 11.0198 9.8237 10.6738 9.75988 10.3114L9.65117 9.69481C9.62033 9.52045 9.52169 9.36562 9.37664 9.26424C9.23159 9.16255 9.05234 9.12286 8.87798 9.1537Z" fill="#320049"/>
<path d="M10.0081 9.02856C10.0469 9.02856 10.0856 9.0252 10.1241 9.01849L10.7404 8.90977C10.9752 8.86855 11.17 8.70487 11.2515 8.48104C11.3331 8.2569 11.2891 8.00649 11.1358 7.82388C10.9828 7.64127 10.7437 7.55424 10.5089 7.59547L9.89326 7.70418C9.55247 7.76403 9.31398 8.07429 9.3439 8.41905C9.37352 8.76381 9.6621 9.02826 10.0081 9.02856Z" fill="#320049"/>
<path d="M17.4666 25.4241C17.2922 25.4549 17.1374 25.5536 17.036 25.6986C16.9343 25.8437 16.8946 26.0229 16.9255 26.1973L17.0342 26.8129C17.0904 27.1317 17.3667 27.3641 17.6901 27.3647C17.7292 27.3647 17.7683 27.3613 17.8068 27.354C18.1696 27.2899 18.4117 26.9442 18.3479 26.5814L18.2392 25.9652C18.1751 25.6024 17.8294 25.3603 17.4666 25.4241Z" fill="#320049"/>
<path d="M16.5606 27.4902L15.9443 27.5989C15.6051 27.6603 15.3687 27.9699 15.3986 28.3132C15.4286 28.6567 15.715 28.9206 16.0598 28.9224C16.0988 28.9227 16.1379 28.9193 16.1764 28.9123L16.792 28.8036C17.1466 28.7318 17.3793 28.3904 17.3167 28.0341C17.2538 27.6777 16.9185 27.4365 16.5606 27.4902V27.4902Z" fill="#320049"/>
<path d="M18.0096 28.5047C17.6471 28.5688 17.4049 28.9145 17.4688 29.2772L17.5781 29.8938C17.6343 30.212 17.9106 30.4441 18.2337 30.4447C18.2728 30.4447 18.3119 30.4413 18.3504 30.4346C18.5253 30.4041 18.6808 30.3048 18.7822 30.1592C18.8838 30.0135 18.9232 29.8336 18.8915 29.659L18.7828 29.043C18.7174 28.6812 18.3717 28.4405 18.0096 28.5047V28.5047Z" fill="#320049"/>
<path d="M20.4138 27.4874C20.3833 27.313 20.2843 27.1582 20.1393 27.0568C19.9946 26.9552 19.815 26.9155 19.6406 26.9463L19.0244 27.055C18.6836 27.1149 18.4448 27.4254 18.4751 27.7702C18.505 28.1149 18.7935 28.3794 19.1398 28.3794C19.1789 28.3794 19.218 28.3757 19.2565 28.3687L19.8721 28.26C20.0465 28.2291 20.2016 28.1308 20.303 27.9858C20.4047 27.841 20.4447 27.6618 20.4138 27.4874Z" fill="#320049"/>
<path d="M28.3776 31.8988C28.4182 31.9064 28.4591 31.9104 28.5003 31.9101C28.8213 31.9098 29.0964 31.6814 29.1553 31.3659L29.2689 30.7583C29.334 30.3973 29.0952 30.0513 28.7349 29.9841C28.3742 29.9167 28.027 30.1533 27.9574 30.5134L27.8441 31.1204C27.8114 31.2945 27.8493 31.4743 27.9494 31.6203C28.0496 31.7663 28.2035 31.8664 28.3776 31.8988V31.8988Z" fill="#320049"/>
<path d="M27.7107 32.3526C27.7778 31.9904 27.539 31.6423 27.1769 31.5748L26.5698 31.4612C26.214 31.4065 25.8787 31.6441 25.8125 31.998C25.7465 32.3522 25.9734 32.6946 26.3249 32.7721L26.932 32.8854C26.9726 32.8931 27.0135 32.897 27.0547 32.8967C27.376 32.8967 27.6514 32.668 27.7107 32.3526Z" fill="#320049"/>
<path d="M28.1673 33.0156C27.9932 32.9832 27.8134 33.0211 27.6674 33.1212C27.5214 33.2211 27.4213 33.3753 27.3889 33.5493L27.2747 34.1564C27.2423 34.3305 27.2802 34.51 27.3803 34.6563C27.4802 34.8023 27.6344 34.9024 27.8085 34.9348C27.8491 34.9421 27.8903 34.9461 27.9318 34.9461C28.2528 34.9458 28.5279 34.7171 28.5869 34.4019L28.7004 33.7949C28.7331 33.6208 28.6953 33.4409 28.5954 33.2947C28.4952 33.1487 28.3413 33.0482 28.1673 33.0156Z" fill="#320049"/>
<path d="M28.8297 32.562C28.7625 32.9242 29.0013 33.2723 29.3635 33.3398L29.9705 33.4531C30.0112 33.461 30.0524 33.4647 30.0939 33.4644C30.4384 33.4641 30.7257 33.2015 30.7572 32.8586C30.7886 32.5153 30.5538 32.2051 30.2154 32.1416L29.6084 32.0283C29.4343 31.9956 29.2544 32.0338 29.1085 32.1339C28.9625 32.2338 28.862 32.388 28.8297 32.562V32.562Z" fill="#320049"/>
</g>
<defs>
<clipPath id="clip0">
<rect width="40" height="40" fill="white"/>
</clipPath>
</defs>
</svg>
