<svg width="40" height="40" viewBox="0 0 40 40" fill="none" xmlns="http://www.w3.org/2000/svg">
<path d="M20.1034 0C19.7298 0 19.4367 0.300588 19.4367 0.659511V6.84847C19.4367 6.94529 19.3595 7.01415 19.2763 7.01415H17.6221C17.5389 7.01415 17.4617 6.94529 17.4617 6.84847V3.13509C17.4617 2.77617 17.1686 2.47558 16.795 2.47558C16.4214 2.47558 16.1283 2.77617 16.1283 3.13509V7.67366C16.1283 8.03258 16.4214 8.33317 16.795 8.33317H19.2763C19.3595 8.33317 19.4367 8.40204 19.4367 8.49886V10.2524C19.4367 10.3492 19.3595 10.4181 19.2763 10.4181H17.312C16.9383 10.4181 16.6452 10.7187 16.6452 11.0776C16.6452 11.4365 16.9383 11.7371 17.312 11.7371H19.2763C19.3595 11.7371 19.4367 11.806 19.4367 11.9028V13.8626C19.4367 13.9594 19.3595 14.0283 19.2763 14.0283H17.0018C16.6282 14.0283 16.3351 14.3289 16.3351 14.6878C16.3351 15.0467 16.6282 15.3473 17.0018 15.3473H19.2763C19.3595 15.3473 19.4367 15.4162 19.4367 15.513V18.3038L12.722 11.6045C12.6567 11.5394 12.6567 11.4314 12.722 11.3662L14.3303 9.7616C14.588 9.50452 14.588 9.08998 14.3303 8.8329L11.1137 5.62365C10.8529 5.36344 10.4276 5.36344 10.1668 5.62365C9.90908 5.88073 9.90908 6.29527 10.1668 6.55235L12.7985 9.1781C12.8639 9.24328 12.8639 9.35122 12.7985 9.4164L11.7751 10.4375C11.7129 10.4996 11.6145 10.4996 11.5523 10.4375L7.16598 6.06127C6.90517 5.80106 6.47988 5.80106 6.21907 6.06127C5.96139 6.31835 5.96139 6.73289 6.21907 6.98998L10.6054 11.3662C10.6707 11.4314 10.6707 11.5394 10.6054 11.6045L9.4357 12.7715C9.37351 12.8336 9.27512 12.8336 9.21293 12.7715L6.58114 10.1458C6.32032 9.88556 5.89503 9.88556 5.63422 10.1458C5.37655 10.4029 5.37655 10.8174 5.63422 11.0745L8.85086 14.2837C9.11167 14.5439 9.53696 14.5439 9.79777 14.2837L11.5523 12.5332C11.6145 12.4712 11.7129 12.4712 11.7751 12.5332L18.6497 19.3921L15.5544 19.3921C15.4712 19.3921 15.394 19.3232 15.394 19.2264V16.8539C15.394 16.495 15.1009 16.1944 14.7273 16.1944C14.3537 16.1944 14.0606 16.495 14.0606 16.8539V19.2264C14.0606 19.3232 13.9834 19.3921 13.9002 19.3921H11.9358C11.8527 19.3921 11.7755 19.3232 11.7755 19.2264V17.0602C11.7755 16.7013 11.4824 16.4007 11.1088 16.4007C10.7352 16.4007 10.442 16.7013 10.442 17.0602V19.2264C10.442 19.3232 10.3649 19.3921 10.2817 19.3921H8.52409C8.4409 19.3921 8.36371 19.3232 8.36371 19.2264V16.9571C8.36371 16.5982 8.0706 16.2976 7.697 16.2976H3.14799C2.77439 16.2976 2.48128 16.5982 2.48128 16.9571C2.48128 17.316 2.77439 17.6166 3.14799 17.6166H6.86991C6.95309 17.6166 7.03029 17.6855 7.03029 17.7823V19.2264C7.03029 19.3232 6.95309 19.3921 6.86991 19.3921H0.666711C0.293109 19.3921 0 19.6927 0 20.0516C0 20.4105 0.293109 20.7111 0.666711 20.7111H6.86991C6.95309 20.7111 7.03029 20.78 7.03029 20.8768V22.5272C7.03029 22.624 6.95309 22.6928 6.86991 22.6928H3.14799C2.77439 22.6928 2.48128 22.9934 2.48128 23.3524C2.48128 23.7113 2.77439 24.0119 3.14799 24.0119H7.697C8.0706 24.0119 8.36371 23.7113 8.36371 23.3524V20.8768C8.36371 20.78 8.4409 20.7111 8.52409 20.7111H10.2817C10.3649 20.7111 10.442 20.78 10.442 20.8768V22.8366C10.442 23.1955 10.7352 23.4961 11.1088 23.4961C11.4824 23.4961 11.7755 23.1955 11.7755 22.8366V20.8768C11.7755 20.78 11.8527 20.7111 11.9358 20.7111H13.9002C13.9834 20.7111 14.0606 20.78 14.0606 20.8768V23.1461C14.0606 23.505 14.3537 23.8056 14.7273 23.8056C15.1009 23.8056 15.394 23.505 15.394 23.1461V20.8768C15.394 20.78 15.4712 20.7111 15.5544 20.7111H18.4146L11.6288 27.4813C11.5666 27.5433 11.4682 27.5433 11.406 27.4813L9.79773 25.8767C9.53692 25.6165 9.11163 25.6165 8.85082 25.8767L5.63418 29.0859C5.37651 29.343 5.37651 29.7575 5.63418 30.0146C5.89499 30.2748 6.32028 30.2748 6.58109 30.0146L9.21289 27.3889C9.27508 27.3268 9.37347 27.3268 9.43566 27.3889L10.4591 28.41C10.5245 28.4752 10.5245 28.5831 10.4591 28.6483L6.07281 33.0245C5.81514 33.2816 5.81514 33.6962 6.07281 33.9533C6.33362 34.2135 6.75891 34.2135 7.01973 33.9533L11.406 29.577C11.4682 29.515 11.5666 29.515 11.6288 29.577L12.7985 30.744C12.8638 30.8092 12.8638 30.9171 12.7985 30.9823L10.1667 33.608C9.90904 33.8651 9.90904 34.2797 10.1667 34.5368C10.4275 34.797 10.8528 34.797 11.1136 34.5368L14.3303 31.3275C14.5879 31.0704 14.5879 30.6559 14.3303 30.3988L12.5757 28.6483C12.5104 28.5831 12.5104 28.4752 12.5757 28.41L19.3333 21.6679V24.487C19.3333 24.5838 19.2561 24.6527 19.1729 24.6527H16.795C16.4214 24.6527 16.1283 24.9533 16.1283 25.3122C16.1283 25.6711 16.4214 25.9717 16.795 25.9717H19.1729C19.2561 25.9717 19.3333 26.0406 19.3333 26.1374V28.0972C19.3333 28.194 19.2561 28.2629 19.1729 28.2629H17.0018C16.6282 28.2629 16.3351 28.5635 16.3351 28.9224C16.3351 29.2813 16.6282 29.5819 17.0018 29.5819H19.1729C19.2561 29.5819 19.3333 29.6508 19.3333 29.7476V31.5011C19.3333 31.598 19.2561 31.6668 19.1729 31.6668H16.8984C16.5248 31.6668 16.2317 31.9674 16.2317 32.3263V36.8649C16.2317 37.2238 16.5248 37.5244 16.8984 37.5244C17.272 37.5244 17.5651 37.2238 17.5651 36.8649V33.1515C17.5651 33.0547 17.6423 32.9858 17.7255 32.9858H19.1729C19.2561 32.9858 19.3333 33.0547 19.3333 33.1515V39.3405C19.3333 39.6994 19.6264 40 20 40C20.3736 40 20.6667 39.6994 20.6667 39.3405V33.1515C20.6667 33.0547 20.7439 32.9858 20.8271 32.9858H22.4813C22.5645 32.9858 22.6417 33.0547 22.6417 33.1515V36.8649C22.6417 37.2238 22.9348 37.5244 23.3084 37.5244C23.682 37.5244 23.9751 37.2238 23.9751 36.8649V32.3263C23.9751 31.9674 23.682 31.6668 23.3084 31.6668H20.8271C20.7439 31.6668 20.6667 31.598 20.6667 31.5011V29.7476C20.6667 29.6508 20.7439 29.5819 20.8271 29.5819H22.7914C23.165 29.5819 23.4581 29.2813 23.4581 28.9224C23.4581 28.5635 23.165 28.2629 22.7914 28.2629H20.8271C20.7439 28.2629 20.6667 28.194 20.6667 28.0972V26.1374C20.6667 26.0406 20.7439 25.9717 20.8271 25.9717H23.1016C23.4752 25.9717 23.7683 25.6711 23.7683 25.3122C23.7683 24.9533 23.4752 24.6527 23.1016 24.6527H20.8271C20.7439 24.6527 20.6667 24.5838 20.6667 24.487L20.6667 21.4899L27.5421 28.3496C27.6075 28.4147 27.6075 28.5227 27.5421 28.5879L25.9338 30.1925C25.6761 30.4496 25.6761 30.8641 25.9338 31.1212L29.1505 34.3304C29.4113 34.5907 29.8366 34.5907 30.0974 34.3304C30.355 34.0734 30.355 33.6588 30.0974 33.4017L27.4656 30.776C27.4002 30.7108 27.4002 30.6029 27.4656 30.5377L28.489 29.5166C28.5512 29.4545 28.6496 29.4545 28.7118 29.5166L33.0981 33.8928C33.359 34.153 33.7842 34.153 34.0451 33.8928C34.3027 33.6357 34.3027 33.2212 34.0451 32.9641L29.6587 28.5879C29.5934 28.5227 29.5934 28.4147 29.6587 28.3496L30.8284 27.1826C30.8906 27.1205 30.989 27.1205 31.0512 27.1826L33.683 29.8083C33.9438 30.0685 34.3691 30.0685 34.6299 29.8083C34.8876 29.5512 34.8876 29.1367 34.6299 28.8796L31.4133 25.6704C31.1525 25.4101 30.7272 25.4101 30.4663 25.6704L28.7118 27.4209C28.6496 27.4829 28.5512 27.4829 28.489 27.4209L21.7638 20.7111H24.4456C24.5288 20.7111 24.606 20.78 24.606 20.8768V23.2492C24.606 23.6081 24.8991 23.9087 25.2727 23.9087C25.6463 23.9087 25.9394 23.6081 25.9394 23.2492V20.8768C25.9394 20.78 26.0166 20.7111 26.0998 20.7111H28.0642C28.1473 20.7111 28.2245 20.78 28.2245 20.8768V23.0429C28.2245 23.4018 28.5176 23.7024 28.8912 23.7024C29.2648 23.7024 29.558 23.4018 29.558 23.0429V20.8768C29.558 20.78 29.6351 20.7111 29.7183 20.7111H31.4759C31.5591 20.7111 31.6363 20.78 31.6363 20.8768V23.1461C31.6363 23.505 31.9294 23.8056 32.303 23.8056H36.852C37.2256 23.8056 37.5187 23.505 37.5187 23.1461C37.5187 22.7871 37.2256 22.4865 36.852 22.4865H33.1301C33.0469 22.4865 32.9697 22.4177 32.9697 22.3209V20.8768C32.9697 20.78 33.0469 20.7111 33.1301 20.7111H39.3333C39.7069 20.7111 40 20.4105 40 20.0516C40 19.6927 39.7069 19.3921 39.3333 19.3921H33.1301C33.0469 19.3921 32.9697 19.3232 32.9697 19.2264V17.576C32.9697 17.4792 33.0469 17.4103 33.1301 17.4103H36.852C37.2256 17.4103 37.5187 17.1097 37.5187 16.7508C37.5187 16.3919 37.2256 16.0913 36.852 16.0913H32.303C31.9294 16.0913 31.6363 16.3919 31.6363 16.7508V19.2264C31.6363 19.3232 31.5591 19.3921 31.4759 19.3921H29.7183C29.6351 19.3921 29.558 19.3232 29.558 19.2264V17.2665C29.558 16.9076 29.2648 16.607 28.8912 16.607C28.5176 16.607 28.2245 16.9076 28.2245 17.2665V19.2264C28.2245 19.3232 28.1473 19.3921 28.0642 19.3921H26.0998C26.0166 19.3921 25.9394 19.3232 25.9394 19.2264V16.9571C25.9394 16.5982 25.6463 16.2976 25.2727 16.2976C24.8991 16.2976 24.606 16.5982 24.606 16.9571V19.2264C24.606 19.3232 24.5288 19.3921 24.4456 19.3921L21.7001 19.3921L28.6353 12.4728C28.6975 12.4108 28.7959 12.4108 28.8581 12.4728L30.4664 14.0774C30.7272 14.3376 31.1525 14.3376 31.4133 14.0774L34.6299 10.8682C34.8876 10.6111 34.8876 10.1966 34.6299 9.93947C34.3691 9.67926 33.9438 9.67926 33.683 9.93947L31.0512 12.5652C30.989 12.6273 30.8907 12.6273 30.8285 12.5652L29.805 11.5441C29.7397 11.4789 29.7397 11.371 29.805 11.3058L34.1913 6.92954C34.449 6.67246 34.449 6.25792 34.1913 6.00084C33.9305 5.74063 33.5052 5.74063 33.2444 6.00084L28.8581 10.3771C28.7959 10.4391 28.6975 10.4391 28.6353 10.3771L27.4656 9.21009C27.4003 9.14492 27.4003 9.03697 27.4656 8.9718L30.0974 6.34604C30.3551 6.08896 30.3551 5.67442 30.0974 5.41734C29.8366 5.15713 29.4113 5.15713 29.1505 5.41734L25.9339 8.62659C25.6762 8.88367 25.6762 9.29821 25.9339 9.5553L27.6884 11.3058C27.7537 11.371 27.7537 11.4789 27.6884 11.5441L20.7701 18.4465V15.513C20.7701 15.4162 20.8473 15.3473 20.9305 15.3473H23.3084C23.682 15.3473 23.9751 15.0467 23.9751 14.6878C23.9751 14.3289 23.682 14.0283 23.3084 14.0283H20.9305C20.8473 14.0283 20.7701 13.9594 20.7701 13.8626V11.9028C20.7701 11.806 20.8473 11.7371 20.9305 11.7371H23.1016C23.4752 11.7371 23.7683 11.4365 23.7683 11.0776C23.7683 10.7187 23.4752 10.4181 23.1016 10.4181H20.9305C20.8473 10.4181 20.7701 10.3492 20.7701 10.2524V8.49886C20.7701 8.40204 20.8473 8.33317 20.9305 8.33317H23.205C23.5786 8.33317 23.8717 8.03258 23.8717 7.67366V3.13509C23.8717 2.77617 23.5786 2.47558 23.205 2.47558C22.8314 2.47558 22.5383 2.77617 22.5383 3.13509V6.84847C22.5383 6.94529 22.4611 7.01415 22.3779 7.01415H20.9305C20.8473 7.01415 20.7701 6.94529 20.7701 6.84847V0.659511C20.7701 0.300588 20.477 0 20.1034 0Z" fill="#320049"/>
</svg>
