<svg width="1177" height="1176" viewBox="0 0 1177 1176" fill="none" xmlns="http://www.w3.org/2000/svg">
<g opacity="0.5">
<path d="M589.965 2.23719L590.117 176.404C589.509 176.401 588.902 176.4 588.294 176.4C587.41 176.4 586.527 176.403 585.645 176.408L585.478 2.23719C585.478 1.64385 585.715 1.07481 586.135 0.655259C586.556 0.235703 587.127 0 587.722 0C588.317 0 588.887 0.235703 589.308 0.655259C589.729 1.07481 589.965 1.64385 589.965 2.23719Z" fill="#E0E0E0"/>
<path d="M626.334 110.895L621.338 177.706C619.845 177.587 618.35 177.477 616.853 177.374L621.847 110.59C621.899 110.001 622.178 109.455 622.625 109.066C623.071 108.677 623.652 108.476 624.244 108.505C624.539 108.524 624.827 108.602 625.092 108.732C625.356 108.863 625.593 109.045 625.787 109.267C625.981 109.489 626.13 109.747 626.224 110.026C626.317 110.306 626.355 110.601 626.334 110.895Z" fill="#E0E0E0"/>
<path d="M96.4216 267.141L243.029 363.578C243.845 362.326 244.668 361.078 245.498 359.835L98.869 263.378C98.3686 263.055 97.7599 262.943 97.1766 263.067C96.5933 263.191 96.0833 263.54 95.7588 264.039C95.4342 264.538 95.3217 265.146 95.446 265.727C95.5703 266.309 95.9212 266.817 96.4216 267.141Z" fill="#E0E0E0"/>
<path d="M965.655 422.954C965.052 421.579 964.442 420.208 963.825 418.84L1124.37 347.578C1124.92 347.354 1125.53 347.351 1126.08 347.569C1126.64 347.787 1127.08 348.209 1127.33 348.748C1127.57 349.287 1127.59 349.9 1127.38 350.453C1127.16 351.005 1126.74 351.453 1126.2 351.697L965.655 422.954Z" fill="#E0E0E0"/>
<path d="M950.722 392.407C950.013 391.098 949.297 389.793 948.575 388.493L1008.17 355.917C1008.43 355.775 1008.72 355.686 1009.01 355.655C1009.31 355.624 1009.61 355.652 1009.89 355.737C1010.18 355.822 1010.44 355.963 1010.67 356.151C1010.9 356.339 1011.09 356.57 1011.23 356.832C1011.37 357.085 1011.46 357.364 1011.5 357.653C1011.53 357.942 1011.51 358.234 1011.43 358.514C1011.35 358.793 1011.21 359.053 1011.03 359.28C1010.85 359.506 1010.62 359.694 1010.36 359.832L950.722 392.407Z" fill="#E0E0E0"/>
<path d="M976.604 450.624C977.101 452.029 977.591 453.436 978.074 454.848L1042.39 432.489C1042.92 432.276 1043.36 431.864 1043.6 431.339C1043.84 430.814 1043.86 430.217 1043.67 429.673C1043.48 429.128 1043.09 428.678 1042.57 428.417C1042.06 428.155 1041.46 428.102 1040.91 428.269L976.604 450.624Z" fill="#E0E0E0"/>
<path d="M987.682 487.289C987.319 485.844 986.948 484.403 986.569 482.965L1156.85 439.049C1157.42 438.909 1158.02 438.995 1158.52 439.289C1159.03 439.584 1159.4 440.063 1159.55 440.625C1159.63 440.909 1159.65 441.205 1159.61 441.497C1159.58 441.788 1159.48 442.07 1159.33 442.325C1159.19 442.58 1158.99 442.803 1158.76 442.983C1158.52 443.162 1158.26 443.294 1157.97 443.371L987.682 487.289Z" fill="#E0E0E0"/>
<path d="M993.823 516.017C994.08 517.473 994.329 518.932 994.57 520.393L1061.97 508.808C1062.55 508.697 1063.06 508.362 1063.4 507.877C1063.73 507.391 1063.86 506.794 1063.76 506.215C1063.64 505.647 1063.32 505.145 1062.84 504.813C1062.37 504.481 1061.78 504.346 1061.21 504.435L993.823 516.017Z" fill="#E0E0E0"/>
<path d="M998.742 554.342C998.622 552.866 998.495 551.392 998.36 549.92L1173.74 534.587C1174.06 534.521 1174.38 534.523 1174.69 534.591C1175 534.659 1175.29 534.793 1175.55 534.983C1175.81 535.173 1176.02 535.415 1176.17 535.693C1176.33 535.972 1176.42 536.279 1176.44 536.596C1176.47 536.913 1176.43 537.232 1176.32 537.531C1176.21 537.83 1176.04 538.103 1175.82 538.332C1175.6 538.56 1175.33 538.739 1175.03 538.856C1174.74 538.973 1174.42 539.026 1174.1 539.01L998.742 554.342Z" fill="#E0E0E0"/>
<path d="M1000.08 583.818C1000.09 585.211 1000.1 586.605 1000.1 588L1000.1 588.293L1068.49 587.974C1069.08 587.974 1069.66 587.738 1070.08 587.319C1070.5 586.899 1070.73 586.33 1070.73 585.737C1070.73 585.143 1070.5 584.574 1070.08 584.155C1069.66 583.735 1069.08 583.5 1068.49 583.5L1000.08 583.818Z" fill="#E0E0E0"/>
<path d="M998.689 622.31C998.811 620.833 998.925 619.353 999.031 617.872L1174.95 631.601C1175.54 631.653 1176.08 631.933 1176.47 632.38C1176.85 632.827 1177.04 633.405 1176.99 633.991C1176.96 634.302 1176.87 634.603 1176.72 634.877C1176.56 635.15 1176.36 635.389 1176.11 635.58C1175.86 635.771 1175.58 635.908 1175.27 635.985C1174.97 636.061 1174.65 636.075 1174.34 636.025L998.689 622.31Z" fill="#E0E0E0"/>
<path d="M995.198 651.697C994.971 653.157 994.736 654.615 994.494 656.071L1061.92 666.987H1062.32C1062.84 666.973 1063.33 666.783 1063.72 666.45C1064.11 666.117 1064.37 665.661 1064.47 665.157C1064.52 664.87 1064.51 664.575 1064.44 664.29C1064.38 664.005 1064.26 663.737 1064.09 663.5C1063.91 663.263 1063.7 663.062 1063.45 662.91C1063.2 662.758 1062.92 662.658 1062.63 662.615L995.198 651.697Z" fill="#E0E0E0"/>
<path d="M987.509 689.398C987.88 687.935 988.243 686.469 988.598 685L1159.3 727.341C1159.86 727.458 1160.34 727.776 1160.67 728.234C1160.99 728.691 1161.13 729.254 1161.06 729.81C1160.99 730.367 1160.72 730.877 1160.29 731.239C1159.86 731.6 1159.31 731.788 1158.74 731.765H1158.18L987.509 689.398Z" fill="#E0E0E0"/>
<path d="M979.2 717.813C978.73 719.225 978.254 720.634 977.77 722.039L1042.38 743.866H1043.1V743.968C1043.61 743.946 1044.1 743.748 1044.49 743.407C1044.88 743.066 1045.13 742.603 1045.22 742.096C1045.3 741.589 1045.21 741.069 1044.95 740.622C1044.69 740.176 1044.29 739.831 1043.81 739.646L979.2 717.813Z" fill="#E0E0E0"/>
<path d="M965.315 753.82C965.941 752.401 966.558 750.979 967.168 749.552L1128.36 819.321C1128.82 819.531 1129.19 819.89 1129.42 820.34C1129.65 820.79 1129.73 821.305 1129.62 821.799C1129.52 822.295 1129.26 822.741 1128.87 823.067C1128.48 823.392 1128 823.577 1127.49 823.592V823.694C1127.19 823.742 1126.88 823.742 1126.57 823.694L965.315 753.82Z" fill="#E0E0E0"/>
<path d="M952.505 780.262C951.808 781.578 951.104 782.891 950.393 784.199L1010.36 816.27C1010.67 816.455 1011.03 816.544 1011.38 816.525C1011.8 816.543 1012.21 816.443 1012.58 816.236C1012.94 816.029 1013.23 815.723 1013.42 815.355C1013.47 815.285 1013.5 815.212 1013.54 815.137C1013.56 815.088 1013.58 815.037 1013.6 814.986C1013.65 814.838 1013.68 814.683 1013.7 814.526C1013.74 814.233 1013.71 813.937 1013.62 813.655C1013.54 813.373 1013.39 813.113 1013.2 812.889C1013.01 812.665 1012.77 812.484 1012.51 812.355L952.505 780.262Z" fill="#E0E0E0"/>
<path d="M932.895 813.437C933.701 812.208 934.5 810.976 935.293 809.739L1082.67 905.044C1083.07 905.306 1083.39 905.693 1083.56 906.147C1083.72 906.601 1083.74 907.097 1083.6 907.561C1083.47 908.026 1083.18 908.432 1082.79 908.721C1082.4 909.01 1081.93 909.165 1081.44 909.163V909.061C1081.01 909.069 1080.58 908.945 1080.22 908.705L932.895 813.437Z" fill="#E0E0E0"/>
<path d="M915.741 837.635C914.842 838.811 913.938 839.981 913.027 841.147L966.78 882.571C967.16 882.864 967.626 883.025 968.106 883.029C968.446 883.04 968.785 882.973 969.095 882.832C969.404 882.691 969.677 882.479 969.891 882.215C970.073 881.982 970.207 881.715 970.285 881.43C970.363 881.145 970.383 880.847 970.346 880.554C970.307 880.261 970.212 879.978 970.064 879.722C969.916 879.466 969.718 879.242 969.483 879.063L915.741 837.635Z" fill="#E0E0E0"/>
<path d="M890.97 867.096C892.002 865.979 893.027 864.856 894.047 863.727L1023.62 981.924C1024.04 982.343 1024.27 982.91 1024.27 983.5C1024.27 984.091 1024.04 984.657 1023.62 985.076C1023.4 985.315 1023.13 985.503 1022.83 985.626C1022.53 985.749 1022.21 985.805 1021.89 985.788C1021.32 985.786 1020.77 985.567 1020.36 985.178L890.97 867.096Z" fill="#E0E0E0"/>
<path d="M870.016 888.212C868.939 889.223 867.856 890.227 866.767 891.226L912.674 940.638C912.891 940.886 913.157 941.086 913.455 941.225C913.754 941.366 914.078 941.443 914.407 941.452C914.959 941.375 915.465 941.104 915.835 940.689C916.252 940.27 916.486 939.704 916.486 939.113C916.486 938.523 916.252 937.956 915.835 937.537L870.016 888.212Z" fill="#E0E0E0"/>
<path d="M840.737 913.217C841.918 912.3 843.093 911.377 844.264 910.448L952.2 1048.02C952.385 1048.25 952.523 1048.52 952.605 1048.8C952.687 1049.08 952.712 1049.38 952.679 1049.67C952.646 1049.97 952.555 1050.25 952.411 1050.51C952.268 1050.77 952.075 1050.99 951.843 1051.18C951.444 1051.47 950.962 1051.63 950.467 1051.63C950.127 1051.64 949.789 1051.57 949.48 1051.43C949.171 1051.29 948.898 1051.08 948.682 1050.82L840.737 913.217Z" fill="#E0E0E0"/>
<path d="M816.599 930.607C815.365 931.43 814.126 932.247 812.883 933.057L849.901 989.246C850.108 989.556 850.389 989.811 850.717 989.988C851.046 990.165 851.413 990.26 851.787 990.263C852.204 990.261 852.612 990.137 852.96 989.907C853.451 989.576 853.794 989.068 853.917 988.49C854.041 987.911 853.935 987.308 853.623 986.806L816.599 930.607Z" fill="#E0E0E0"/>
<path d="M783.519 950.498C784.078 950.197 784.636 949.895 785.193 949.591C785.953 949.177 786.712 948.76 787.469 948.341L871.065 1101.56C871.21 1101.82 871.302 1102.1 871.337 1102.4C871.372 1102.69 871.348 1102.99 871.268 1103.27C871.187 1103.55 871.051 1103.82 870.868 1104.05C870.684 1104.28 870.457 1104.47 870.199 1104.61C869.847 1104.78 869.464 1104.86 869.077 1104.87C868.669 1104.88 868.267 1104.77 867.916 1104.57C867.564 1104.36 867.278 1104.06 867.088 1103.7L783.519 950.498Z" fill="#E0E0E0"/>
<path d="M756.8 963.676C755.446 964.284 754.089 964.884 752.727 965.477L779.848 1026.77C780.031 1027.17 780.324 1027.51 780.694 1027.76C781.064 1028 781.496 1028.13 781.939 1028.14C782.22 1028.12 782.497 1028.05 782.754 1027.94C783.026 1027.82 783.272 1027.65 783.478 1027.44C783.684 1027.23 783.847 1026.98 783.956 1026.71C784.065 1026.43 784.118 1026.14 784.113 1025.85C784.108 1025.55 784.045 1025.26 783.927 1024.99L756.8 963.676Z" fill="#E0E0E0"/>
<path d="M720.958 977.775C722.398 977.286 723.835 976.788 725.268 976.283L782.3 1141.02C782.496 1141.58 782.461 1142.19 782.203 1142.73C781.945 1143.26 781.485 1143.67 780.924 1143.87C780.667 1143.98 780.388 1144.03 780.108 1144.02C779.64 1144.03 779.179 1143.9 778.794 1143.63C778.409 1143.37 778.119 1142.99 777.966 1142.55L720.958 977.775Z" fill="#E0E0E0"/>
<path d="M692.237 986.376C690.849 986.737 689.458 987.091 688.064 987.438L704.6 1052.29C704.723 1052.77 704.999 1053.19 705.386 1053.49C705.773 1053.8 706.249 1053.96 706.741 1053.97L707.098 1053.87C707.385 1053.8 707.657 1053.68 707.895 1053.51C708.134 1053.34 708.336 1053.12 708.488 1052.87C708.64 1052.62 708.74 1052.34 708.782 1052.05C708.823 1051.75 708.806 1051.46 708.73 1051.17L692.237 986.376Z" fill="#E0E0E0"/>
<path d="M654.478 994.312C655.958 994.073 657.436 993.826 658.911 993.572L687.865 1165.32C687.915 1165.61 687.908 1165.91 687.843 1166.19C687.778 1166.48 687.656 1166.74 687.485 1166.98C687.314 1167.22 687.097 1167.42 686.847 1167.57C686.597 1167.72 686.319 1167.82 686.029 1167.87L685.621 1167.92C685.092 1167.91 684.581 1167.72 684.18 1167.38C683.779 1167.03 683.513 1166.56 683.429 1166.04L654.478 994.312Z" fill="#E0E0E0"/>
<path d="M624.952 997.992C623.457 998.123 621.961 998.247 620.462 998.363L626.067 1065.06C626.117 1065.61 626.376 1066.13 626.792 1066.51C627.207 1066.88 627.749 1067.09 628.31 1067.09H628.514C628.809 1067.06 629.096 1066.98 629.359 1066.84C629.517 1066.76 629.665 1066.66 629.798 1066.54C629.886 1066.47 629.968 1066.38 630.044 1066.29C630.233 1066.07 630.376 1065.8 630.463 1065.52C630.551 1065.24 630.581 1064.94 630.553 1064.65L624.952 997.992Z" fill="#E0E0E0"/>
<path d="M588.294 999.6C589.121 999.6 589.949 999.598 590.775 999.593L590.897 1173.76C590.897 1174.36 590.66 1174.93 590.24 1175.34C589.819 1175.76 589.248 1176 588.653 1176C588.058 1176 587.488 1175.76 587.067 1175.34C586.646 1174.93 586.41 1174.36 586.41 1173.76L586.304 999.596C586.967 999.599 587.63 999.6 588.294 999.6Z" fill="#E0E0E0"/>
<path d="M556.746 998.41C555.263 998.298 553.782 998.178 552.303 998.05L546.791 1064.75C546.749 1065.34 546.939 1065.91 547.32 1066.36C547.702 1066.81 548.244 1067.09 548.831 1067.14C549.123 1067.17 549.418 1067.14 549.698 1067.05C549.978 1066.96 550.237 1066.82 550.46 1066.63C550.684 1066.44 550.867 1066.21 550.999 1065.94C551.13 1065.68 551.208 1065.4 551.227 1065.11L556.746 998.41Z" fill="#E0E0E0"/>
<path d="M518.244 993.669C519.719 993.922 521.198 994.167 522.679 994.404L493.868 1166.24C493.763 1166.75 493.482 1167.22 493.073 1167.55C492.665 1167.89 492.153 1168.07 491.625 1168.07H491.268C490.689 1167.97 490.173 1167.65 489.83 1167.17C489.486 1166.7 489.344 1166.11 489.432 1165.53L518.244 993.669Z" fill="#E0E0E0"/>
<path d="M489.078 987.575C487.629 987.217 486.182 986.851 484.739 986.477L468.214 1051.38C468.137 1051.66 468.116 1051.96 468.154 1052.25C468.192 1052.54 468.287 1052.82 468.433 1053.08C468.58 1053.33 468.776 1053.56 469.01 1053.73C469.243 1053.91 469.51 1054.05 469.795 1054.12H470.355C470.85 1054.13 471.332 1053.97 471.729 1053.68C472.125 1053.39 472.413 1052.97 472.548 1052.5L489.078 987.575Z" fill="#E0E0E0"/>
<path d="M451.992 976.52C453.466 977.036 454.943 977.544 456.424 978.044L399.592 1142.95C399.367 1143.34 399.026 1143.66 398.615 1143.85C398.204 1144.04 397.744 1144.1 397.297 1144.02C397.045 1144.07 396.785 1144.07 396.533 1144.02C395.98 1143.81 395.528 1143.4 395.272 1142.87C395.016 1142.34 394.974 1141.73 395.156 1141.17L451.992 976.52Z" fill="#E0E0E0"/>
<path d="M424.27 965.656C422.924 965.071 421.582 964.479 420.244 963.881L393.105 1025.45C392.987 1025.72 392.924 1026.01 392.919 1026.3C392.914 1026.6 392.968 1026.89 393.077 1027.17C393.186 1027.44 393.348 1027.69 393.554 1027.9C393.76 1028.11 394.006 1028.28 394.278 1028.4C394.564 1028.45 394.858 1028.45 395.145 1028.4C395.577 1028.4 396.002 1028.28 396.365 1028.04C396.728 1027.81 397.013 1027.47 397.184 1027.07L424.27 965.656Z" fill="#E0E0E0"/>
<path d="M389.6 948.607C390.897 949.323 392.198 950.031 393.504 950.733L310.094 1104.06C309.908 1104.41 309.63 1104.7 309.288 1104.91C308.947 1105.11 308.555 1105.22 308.156 1105.22C307.782 1105.24 307.41 1105.16 307.085 1104.97C306.825 1104.84 306.593 1104.65 306.405 1104.43C306.217 1104.2 306.076 1103.94 305.991 1103.66C305.905 1103.38 305.877 1103.09 305.907 1102.8C305.938 1102.51 306.026 1102.23 306.168 1101.97L389.6 948.607Z" fill="#E0E0E0"/>
<path d="M364.103 933.316C362.847 932.5 361.596 931.677 360.349 930.847L323.361 987.162C323.048 987.664 322.942 988.267 323.066 988.845C323.19 989.424 323.533 989.932 324.024 990.263C324.386 990.503 324.813 990.627 325.247 990.619C325.621 990.616 325.988 990.521 326.317 990.344C326.646 990.167 326.926 989.912 327.134 989.602L364.103 933.316Z" fill="#E0E0E0"/>
<path d="M332.74 910.779C333.906 911.702 335.077 912.619 336.254 913.53L228.485 1051.28C228.269 1051.54 227.997 1051.76 227.689 1051.91C227.38 1052.06 227.043 1052.14 226.7 1052.14C226.204 1052.14 225.722 1051.98 225.323 1051.68C225.092 1051.5 224.899 1051.27 224.755 1051.02C224.612 1050.76 224.521 1050.47 224.488 1050.18C224.455 1049.89 224.48 1049.59 224.562 1049.31C224.644 1049.03 224.782 1048.76 224.967 1048.53L332.74 910.779Z" fill="#E0E0E0"/>
<path d="M310.184 891.561C309.094 890.562 308.009 889.558 306.93 888.549L260.997 938.146C260.592 938.572 260.366 939.136 260.366 939.723C260.366 940.309 260.592 940.874 260.997 941.299C261.416 941.68 261.96 941.897 262.527 941.909C263.16 941.903 263.765 941.647 264.209 941.197L310.184 891.561Z" fill="#E0E0E0"/>
<path d="M282.937 864.166C283.947 865.281 284.964 866.391 285.986 867.496L156.688 985.788C156.269 986.169 155.726 986.386 155.159 986.398C154.543 986.379 153.959 986.124 153.527 985.687C153.11 985.267 152.876 984.701 152.876 984.11C152.876 983.52 153.11 982.953 153.527 982.534L282.937 864.166Z" fill="#E0E0E0"/>
<path d="M263.862 841.533C262.978 840.404 262.099 839.269 261.225 838.13L207.682 879.521C207.441 879.696 207.238 879.919 207.085 880.174C206.933 880.43 206.835 880.715 206.797 881.01C206.759 881.305 206.781 881.605 206.863 881.891C206.945 882.177 207.085 882.443 207.274 882.674C207.49 882.939 207.762 883.154 208.07 883.303C208.379 883.453 208.716 883.533 209.059 883.538C209.459 883.481 209.833 883.304 210.129 883.03L263.862 841.533Z" fill="#E0E0E0"/>
<path d="M241.544 810.128C242.361 811.4 243.185 812.667 244.016 813.929L96.8793 909.368C96.4781 909.647 95.9895 909.773 95.5027 909.724C95.129 909.72 94.7617 909.626 94.433 909.448C94.1042 909.271 93.8238 909.017 93.6162 908.707C93.3034 908.205 93.1978 907.601 93.3214 907.023C93.4449 906.445 93.7881 905.937 94.279 905.605L241.544 810.128Z" fill="#E0E0E0"/>
<path d="M226.442 784.654C225.729 783.346 225.023 782.035 224.324 780.719L164.331 812.915C163.815 813.195 163.429 813.666 163.257 814.227C163.086 814.788 163.142 815.394 163.414 815.914C163.603 816.274 163.89 816.575 164.241 816.781C164.592 816.988 164.994 817.093 165.402 817.084C165.775 817.096 166.145 817.008 166.473 816.83L226.442 784.654Z" fill="#E0E0E0"/>
<path d="M209.649 750.089C210.239 751.464 210.836 752.836 211.441 754.204L50.2768 824.152C49.981 824.252 49.6711 824.304 49.359 824.305C48.8527 824.29 48.3664 824.105 47.9791 823.779C47.5918 823.454 47.3263 823.007 47.2258 822.512C47.1254 822.017 47.1958 821.503 47.4258 821.053C47.6557 820.603 48.0315 820.244 48.4922 820.034L209.649 750.089Z" fill="#E0E0E0"/>
<path d="M198.959 722.451C198.47 721.035 197.988 719.616 197.514 718.193L132.923 740.104C132.407 740.265 131.966 740.605 131.682 741.064C131.397 741.522 131.289 742.068 131.375 742.6C131.462 743.132 131.739 743.615 132.154 743.959C132.57 744.304 133.096 744.488 133.636 744.477L134.35 744.375L198.959 722.451Z" fill="#E0E0E0"/>
<path d="M188.11 685.498C188.461 686.942 188.819 688.382 189.185 689.819L18.5066 732.427L17.9967 732.529C17.4914 732.521 17.0025 732.348 16.6061 732.036C16.2096 731.723 15.9277 731.289 15.8043 730.8C15.6654 730.227 15.7589 729.622 16.0644 729.118C16.3699 728.613 16.8627 728.249 17.4359 728.105L188.11 685.498Z" fill="#E0E0E0"/>
<path d="M182.177 656.57C181.93 655.1 181.691 653.628 181.461 652.154L113.966 663.175C113.433 663.287 112.958 663.59 112.632 664.026C112.306 664.461 112.15 665.001 112.194 665.543C112.238 666.085 112.478 666.593 112.87 666.971C113.262 667.349 113.778 667.572 114.323 667.598H114.68L182.177 656.57Z" fill="#E0E0E0"/>
<path d="M177.594 618.391C177.702 619.876 177.818 621.359 177.942 622.839L2.39641 636.785H2.24345C1.64845 636.785 1.07782 636.55 0.657091 636.13C0.236363 635.711 0 635.142 0 634.548C0 633.955 0.236363 633.386 0.657091 632.966C1.07782 632.547 1.64845 632.311 2.24345 632.311L177.594 618.391Z" fill="#E0E0E0"/>
<path d="M176.489 588.859L176.488 588C176.488 586.794 176.493 585.589 176.504 584.385L107.996 584.16C107.401 584.16 106.83 584.396 106.409 584.815C105.988 585.235 105.752 585.804 105.752 586.397C105.752 586.991 105.988 587.56 106.409 587.979C106.83 588.399 107.401 588.634 107.996 588.634L176.489 588.859Z" fill="#E0E0E0"/>
<path d="M178.178 550.457C178.045 551.928 177.92 553.401 177.802 554.877L2.34898 539.774C2.05803 539.755 1.77396 539.677 1.51417 539.545C1.25438 539.413 1.02435 539.23 0.838182 539.006C0.652006 538.782 0.513606 538.523 0.43146 538.244C0.349316 537.965 0.325158 537.672 0.360465 537.384C0.412449 536.799 0.692827 536.258 1.14113 535.878C1.58943 535.497 2.16973 535.308 2.75688 535.35L178.178 550.457Z" fill="#E0E0E0"/>
<path d="M181.9 521.1C182.139 519.637 182.387 518.175 182.641 516.716L115.237 505.249C114.945 505.198 114.647 505.205 114.358 505.27C114.069 505.334 113.796 505.455 113.555 505.625C113.313 505.795 113.107 506.011 112.95 506.261C112.792 506.511 112.686 506.789 112.636 507.08C112.586 507.367 112.593 507.662 112.658 507.947C112.723 508.232 112.845 508.5 113.016 508.737C113.187 508.974 113.404 509.175 113.654 509.327C113.904 509.479 114.182 509.579 114.472 509.622L181.9 521.1Z" fill="#E0E0E0"/>
<path d="M189.873 483.516C189.496 484.956 189.127 486.398 188.765 487.844L18.4103 444.134C18.121 444.063 17.8489 443.935 17.6097 443.758C17.3705 443.581 17.1691 443.358 17.0172 443.102C16.8653 442.846 16.766 442.563 16.725 442.269C16.6841 441.975 16.7023 441.675 16.7787 441.388C16.8498 441.106 16.9766 440.841 17.1516 440.609C17.3266 440.376 17.5464 440.181 17.798 440.034C18.0496 439.887 18.3281 439.792 18.6171 439.754C18.906 439.716 19.1998 439.735 19.481 439.812L189.873 483.516Z" fill="#E0E0E0"/>
<path d="M198.361 455.294C198.837 453.896 199.321 452.5 199.812 451.108L135.229 428.727C134.668 428.532 134.052 428.567 133.517 428.824C132.982 429.082 132.571 429.54 132.374 430.1C132.278 430.373 132.238 430.663 132.255 430.953C132.272 431.242 132.347 431.525 132.475 431.785C132.604 432.046 132.782 432.278 133.001 432.469C133.22 432.659 133.475 432.805 133.751 432.896L198.361 455.294Z" fill="#E0E0E0"/>
<path d="M50.0058 352.407L210.686 423.515C211.293 422.126 211.906 420.741 212.528 419.361L51.8414 348.289C51.2924 348.065 50.6778 348.062 50.1265 348.28C49.5751 348.498 49.1299 348.92 48.8841 349.458C48.6426 349.998 48.625 350.611 48.8352 351.163C49.0453 351.716 49.4662 352.163 50.0058 352.407Z" fill="#E0E0E0"/>
<path d="M225.624 392.854C226.336 391.535 227.054 390.221 227.78 388.911L168.014 356.323C167.484 356.049 166.869 355.992 166.298 356.162C165.727 356.333 165.245 356.719 164.954 357.238C164.813 357.494 164.724 357.776 164.694 358.067C164.663 358.358 164.692 358.652 164.777 358.931C164.863 359.211 165.004 359.471 165.192 359.695C165.38 359.92 165.611 360.104 165.872 360.238L225.624 392.854Z" fill="#E0E0E0"/>
<path d="M552.707 177.916L546.584 111.452C546.558 111.158 546.474 110.872 546.337 110.61C546.2 110.348 546.012 110.116 545.785 109.927C545.557 109.738 545.294 109.596 545.012 109.508C544.729 109.421 544.431 109.391 544.136 109.418C543.843 109.444 543.558 109.527 543.298 109.665C543.038 109.802 542.808 109.99 542.623 110.218C542.437 110.446 542.3 110.708 542.218 110.99C542.136 111.272 542.112 111.568 542.148 111.859L548.266 178.32C549.744 178.177 551.224 178.042 552.707 177.916Z" fill="#E0E0E0"/>
<path d="M488.464 10.7287L518.782 182.239C517.318 182.488 515.857 182.744 514.398 183.008L484.079 11.4914C484.021 11.2038 484.02 10.9074 484.079 10.6198C484.137 10.3321 484.253 10.0592 484.42 9.81721C484.586 9.57522 484.8 9.36915 485.048 9.21128C485.296 9.0534 485.574 8.94695 485.864 8.89827C486.155 8.84721 486.454 8.85412 486.743 8.9186C487.031 8.98308 487.304 9.10386 487.546 9.27398C487.788 9.44411 487.993 9.66022 488.151 9.90988C488.308 10.1595 488.415 10.4378 488.464 10.7287Z" fill="#E0E0E0"/>
<path d="M485.177 189.41L468.069 124.723C467.998 124.436 467.87 124.166 467.691 123.929C467.513 123.692 467.288 123.495 467.031 123.347C466.773 123.2 466.488 123.106 466.194 123.072C465.899 123.037 465.6 123.063 465.315 123.147C464.752 123.302 464.271 123.671 463.976 124.174C463.681 124.678 463.594 125.276 463.735 125.842L480.849 190.551C482.288 190.163 483.731 189.782 485.177 189.41Z" fill="#E0E0E0"/>
<path d="M394.23 35.0324L452.57 199.279C451.158 199.771 449.751 200.271 448.346 200.778L389.998 36.507C389.831 35.9548 389.884 35.3594 390.146 34.8453C390.408 34.3311 390.86 33.9378 391.406 33.7475C391.952 33.5572 392.551 33.5847 393.077 33.8241C393.603 34.0635 394.017 34.4964 394.23 35.0324Z" fill="#E0E0E0"/>
<path d="M420.756 211.891L393.109 150.706C393.004 150.415 392.841 150.15 392.628 149.925C392.416 149.701 392.159 149.522 391.875 149.402C391.59 149.281 391.283 149.22 390.973 149.223C390.664 149.227 390.358 149.294 390.076 149.42C389.794 149.547 389.541 149.731 389.333 149.959C389.126 150.188 388.968 150.457 388.87 150.75C388.771 151.043 388.735 151.353 388.762 151.66C388.79 151.967 388.881 152.266 389.03 152.536L416.682 213.733C418.036 213.112 419.394 212.498 420.756 211.891Z" fill="#E0E0E0"/>
<path d="M305.325 74.5395L390.154 227.088C388.846 227.807 387.542 228.532 386.243 229.265L301.399 76.675C301.124 76.1472 301.067 75.5337 301.238 74.9643C301.409 74.3948 301.796 73.9142 302.317 73.6243C302.838 73.3531 303.446 73.297 304.009 73.4682C304.571 73.6394 305.044 74.0241 305.325 74.5395Z" fill="#E0E0E0"/>
<path d="M360.934 244.765L323.418 188.787C323.086 188.295 322.573 187.955 321.989 187.84C321.406 187.726 320.801 187.847 320.308 188.177C320.058 188.336 319.843 188.544 319.676 188.788C319.51 189.032 319.394 189.307 319.337 189.597C319.28 189.887 319.282 190.185 319.344 190.474C319.405 190.763 319.525 191.037 319.696 191.278L357.218 247.258C358.452 246.42 359.69 245.589 360.934 244.765Z" fill="#E0E0E0"/>
<path d="M224.202 128.079L333.281 264.794C332.105 265.723 330.934 266.657 329.768 267.598L220.684 130.876C220.312 130.411 220.141 129.817 220.208 129.226C220.275 128.635 220.574 128.094 221.041 127.723C221.507 127.353 222.103 127.182 222.695 127.249C223.288 127.315 223.83 127.614 224.202 128.079Z" fill="#E0E0E0"/>
<path d="M307.364 287.047L260.803 237.702C260.599 237.489 260.353 237.321 260.082 237.205C259.81 237.09 259.518 237.03 259.223 237.03C258.927 237.03 258.635 237.09 258.364 237.205C258.092 237.321 257.847 237.489 257.642 237.702C257.225 238.121 256.991 238.687 256.991 239.278C256.991 239.868 257.225 240.435 257.642 240.854L304.117 290.108C305.194 289.082 306.276 288.061 307.364 287.047Z" fill="#E0E0E0"/>
<path d="M159.44 187.517L287.831 306.525C286.816 307.607 285.807 308.695 284.804 309.788L156.279 190.669C155.874 190.244 155.648 189.679 155.648 189.093C155.648 188.506 155.874 187.942 156.279 187.517C156.699 187.1 157.268 186.867 157.86 186.867C158.452 186.867 159.02 187.1 159.44 187.517Z" fill="#E0E0E0"/>
<path d="M265.626 332.232L212.307 290.429C212.08 290.246 211.819 290.109 211.539 290.028C211.26 289.947 210.966 289.922 210.677 289.955C210.387 289.988 210.107 290.079 209.853 290.221C209.599 290.364 209.375 290.555 209.196 290.784C209.011 291.014 208.874 291.279 208.792 291.562C208.71 291.845 208.684 292.142 208.718 292.435C208.751 292.728 208.842 293.011 208.985 293.269C209.128 293.527 209.322 293.754 209.553 293.937L262.87 335.739C263.783 334.565 264.701 333.396 265.626 332.232Z" fill="#E0E0E0"/>
<path d="M655.275 181.817C653.772 181.572 652.266 181.334 650.757 181.104L678.132 9.10194C678.232 8.51134 678.561 7.98349 679.047 7.63174C679.533 7.27999 680.138 7.1324 680.732 7.22067C681.022 7.26376 681.3 7.36426 681.55 7.51625C681.8 7.66823 682.017 7.86862 682.188 8.10558C682.359 8.34254 682.481 8.61127 682.546 8.89593C682.611 9.18058 682.619 9.47538 682.568 9.76293L655.275 181.817Z" fill="#E0E0E0"/>
<path d="M684.309 187.647C685.753 187.992 687.194 188.344 688.631 188.704L704.596 123.707C704.707 123.41 704.753 123.093 704.731 122.776C704.709 122.46 704.62 122.151 704.47 121.872C704.32 121.592 704.112 121.348 703.859 121.155C703.607 120.961 703.316 120.824 703.007 120.751C702.697 120.679 702.376 120.672 702.063 120.733C701.751 120.794 701.456 120.92 701.196 121.104C700.936 121.287 700.719 121.523 700.558 121.797C700.397 122.071 700.296 122.375 700.262 122.691L684.309 187.647Z" fill="#E0E0E0"/>
<path d="M717.249 196.984C718.67 197.452 720.087 197.928 721.501 198.41L776.952 33.3551C777.047 33.0747 777.086 32.7782 777.066 32.4828C777.046 32.1873 776.967 31.8988 776.834 31.634C776.701 31.3691 776.517 31.1331 776.292 30.9398C776.067 30.7465 775.806 30.5996 775.524 30.5077C774.982 30.3226 774.39 30.3511 773.868 30.5875C773.347 30.8238 772.936 31.2501 772.72 31.7789L717.249 196.984Z" fill="#E0E0E0"/>
<path d="M753.35 210.795C751.981 210.196 750.608 209.603 749.231 209.019L775.765 147.451C775.883 147.18 776.052 146.936 776.264 146.731C776.476 146.525 776.727 146.364 777.001 146.255C777.276 146.147 777.569 146.093 777.864 146.098C778.16 146.102 778.451 146.165 778.723 146.281C778.994 146.398 779.239 146.567 779.445 146.779C779.651 146.99 779.812 147.24 779.921 147.514C780.03 147.788 780.084 148.08 780.08 148.375C780.075 148.669 780.013 148.96 779.895 149.23L753.35 210.795Z" fill="#E0E0E0"/>
<path d="M780.164 223.713C781.469 224.401 782.771 225.096 784.068 225.798L866.223 71.8444C866.498 71.3166 866.555 70.7031 866.384 70.1336C866.213 69.5642 865.826 69.0836 865.306 68.7937C864.784 68.5224 864.176 68.4664 863.614 68.6376C863.051 68.8088 862.578 69.1935 862.297 69.7089L780.164 223.713Z" fill="#E0E0E0"/>
<path d="M809.778 240.94L846.395 184.263C846.718 183.777 847.218 183.436 847.789 183.313C848.361 183.189 848.958 183.293 849.454 183.602C849.708 183.757 849.927 183.962 850.099 184.204C850.271 184.446 850.391 184.721 850.453 185.011C850.515 185.301 850.517 185.601 850.46 185.892C850.402 186.183 850.285 186.459 850.117 186.704L813.541 243.373C812.291 242.555 811.036 241.744 809.778 240.94Z" fill="#E0E0E0"/>
<path d="M966.967 293.427L913.48 335.434C912.56 334.253 911.634 333.077 910.702 331.906L964.163 289.919C964.629 289.548 965.224 289.377 965.817 289.444C966.41 289.511 966.952 289.809 967.324 290.275C967.696 290.74 967.867 291.333 967.8 291.925C967.733 292.516 967.434 293.056 966.967 293.427Z" fill="#E0E0E0"/>
<path d="M891.349 309.315L1019.69 189.958C1019.9 189.754 1020.07 189.509 1020.18 189.238C1020.3 188.968 1020.36 188.676 1020.36 188.382C1020.36 188.087 1020.3 187.796 1020.18 187.525C1020.07 187.254 1019.9 187.01 1019.69 186.806C1019.26 186.401 1018.69 186.176 1018.1 186.176C1017.52 186.176 1016.95 186.401 1016.52 186.806L888.264 306.002C889.298 307.1 890.327 308.205 891.349 309.315Z" fill="#E0E0E0"/>
<path d="M864.009 282.265C865.11 283.257 866.205 284.255 867.295 285.259L912.783 235.363C912.996 235.159 913.165 234.914 913.281 234.643C913.396 234.372 913.456 234.081 913.456 233.787C913.456 233.492 913.396 233.201 913.281 232.93C913.165 232.659 912.996 232.414 912.783 232.21C912.363 231.794 911.794 231.561 911.202 231.561C910.61 231.561 910.042 231.794 909.622 232.21L864.009 282.265Z" fill="#E0E0E0"/>
<path d="M1080.27 167.334L1069.82 117.658L1042.54 135.403L1060.54 108.252L1010.73 97.8285L1060.54 87.3544L1042.75 60.2031L1070.03 77.9481L1080.48 28.3231L1090.68 77.9481L1117.95 60.2031L1100.16 87.3544L1149.97 97.8285L1100.16 108.252L1117.95 135.403L1090.68 117.658L1080.27 167.334Z" fill="#E0E0E0"/>
<path d="M1152.94 254.585C1161.22 254.585 1167.93 247.892 1167.93 239.636C1167.93 231.381 1161.22 224.688 1152.94 224.688C1144.66 224.688 1137.95 231.381 1137.95 239.636C1137.95 247.892 1144.66 254.585 1152.94 254.585Z" fill="#E0E0E0"/>
<path d="M11.5227 929.396C14.359 931.289 17.6949 932.299 21.1078 932.299C25.6609 932.299 30.0289 930.503 33.258 927.302C36.487 924.101 38.3146 919.755 38.3416 915.215C38.3617 911.812 37.3682 908.479 35.4868 905.64C33.6055 902.8 30.9211 900.582 27.7738 899.266C24.6266 897.949 21.1583 897.594 17.8086 898.246C14.4589 898.897 11.3786 900.526 8.95819 902.925C6.5378 905.325 4.88628 908.387 4.21301 911.723C3.53973 915.06 3.87501 918.52 5.17634 921.667C6.47768 924.813 8.68646 927.503 11.5227 929.396Z" fill="#E0E0E0"/>
<path d="M127.623 1081.94C127.623 1101.23 111.94 1116.87 92.5947 1116.87C73.249 1116.87 57.5663 1101.23 57.5663 1081.94C57.5663 1062.65 73.249 1047.01 92.5947 1047.01C111.94 1047.01 127.623 1062.65 127.623 1081.94Z" fill="#E0E0E0"/>
<path fill-rule="evenodd" clip-rule="evenodd" d="M825.641 450.491L589.467 314.582C589.184 314.406 588.857 314.313 588.523 314.313C588.19 314.313 587.863 314.406 587.58 314.582L351.355 450.44C351.057 450.606 350.808 450.85 350.638 451.146C350.467 451.441 350.38 451.777 350.387 452.118V453.542C350.238 453.745 350.118 453.967 350.03 454.203C349.956 454.491 349.949 454.793 350.011 455.084C350.073 455.375 350.202 455.648 350.387 455.881V720.836C350.206 721.061 350.08 721.326 350.018 721.608C349.956 721.89 349.96 722.182 350.03 722.463C350.117 722.714 350.237 722.954 350.387 723.175V723.886C350.389 724.219 350.481 724.544 350.651 724.83C350.821 725.116 351.064 725.352 351.355 725.513L587.121 861.169C587.492 861.484 587.96 861.663 588.447 861.677C588.827 861.692 589.203 861.585 589.518 861.372L825.641 725.513C825.932 725.352 826.175 725.116 826.345 724.83C826.515 724.544 826.607 724.219 826.609 723.886V452.118C826.618 451.784 826.531 451.454 826.36 451.166C826.189 450.878 825.939 450.644 825.641 450.491ZM583.144 321.497L504.777 452.83H354.822L583.144 321.497ZM427.582 589.299H582.431L357.219 716.921L427.582 589.299ZM427.582 585.486L357.27 459.898L580.136 585.486H427.582ZM582.787 593.57L504.777 720.124H359.054L582.787 593.57ZM359.054 456.593H506.459L582.634 582.587L359.054 456.593ZM353.956 462.135L423.91 587.621L353.956 714.734V462.135ZM355.842 723.886H504.777L583.042 854.457L355.842 723.886ZM586.357 852.983L508.091 722.005L586.357 594.231V852.983ZM586.357 581.774L509.161 453.745C509.106 453.581 508.999 453.438 508.856 453.339L586.357 323.124V581.774ZM821.97 452.83H671.506L593.699 321.344L821.97 452.83ZM594.464 589.299H749.975L819.879 716.921L594.464 589.299ZM817.534 720.124H671.761L593.903 593.316L817.534 720.124ZM593.801 582.842L670.282 456.593H817.687L593.801 582.842ZM749.72 585.486H596.554L819.777 459.643L749.72 585.486ZM590.334 323.175L667.529 453.542L590.436 581.062L590.334 323.175ZM590.334 594.739L668.344 721.853L590.334 853.034V594.739ZM593.801 854.559L671.506 723.886H820.899L593.801 854.559ZM822.836 714.582L753.086 587.163L822.836 461.982V714.582Z" fill="#E0E0E0"/>
<path fill-rule="evenodd" clip-rule="evenodd" d="M412.059 850.959C464.212 885.754 525.54 904.346 588.288 904.386C672.433 904.333 753.121 870.993 812.644 811.683C872.168 752.373 905.666 671.938 905.787 588.027C905.797 525.454 887.202 464.282 852.352 412.246C817.503 360.211 767.963 319.648 709.998 295.686C652.033 271.724 588.244 265.438 526.697 277.625C465.15 289.811 408.609 319.922 364.221 364.151C319.833 408.379 289.593 464.739 277.323 526.105C265.053 587.47 271.304 651.086 295.287 708.909C319.269 766.732 359.906 816.165 412.059 850.959ZM414.571 328.786C465.978 294.479 526.432 276.142 588.288 276.091C671.257 276.145 750.816 309.019 809.508 367.499C868.199 425.98 901.23 505.29 901.351 588.027C901.351 649.711 883.012 710.011 848.651 761.303C814.291 812.595 765.452 852.577 708.308 876.194C651.165 899.811 588.283 906.003 527.611 893.988C466.939 881.972 411.202 852.288 367.445 808.689C323.688 765.089 293.875 709.531 281.777 649.039C269.678 588.546 275.837 525.834 299.473 468.831C323.11 411.827 363.163 363.092 414.571 328.786Z" fill="#E0E0E0"/>
</g>
</svg>
