<svg width="24" height="24" viewBox="0 0 24 24" fill="none" xmlns="http://www.w3.org/2000/svg">
<path fill-rule="evenodd" clip-rule="evenodd" d="M22.5 21.4425L16.8375 15.75C19.6495 12.3571 19.2986 7.35327 16.0406 4.38604C12.7826 1.4188 7.76786 1.53585 4.65186 4.65186C1.53585 7.76786 1.4188 12.7826 4.38604 16.0406C7.35327 19.2986 12.3571 19.6495 15.75 16.8375L21.4425 22.5L22.5 21.4425ZM3.74997 10.5C3.74997 6.77205 6.77205 3.74997 10.5 3.74997C14.2279 3.74997 17.25 6.77205 17.25 10.5C17.25 14.2279 14.2279 17.25 10.5 17.25C6.77205 17.25 3.74997 14.2279 3.74997 10.5Z" fill="white"/>
<mask id="mask0" mask-type="alpha" maskUnits="userSpaceOnUse" x="2" y="2" width="21" height="21">
<path fill-rule="evenodd" clip-rule="evenodd" d="M22.5 21.4425L16.8375 15.75C19.6495 12.3571 19.2986 7.35327 16.0406 4.38604C12.7826 1.4188 7.76786 1.53585 4.65186 4.65186C1.53585 7.76786 1.4188 12.7826 4.38604 16.0406C7.35327 19.2986 12.3571 19.6495 15.75 16.8375L21.4425 22.5L22.5 21.4425ZM3.74997 10.5C3.74997 6.77205 6.77205 3.74997 10.5 3.74997C14.2279 3.74997 17.25 6.77205 17.25 10.5C17.25 14.2279 14.2279 17.25 10.5 17.25C6.77205 17.25 3.74997 14.2279 3.74997 10.5Z" fill="white"/>
</mask>
<g mask="url(#mask0)">
</g>
</svg>
