<svg width="87" height="94" viewBox="0 0 87 94" fill="none" xmlns="http://www.w3.org/2000/svg">
<path fill-rule="evenodd" clip-rule="evenodd" d="M14.9702 21.5243L15.7379 25.196L16.5056 21.5243L18.5209 22.8274L17.2042 20.8153L20.8854 20.0487L17.2042 19.2822L18.5209 17.2701L16.5056 18.5847L15.7379 14.913L14.9702 18.5847L12.955 17.2816L14.2716 19.2937L10.5905 20.0602L14.2716 20.8268L12.955 22.8389L14.9702 21.5243Z" fill="#828282"/>
<path d="M70.9512 74.6029L74.0872 73.9475L70.9512 73.2883L71.9646 71.7552L70.4291 72.7632L69.7689 69.6357L69.0933 72.7517L67.5579 71.7437L68.5713 73.2768L65.4352 73.936L68.5713 74.5914L67.5579 76.1245L69.0933 75.1126L69.7536 78.2439L70.4138 75.1126L71.9492 76.1245L70.9512 74.6029Z" fill="#828282"/>
<path d="M69.7536 79.0871L68.9859 75.4154L66.9668 76.73L68.2834 74.7179L64.6061 73.9513L68.2834 73.1848L66.9668 71.1726L68.9859 72.4872L69.7536 68.8156L70.5213 72.4872L72.5403 71.1726L71.2237 73.1848L74.901 73.9513L71.2237 74.7179L72.548 76.73L70.5289 75.4154L69.7536 79.0871ZM69.2085 74.8712L69.7536 77.4544L70.2986 74.8712L71.3811 75.5764L70.6748 74.4956L73.2658 73.9513L70.6748 73.4071L71.3964 72.3224L70.314 73.0276L69.7689 70.4444L69.2238 73.0276L68.1375 72.3224L68.8477 73.4033L66.2567 73.9475L68.8477 74.4917L68.1375 75.5725L69.2085 74.8712Z" fill="#828282"/>
<path fill-rule="evenodd" clip-rule="evenodd" d="M42.7451 94C39.1791 94 35.7245 92.7505 32.4732 90.2861C29.79 88.2513 27.3412 85.4778 25.1775 81.9921L23.7253 84.7978C23.711 84.8249 23.6894 84.8476 23.663 84.8631C23.6365 84.8787 23.6063 84.8866 23.5756 84.8859C23.5505 84.893 23.5239 84.893 23.4988 84.8859C23.4592 84.8655 23.4293 84.8302 23.4157 84.7879C23.402 84.7455 23.4057 84.6995 23.4259 84.6598L24.976 81.664C24.8017 81.3773 24.6294 81.0859 24.4589 80.7899C22.8904 79.9447 21.378 78.9893 19.9339 77.9286L17.6182 81.0149C17.6019 81.0349 17.5815 81.0511 17.5582 81.0624C17.535 81.0736 17.5096 81.0797 17.4838 81.0801C17.4483 81.0799 17.4135 81.0692 17.384 81.0494C17.366 81.0362 17.3508 81.0195 17.3393 81.0003C17.3278 80.9812 17.3202 80.9599 17.317 80.9378C17.3138 80.9157 17.315 80.8932 17.3206 80.8715C17.3262 80.8499 17.336 80.8296 17.3495 80.8118L19.6633 77.728C18.2132 76.6433 16.8336 75.4515 15.5369 74.1578C15.3576 73.9789 15.1803 73.7984 15.0049 73.6164L12.2212 76.2701C12.1897 76.3022 12.1472 76.3213 12.1022 76.3237C12.08 76.3241 12.058 76.3198 12.0375 76.3112C12.017 76.3027 11.9986 76.2899 11.9832 76.2739C11.9672 76.2585 11.9545 76.2401 11.9458 76.2197C11.937 76.1992 11.9326 76.1773 11.9326 76.1551C11.9326 76.1329 11.937 76.1109 11.9458 76.0905C11.9545 76.0701 11.9672 76.0517 11.9832 76.0363L14.7744 73.3751C13.3421 71.8627 12.0439 70.2457 10.8873 68.5426L7.67641 70.7204C7.64869 70.7375 7.61686 70.7467 7.58429 70.7472C7.54849 70.747 7.5137 70.7354 7.48493 70.7141C7.45616 70.6929 7.4349 70.663 7.42422 70.6289C7.41354 70.5948 7.414 70.5582 7.42552 70.5243C7.43704 70.4905 7.45904 70.4612 7.48833 70.4406L10.6992 68.2629C9.54976 66.538 8.54453 64.7268 7.69131 62.8482L4.11812 64.4885C4.09664 64.499 4.07295 64.5043 4.04902 64.5038C4.01654 64.5037 3.98479 64.4942 3.95755 64.4766C3.93032 64.4589 3.90877 64.4337 3.89548 64.4042C3.88595 64.3841 3.88057 64.3623 3.87967 64.3401C3.87878 64.3179 3.88238 64.2958 3.89027 64.275C3.89816 64.2543 3.91017 64.2353 3.92557 64.2193C3.94098 64.2033 3.95947 64.1906 3.97993 64.1819L7.55352 62.5412C6.71703 60.6558 6.03291 58.7039 5.50899 56.7046L1.63844 57.7545L1.59622 57.7621C1.55917 57.7621 1.52313 57.7501 1.49341 57.728C1.46369 57.706 1.44186 57.6749 1.43116 57.6395C1.42535 57.6181 1.42382 57.5958 1.42665 57.5738C1.42949 57.5518 1.43664 57.5306 1.44769 57.5114C1.45874 57.4922 1.47348 57.4753 1.49106 57.4618C1.50864 57.4482 1.52872 57.4383 1.55016 57.4325L5.42568 56.3809C4.92345 54.3939 4.57906 52.3612 4.40016 50.3012L0.306472 50.71H0.287279C0.242485 50.71 0.199526 50.6922 0.167852 50.6606C0.136179 50.629 0.118384 50.5861 0.118384 50.5414C0.118384 50.4967 0.136179 50.4538 0.167852 50.4221C0.199526 50.3905 0.242485 50.3727 0.287279 50.3727L4.37245 49.965C4.29578 48.982 4.25679 47.993 4.25629 47H4.26782C4.26917 45.9355 4.31479 44.8744 4.40389 43.8193L0.156764 43.5391C0.134585 43.5376 0.11292 43.5317 0.0930076 43.5219C0.0730951 43.512 0.0553245 43.4983 0.0407105 43.4816C0.0260964 43.4649 0.0149252 43.4454 0.00783459 43.4244C0.000743963 43.4033 -0.00212719 43.3811 -0.000614949 43.359C0.000897295 43.3368 0.00676332 43.3152 0.0166482 43.2953C0.0265331 43.2754 0.0402433 43.2577 0.0569959 43.2431C0.0737486 43.2285 0.0932156 43.2174 0.114286 43.2103C0.135356 43.2032 0.157616 43.2003 0.179795 43.2018L4.43382 43.4826C4.62419 41.4427 4.97718 39.4263 5.48706 37.452L1.19699 36.441C1.17318 36.4385 1.15019 36.4309 1.12953 36.4188C1.10888 36.4067 1.09104 36.3903 1.07719 36.3708C1.06335 36.3513 1.05382 36.3291 1.04923 36.3056C1.04464 36.2822 1.04511 36.258 1.05059 36.2347C1.05608 36.2114 1.06646 36.1896 1.08104 36.1706C1.09563 36.1517 1.11409 36.136 1.13519 36.1247C1.15629 36.1134 1.17956 36.1067 1.20346 36.1051C1.22735 36.1035 1.25131 36.1069 1.27376 36.1152L5.572 37.1289C6.09786 35.1636 6.77962 33.2412 7.61163 31.3804L3.39263 29.6112C3.35227 29.5935 3.32044 29.5607 3.30394 29.5199C3.28745 29.4791 3.28759 29.4335 3.30434 29.3927C3.31272 29.3725 3.32507 29.354 3.34066 29.3386C3.35626 29.3231 3.37479 29.3109 3.39517 29.3027C3.41555 29.2945 3.43737 29.2905 3.45934 29.2908C3.48132 29.2911 3.503 29.2958 3.52314 29.3046L7.74979 31.075C8.58996 29.2391 9.57713 27.4647 10.7058 25.7696L6.69377 23.2413C6.67313 23.2296 6.65518 23.2137 6.6411 23.1947C6.62703 23.1756 6.61713 23.1538 6.61206 23.1306C6.60699 23.1075 6.60686 23.0835 6.61168 23.0603C6.6165 23.0371 6.62616 23.0152 6.64003 22.996C6.66438 22.9595 6.70175 22.9336 6.74454 22.9236C6.78733 22.9137 6.83231 22.9204 6.87034 22.9423L10.8995 25.4816C12.0358 23.8081 13.2976 22.2338 14.6708 20.7705L10.9967 17.4961C10.9785 17.4818 10.9635 17.4639 10.9525 17.4435C10.9415 17.4231 10.9348 17.4007 10.9329 17.3777C10.931 17.3546 10.9338 17.3314 10.9413 17.3095C10.9487 17.2876 10.9606 17.2674 10.9762 17.2503C10.9917 17.2331 11.0107 17.2194 11.0318 17.2099C11.0529 17.2004 11.0758 17.1953 11.099 17.195C11.1221 17.1947 11.1451 17.1991 11.1665 17.2081C11.1879 17.217 11.2072 17.2303 11.2232 17.247L14.9023 20.5259C15.0763 20.3437 15.2521 20.1632 15.4296 19.9845L4.64516 9.22409L4.88393 8.98551L15.6685 19.7461C16.6914 18.7342 17.7698 17.781 18.8985 16.8906L15.6605 12.9928C15.6464 12.9756 15.6358 12.9559 15.6293 12.9347C15.6229 12.9135 15.6206 12.8912 15.6228 12.8692C15.6249 12.8471 15.6314 12.8257 15.6418 12.8061C15.6522 12.7865 15.6664 12.7692 15.6836 12.7551C15.7007 12.741 15.7205 12.7304 15.7417 12.724C15.7629 12.7175 15.7852 12.7153 15.8073 12.7174C15.8294 12.7195 15.8509 12.726 15.8705 12.7364C15.8901 12.7468 15.9074 12.761 15.9216 12.7781L19.1648 16.6824C20.7451 15.4582 22.4218 14.3563 24.1806 13.3885L21.5411 8.85346C21.5221 8.81508 21.5184 8.77088 21.5307 8.72986C21.5431 8.68883 21.5707 8.65405 21.6078 8.63258C21.645 8.61111 21.6889 8.60457 21.7307 8.61427C21.7725 8.62397 21.809 8.6492 21.8329 8.68482L24.4625 13.203C25.7437 10.9886 27.1333 9.0277 28.6196 7.33498L28.0206 5.74902C28.0126 5.72866 28.0087 5.7069 28.0092 5.68503C28.0097 5.66316 28.0146 5.6416 28.0235 5.62163C28.0324 5.60165 28.0453 5.58364 28.0612 5.56867C28.0772 5.55369 28.096 5.54204 28.1165 5.53439C28.1372 5.52634 28.1593 5.52242 28.1814 5.52288C28.2036 5.52333 28.2255 5.52814 28.2458 5.53704C28.2661 5.54594 28.2845 5.55875 28.2999 5.57473C28.3152 5.59072 28.3273 5.60957 28.3353 5.63021L28.872 7.0512C30.0178 5.77895 31.22 4.66428 32.4732 3.71385C35.7245 1.24945 39.1791 0 42.7451 0C46.3111 0 49.7619 1.24945 53.0131 3.71385C53.9862 4.45177 54.9284 5.2887 55.8374 6.22162L56.2721 4.83299C56.2779 4.81105 56.2882 4.79053 56.3022 4.77264C56.3162 4.75475 56.3336 4.73986 56.3535 4.72888C56.3734 4.7179 56.3954 4.71104 56.418 4.70872C56.4406 4.7064 56.4635 4.70866 56.4852 4.71538C56.5069 4.72209 56.527 4.73312 56.5444 4.74779C56.5617 4.76246 56.5759 4.78048 56.5862 4.80077C56.5964 4.82106 56.6024 4.8432 56.6038 4.86586C56.6052 4.88852 56.6021 4.91123 56.5945 4.93264L56.1041 6.4991C57.6766 8.15747 59.1474 10.1064 60.5036 12.3301L62.9511 7.50438C62.9736 7.46871 63.0086 7.44274 63.0494 7.4316C63.0901 7.42046 63.1335 7.42495 63.1711 7.44419C63.2086 7.46342 63.2376 7.49601 63.2523 7.53553C63.267 7.57505 63.2664 7.61863 63.2505 7.65769L60.7079 12.6685C60.8168 12.8508 60.9249 13.035 61.0323 13.2208C62.5921 14.0608 64.094 15.0084 65.5266 16.0576L69.0697 11.2527C69.0964 11.2175 69.1359 11.1941 69.1797 11.1877C69.2235 11.1812 69.2681 11.1922 69.3038 11.2182C69.3397 11.2443 69.3639 11.2835 69.3711 11.3272C69.3782 11.371 69.3679 11.4158 69.3422 11.452L65.7981 16.2583C67.2623 17.3505 68.6525 18.5497 69.9564 19.8494C70.0409 19.9333 70.1251 20.0175 70.2088 20.1021L74.5127 15.9324C74.5281 15.9148 74.5469 15.9006 74.5681 15.8907C74.5892 15.8808 74.6122 15.8753 74.6356 15.8747C74.6589 15.8741 74.6821 15.8784 74.7038 15.8872C74.7254 15.896 74.745 15.9093 74.7612 15.926C74.7775 15.9428 74.7901 15.9627 74.7982 15.9846C74.8064 16.0065 74.8099 16.0298 74.8085 16.0531C74.8072 16.0764 74.801 16.0991 74.7904 16.1199C74.7797 16.1407 74.7649 16.1591 74.7468 16.1739L70.4446 20.3425C71.8091 21.746 73.0607 23.2494 74.1898 24.8385L79.092 21.4553C79.11 21.4403 79.131 21.4292 79.1535 21.4227C79.176 21.4163 79.1996 21.4145 79.2228 21.4177C79.2461 21.4208 79.2684 21.4287 79.2884 21.4409C79.3083 21.4532 79.3256 21.4694 79.3389 21.4886C79.3523 21.5078 79.3615 21.5296 79.366 21.5526C79.3705 21.5755 79.3701 21.5992 79.365 21.622C79.3598 21.6448 79.3499 21.6663 79.336 21.6851C79.322 21.7039 79.3043 21.7196 79.284 21.7312L74.3832 25.1134C75.5017 26.7173 76.4962 28.4065 77.3571 30.1666L82.7117 27.6565C82.752 27.6381 82.7979 27.6363 82.8396 27.6513C82.8812 27.6664 82.9153 27.6972 82.9344 27.737C82.9441 27.7571 82.9497 27.779 82.951 27.8013C82.9521 27.8236 82.9489 27.8459 82.9414 27.8669C82.9339 27.888 82.9223 27.9073 82.9073 27.9238C82.8922 27.9403 82.874 27.9537 82.8538 27.9632L77.5038 30.4699C77.7912 31.0708 78.0631 31.6798 78.3191 32.2963C78.8151 33.4909 79.249 34.7076 79.6198 35.9417L85.2452 34.3675C85.2885 34.3553 85.3348 34.3608 85.374 34.3827C85.4133 34.4046 85.4422 34.4412 85.4544 34.4844C85.4666 34.5276 85.4611 34.5739 85.4392 34.6131C85.4172 34.6522 85.3806 34.6811 85.3373 34.6933L79.7152 36.2645C80.2627 38.1468 80.6639 40.0682 80.9154 42.0113L86.6347 41.3928C86.6789 41.3885 86.7231 41.4018 86.7576 41.4298C86.7921 41.4577 86.8141 41.4982 86.819 41.5423C86.8233 41.5869 86.8102 41.6314 86.7822 41.6664C86.7543 41.7015 86.7138 41.7243 86.6693 41.7301L80.9574 42.3473C81.1428 43.888 81.2343 45.4417 81.2301 47H81.2416C81.2414 47.4179 81.2344 47.8355 81.2205 48.2525L86.8497 48.5791C86.8945 48.5791 86.9374 48.5968 86.9691 48.6285C87.0008 48.6601 87.0186 48.703 87.0186 48.7477C87.0186 48.7924 87.0008 48.8353 86.9691 48.867C86.9374 48.8986 86.8945 48.9163 86.8497 48.9163L86.8305 48.9125L81.208 48.5869C81.1251 50.5643 80.8895 52.5293 80.5045 54.4647L85.8593 55.681C85.9024 55.6911 85.9397 55.7176 85.9634 55.7548C85.9871 55.7921 85.9952 55.8372 85.986 55.8803C85.9767 55.9172 85.9555 55.9499 85.9257 55.9735C85.8958 55.997 85.859 56.0101 85.821 56.0106H85.7826L80.437 54.7963C80.0339 56.7334 79.4809 58.6398 78.7814 60.4979L83.7136 62.5185C83.7481 62.5341 83.7763 62.5609 83.7937 62.5944C83.8111 62.628 83.8167 62.6664 83.8096 62.7036C83.8026 62.7407 83.7832 62.7744 83.7546 62.7992C83.7261 62.824 83.69 62.8385 83.6522 62.8404V62.8558C83.6306 62.8597 83.6085 62.8597 83.587 62.8558L78.654 60.8316C78.5414 61.1225 78.4252 61.4123 78.3053 61.7007C77.6602 63.2537 76.9151 64.7593 76.076 66.2085L80.4662 68.9267C80.5045 68.9505 80.5319 68.9883 80.5426 69.0319C80.5534 69.0756 80.5466 69.1217 80.5238 69.1605C80.5071 69.1835 80.4852 69.2021 80.4598 69.2147C80.4344 69.2274 80.4063 69.2338 80.3779 69.2333C80.347 69.2335 80.3166 69.2256 80.2896 69.2103L75.9071 66.4974C74.8853 68.2272 73.7289 69.8752 72.448 71.4258L76.2016 74.7179C76.207 74.7227 76.2119 74.7279 76.2166 74.7334C76.2189 74.7362 76.2211 74.7391 76.2233 74.742L76.226 74.7459L76.2276 74.7484C76.2301 74.7522 76.2325 74.7561 76.2347 74.7601C76.2367 74.7639 76.2386 74.7678 76.2404 74.7718C76.2494 74.7922 76.2541 74.8143 76.2541 74.8367C76.2541 74.859 76.2494 74.8811 76.2404 74.9016C76.2314 74.9221 76.2182 74.9404 76.2016 74.9555C76.1719 74.9812 76.1335 74.9949 76.0942 74.9938C76.053 74.9945 76.0132 74.9794 75.9828 74.9517L72.2419 71.6732C71.5558 72.4897 70.835 73.2786 70.0809 74.0377L80.8468 84.7796L80.608 85.0182L69.8419 74.2761C69.2517 74.8598 68.6435 75.4235 68.0183 75.9665L71.0657 79.6965C71.0933 79.7314 71.1063 79.7756 71.102 79.8199C71.0977 79.8642 71.0765 79.9051 71.0427 79.9341C71.0074 79.9606 70.964 79.9741 70.9198 79.9724C70.8945 79.9726 70.8695 79.9667 70.8468 79.9554C70.8241 79.9441 70.8044 79.9276 70.7893 79.9073L67.756 76.1924C66.2126 77.5087 64.5685 78.7001 62.8396 79.7559L65.1352 83.7745C65.1575 83.8131 65.1636 83.859 65.152 83.9021C65.1405 83.9452 65.1124 83.982 65.0738 84.0044C65.0482 84.0195 65.019 84.0275 64.9893 84.0274C64.9597 84.0273 64.9307 84.0195 64.9051 84.0047C64.8795 83.9899 64.8582 83.9687 64.8435 83.9431L62.5513 79.9302C62.0479 80.2316 61.5374 80.5216 61.0203 80.7999C60.0856 82.4161 59.0933 83.8969 58.0478 85.2368L58.6327 86.8253C58.6406 86.8459 58.6443 86.8679 58.6436 86.8899C58.6428 86.912 58.6376 86.9336 58.6283 86.9537C58.619 86.9737 58.6058 86.9916 58.5894 87.0064C58.573 87.0213 58.5538 87.0326 58.5329 87.0399C58.5214 87.0446 58.5094 87.0479 58.4971 87.0498C58.4887 87.051 58.4801 87.0516 58.4715 87.0514C58.4369 87.0517 58.4031 87.0411 58.3749 87.0211C58.3466 87.0012 58.3254 86.9729 58.3141 86.9402L57.8016 85.5485C56.3074 87.4171 54.707 89.0016 53.0131 90.2861C49.7619 92.7505 46.3073 94 42.7451 94ZM42.7451 93.6627C36.0674 93.6627 29.9705 89.1041 25.3666 81.6269L25.5159 81.3385C27.3677 82.2636 29.2918 83.0383 31.2691 83.6546L30.055 87.427C30.0416 87.4692 30.0454 87.5149 30.0655 87.5544C30.0856 87.5938 30.1204 87.6238 30.1624 87.6378H30.2162C30.2521 87.6372 30.2869 87.6254 30.3158 87.6041C30.3447 87.5828 30.3662 87.5531 30.3774 87.519L31.5898 83.753C33.5607 84.3485 35.5831 84.7872 37.6385 85.0613L37.0526 89.0673C37.0488 89.0893 37.0495 89.1118 37.0546 89.1335C37.0598 89.1552 37.0693 89.1756 37.0826 89.1935C37.0958 89.2114 37.1126 89.2264 37.1319 89.2377C37.1511 89.249 37.1725 89.2562 37.1946 89.259H37.233C37.2712 89.2552 37.307 89.2388 37.3348 89.2124C37.3626 89.186 37.3808 89.1512 37.3865 89.1133L37.9729 85.1044C39.5478 85.3005 41.1413 85.4 42.7451 85.3995C43.2093 85.3997 43.6731 85.3916 44.1362 85.3751L44.2229 89.5388C44.2239 89.5828 44.2422 89.6248 44.2737 89.6556C44.3053 89.6864 44.3477 89.7036 44.3918 89.7036H44.3957C44.4179 89.7031 44.4397 89.6982 44.46 89.6893C44.4803 89.6804 44.4987 89.6675 44.514 89.6515C44.5293 89.6355 44.5413 89.6166 44.5493 89.596C44.5574 89.5753 44.5612 89.5533 44.5607 89.5311L44.4739 85.3616C46.5285 85.2703 48.5696 85.0149 50.5778 84.599L51.3779 88.8221C51.3851 88.8606 51.4055 88.8955 51.4356 88.9207C51.4657 88.9459 51.5037 88.9598 51.543 88.96L51.5737 88.9754C51.5956 88.9717 51.6164 88.9637 51.6351 88.9518C51.6538 88.9399 51.6699 88.9243 51.6824 88.9061C51.6879 88.8981 51.6926 88.8897 51.6966 88.881C51.7018 88.8697 51.7056 88.8578 51.7081 88.8456C51.7125 88.8239 51.7125 88.8016 51.7081 88.7799L50.9032 84.5302C52.9008 84.0985 54.8646 83.5078 56.7755 82.7618L57.6624 85.1703C53.4381 90.519 48.2911 93.6627 42.7451 93.6627ZM25.2213 81.1898L25.1657 81.2972C25.1264 81.2319 25.0872 81.1665 25.048 81.1008C25.1057 81.1306 25.1635 81.1603 25.2213 81.1898ZM25.3817 80.8799C25.158 80.7657 24.9356 80.6492 24.7144 80.5307C23.7496 78.8529 22.8567 77.0421 22.0451 75.1149L30.4595 63.9003C30.3686 63.8344 30.2782 63.7678 30.1884 63.7005L21.8946 74.7541C21.5233 73.8547 21.1696 72.9305 20.8343 71.9833L29.0271 62.7636C28.9438 62.6914 28.8611 62.6185 28.779 62.5451L20.71 71.6285C20.411 70.7668 20.1272 69.8865 19.8593 68.9887L27.7032 61.5111C27.6255 61.431 27.5485 61.3502 27.4721 61.2689L19.7529 68.6285C19.5143 67.8115 19.2887 66.9804 19.0766 66.136L26.4976 60.1547C26.427 60.068 26.3571 59.9807 26.2879 59.8929L18.9875 65.777C18.7968 64.9999 18.6175 64.2117 18.4501 63.4132L25.4095 58.693C25.3464 58.6001 25.284 58.5066 25.2224 58.4126L18.3761 63.056C18.2248 62.3157 18.0835 61.5666 17.9528 60.8093L24.4544 57.1451C24.4 57.0477 24.3463 56.9498 24.2935 56.8514L17.8931 60.4586C17.7744 59.7512 17.6648 59.0368 17.5645 58.3158L23.641 55.5264C23.595 55.4239 23.5498 55.321 23.5054 55.2177L17.5168 57.9671C17.4252 57.2859 17.3419 56.599 17.2672 55.9066L22.9709 53.8402C22.9342 53.7344 22.8983 53.6283 22.8632 53.5218L17.2309 55.563C17.1627 54.9047 17.1022 54.2417 17.0496 53.5741L22.4529 52.1084C22.4256 52 22.3991 51.8913 22.3735 51.7822L17.0236 53.2339C16.9757 52.5917 16.9351 51.9455 16.9019 51.2954L22.0883 50.3396C22.0705 50.2294 22.0536 50.1188 22.0376 50.008L16.8854 50.9575C16.8559 50.3288 16.8333 49.6966 16.8179 49.0611L21.8792 48.5557C21.8709 48.4439 21.8636 48.332 21.8571 48.2198L16.8104 48.7235C16.7988 48.1516 16.7929 47.577 16.7929 47L16.793 46.8446L21.8233 46.7598C21.8246 46.6471 21.8268 46.5346 21.8298 46.4224L16.7943 46.5072C16.7979 45.8815 16.8084 45.2586 16.8257 44.6389L21.9192 44.975C21.93 44.8627 21.9417 44.7507 21.9543 44.6389L16.8358 44.3011C16.8559 43.6709 16.883 43.044 16.9169 42.4206L22.1666 43.2065C22.187 43.0957 22.2082 42.9852 22.2303 42.8751L16.936 42.0826C16.9733 41.4449 17.0178 40.8111 17.0693 40.1813L22.5624 41.4758C22.5916 41.3692 22.6217 41.2629 22.6526 41.157L17.0973 39.8469C17.1536 39.1921 17.2175 38.5417 17.2888 37.896L23.1047 39.7863C23.1438 39.6806 23.1836 39.5753 23.2243 39.4703L17.3272 37.555C17.4041 36.8851 17.489 36.2204 17.5817 35.5613L23.7839 38.1622C23.8325 38.0587 23.8818 37.9557 23.932 37.8531L17.6313 35.214C17.7324 34.5185 17.8421 33.8293 17.9604 33.1468L24.5979 36.602C24.6554 36.5023 24.7137 36.4031 24.7728 36.3045L18.0223 32.7945C18.1515 32.0694 18.2903 31.3519 18.4384 30.6426L25.5396 35.1176C25.6056 35.0226 25.6724 34.9282 25.74 34.8344L18.5149 30.281C18.677 29.5242 18.8497 28.7769 19.0328 28.0396L26.5903 33.7323C26.6635 33.6436 26.7375 33.5556 26.8121 33.4681L19.1225 27.6824C19.3261 26.8808 19.5419 26.0913 19.7696 25.3147L27.7571 32.4335C27.8602 32.3279 27.9645 32.2233 28.0698 32.1199L20.1132 24.1809C20.2354 23.7907 20.3606 23.4039 20.4888 23.0207L28.7699 31.4632C28.8535 31.3883 28.9377 31.314 29.0225 31.2404L20.6095 22.6635C20.9091 21.7856 21.2245 20.9268 21.5548 20.0884L30.0954 30.3697C30.1853 30.3016 30.2757 30.2341 30.3667 30.1674L21.6971 19.7308C22.5334 17.6498 23.4628 15.6971 24.4741 13.8927L32.9911 28.5262C33.0906 28.4738 33.1905 28.4222 33.2909 28.3714L24.6663 13.5531L24.7246 13.4516C26.4334 12.5379 28.2118 11.7542 30.0449 11.1085L36.1199 27.1919C36.2259 27.1566 36.3324 27.1221 36.4392 27.0885L30.3626 10.9982C31.9692 10.4482 33.6169 10.0038 35.2956 9.67051C35.5528 9.61944 35.8103 9.57107 36.0681 9.52537L39.3993 26.389C39.51 26.3713 39.621 26.3544 39.7323 26.3384L36.3997 9.46808C38.4334 9.12602 40.4838 8.95044 42.5309 8.93939L42.8949 26.124C43.0065 26.1248 43.1179 26.1264 43.2291 26.129L42.865 8.93904C44.7224 8.94526 46.5763 9.08689 48.4117 9.36248L46.0601 26.3839C46.1712 26.4016 46.2821 26.4201 46.3927 26.4395L48.7449 9.41401C50.6617 9.71915 52.5574 10.1707 54.4148 10.7669L49.2831 27.1627C49.3897 27.1976 49.496 27.2334 49.6018 27.27L54.7354 10.8714C55.6092 11.1604 56.4743 11.4816 57.3289 11.8347C58.2737 12.2252 59.1999 12.6524 60.1057 13.1147L52.3336 28.4393C52.4319 28.49 52.5298 28.5414 52.6272 28.5936L60.4035 13.2684C60.53 13.3343 60.656 13.401 60.7816 13.4683C61.2397 14.2645 61.6817 15.0906 62.1064 15.9449C62.0816 15.9371 62.0551 15.9351 62.029 15.9393C61.9888 15.9457 61.9523 15.9664 61.9262 15.9976L53.7584 29.2456C53.8536 29.3045 53.9483 29.3642 54.0425 29.4246L62.2102 16.1739C62.2117 16.1705 62.2131 16.167 62.2144 16.1635C62.6442 17.0389 63.0561 17.9434 63.449 18.8752L55.1231 30.1662C55.2139 30.2327 55.3041 30.3 55.3938 30.368L63.6006 19.2384C63.9476 20.0782 64.2794 20.9396 64.5951 21.8213L56.4077 31.1875C56.4932 31.2611 56.5781 31.3353 56.6623 31.4103L64.7243 22.186C65.0054 22.9871 65.2733 23.8046 65.5275 24.6374L57.6104 32.3076C57.6898 32.3875 57.7685 32.4681 57.8465 32.5492L65.6371 25.0006C65.8644 25.7612 66.0803 26.5344 66.2843 27.3193L58.7225 33.5189C58.7962 33.6057 58.8692 33.6931 58.9414 33.7811L66.377 27.6798C66.5602 28.4008 66.7336 29.1316 66.8967 29.8717L59.7363 34.8133C59.8019 34.9041 59.8667 34.9955 59.9308 35.0874L66.974 30.2267C67.1226 30.9175 67.2623 31.6161 67.3928 32.3222L60.6494 36.1898C60.7076 36.2855 60.765 36.3816 60.8216 36.4783L67.4568 32.6731C67.5745 33.3269 67.6843 33.987 67.7862 34.653L61.4461 37.625C61.4963 37.7244 61.5457 37.8243 61.5943 37.9246L67.8382 34.9989C67.9319 35.6308 68.0184 36.268 68.0975 36.9101L62.1299 39.1256C62.1721 39.2286 62.2134 39.3321 62.2538 39.436L68.1389 37.2529C68.2115 37.864 68.2774 38.4795 68.3364 39.0991L62.693 40.6783C62.7264 40.7832 62.759 40.8886 62.7907 40.9942L68.3678 39.4356C68.4222 40.0328 68.4703 40.6337 68.5119 41.2382L63.1311 42.2739C63.156 42.3814 63.1801 42.4891 63.2033 42.5972L68.5343 41.574C68.5722 42.1595 68.6041 42.7482 68.6297 43.34L63.4406 43.9012C63.4571 44.0123 63.4728 44.1235 63.4876 44.2351L68.6437 43.6779C68.6666 44.2602 68.6836 44.8453 68.6944 45.4332L63.6204 45.5588C63.6281 45.6709 63.6349 45.7832 63.6407 45.8958L68.7 45.7706C68.7059 46.1791 68.7088 46.5889 68.7088 47C68.7088 47.1758 68.7083 47.3514 68.7072 47.5267L63.6682 47.2344C63.667 47.3467 63.6649 47.4588 63.6618 47.5707L68.7045 47.8627C68.6985 48.4482 68.6866 49.0311 68.6687 49.6112L63.5849 48.8899C63.5748 49.002 63.5639 49.1139 63.552 49.2254L68.6575 49.9498C68.6364 50.5547 68.6089 51.1565 68.575 51.755L63.3645 50.5714C63.3453 50.6827 63.3252 50.7937 63.3042 50.9043L68.5549 52.0971C68.5179 52.7076 68.4742 53.3147 68.4241 53.918L63.0132 52.2079C62.9842 52.3205 62.9543 52.4327 62.9235 52.5446L68.3935 54.2763C68.338 54.9102 68.2754 55.54 68.2058 56.1653L62.5218 53.8367C62.4838 53.9461 62.4449 54.0552 62.4051 54.1639L68.1647 56.5273C68.0874 57.1941 68.0022 57.8558 67.9092 58.5119L61.8878 55.443C61.8423 55.5455 61.7959 55.6477 61.7488 55.7494L67.8585 58.8633C67.7574 59.5542 67.6476 60.239 67.5294 60.917L61.139 56.9605C61.0853 57.0589 61.0309 57.1569 60.9757 57.2543L67.4666 61.2724C67.3342 62.0114 67.1918 62.7425 67.0396 63.465L60.2505 58.4409C60.1899 58.5331 60.1286 58.6247 60.0666 58.7158L66.9648 63.8157C66.7954 64.6012 66.6144 65.3765 66.4223 66.1409L59.2423 59.8437C59.1746 59.9301 59.1063 60.016 59.0373 60.1013L66.3324 66.4945C66.12 67.321 65.8946 68.1346 65.6565 68.9344L58.1346 61.1451C58.0577 61.2284 57.9802 61.311 57.902 61.393L65.5438 69.3089L65.4966 69.4635L57.659 61.6434C57.58 61.7235 57.5003 61.8029 57.42 61.8818L65.3836 69.8277C65.1637 70.5293 64.9339 71.2197 64.6947 71.8984L56.9081 62.3677C56.8242 62.4447 56.7397 62.5211 56.6546 62.5967L64.5595 72.2777C64.2205 73.2192 63.8632 74.1375 63.4885 75.0309L55.5651 63.5008C55.4755 63.5702 55.3854 63.6388 55.2947 63.7068L63.3313 75.4016C62.9071 76.3924 62.4612 77.3518 61.9951 78.2776L54.134 64.5164C54.04 64.5774 53.9454 64.6377 53.8503 64.6972L61.8124 78.6366C61.4755 79.2918 61.1284 79.9297 60.7714 80.5495C59.5397 81.208 58.2719 81.7989 56.9735 82.3193L51.0291 66.1768C50.9253 66.2215 50.8212 66.2653 50.7166 66.3083L56.6584 82.444C54.7761 83.1791 52.831 83.7665 50.8401 84.1972L47.6404 67.3023C47.5321 67.3281 47.4235 67.3532 47.3146 67.3774L50.5147 84.2661C50.4107 84.2877 50.3065 84.3088 50.2023 84.3295C48.3028 84.7067 46.3855 84.9373 44.4668 85.0231L44.1088 67.833C43.9965 67.8402 43.884 67.8465 43.7712 67.8519L44.1292 85.0367C42.0875 85.1098 40.0453 85.0191 38.0224 84.7663L40.5099 67.7588C40.3978 67.7469 40.286 67.7341 40.1745 67.7205L37.6879 84.723C35.6635 84.4519 33.6594 84.0182 31.6957 83.4241L36.961 67.0685C36.8529 67.0375 36.7451 67.0057 36.6378 66.9731L31.375 83.3255C30.2926 82.9876 29.2228 82.6008 28.1691 82.1653C27.3227 81.8155 26.4913 81.4363 25.6762 81.0288L33.5747 65.7696C33.4749 65.721 33.3756 65.6716 33.2767 65.6215L25.3817 80.8799ZM31.9679 64.8976L24.8116 76.3084C24.7955 76.3326 24.7739 76.3525 24.7485 76.3665C24.7231 76.3805 24.6947 76.3882 24.6657 76.3889C24.6342 76.3895 24.6033 76.3801 24.5774 76.3621C24.5401 76.3384 24.5136 76.3011 24.5035 76.2581C24.4935 76.2151 24.5007 76.1698 24.5237 76.1321L31.6793 64.721C31.775 64.7806 31.8712 64.8395 31.9679 64.8976ZM34.9265 66.37L29.7287 78.8571C29.7122 78.8983 29.7126 78.9443 29.7298 78.9852C29.7471 79.0261 29.7798 79.0586 29.8208 79.0756C29.8422 79.0809 29.8647 79.0809 29.8861 79.0756C29.9191 79.0757 29.9514 79.0658 29.9788 79.0474C30.0061 79.0289 30.0273 79.0027 30.0396 78.9721L35.237 66.492C35.1331 66.4521 35.0296 66.4115 34.9265 66.37ZM38.7188 67.4903L35.64 80.7351C35.6336 80.773 35.6138 80.8074 35.5843 80.832C35.5547 80.8566 35.5173 80.8698 35.4788 80.8693H35.4404C35.4184 80.8648 35.3976 80.8559 35.3792 80.8431C35.3608 80.8303 35.3452 80.8139 35.3333 80.7949C35.3215 80.7759 35.3136 80.7547 35.3103 80.7325C35.3069 80.7104 35.3081 80.6878 35.3137 80.6661L38.3912 67.4238C38.5001 67.4468 38.6093 67.469 38.7188 67.4903ZM41.9805 67.8629L41.1291 81.5323C41.1275 81.5545 41.1304 81.5768 41.1375 81.5978C41.1445 81.6189 41.1557 81.6383 41.1703 81.6551C41.1849 81.6718 41.2027 81.6855 41.2227 81.6953C41.2426 81.7052 41.2643 81.711 41.2865 81.7125C41.3296 81.7135 41.3715 81.6977 41.403 81.6683C41.4346 81.6389 41.4534 81.5984 41.4554 81.5553L42.3105 67.8721C42.2003 67.8699 42.0903 67.8668 41.9805 67.8629ZM45.5568 67.6898L46.9905 81.4404C46.996 81.4814 47.0161 81.519 47.0471 81.5465C47.0781 81.5739 47.118 81.5893 47.1594 81.5898H47.1786C47.2228 81.585 47.2633 81.563 47.2913 81.5285C47.3193 81.4941 47.3326 81.45 47.3283 81.4059L45.8917 67.6422C45.7804 67.6589 45.6687 67.6748 45.5568 67.6898ZM49.0405 66.9153L52.7675 80.3787C52.7767 80.4145 52.7975 80.4463 52.8267 80.4692C52.8558 80.492 52.8916 80.5047 52.9287 80.5052L52.9748 80.4975C53.0175 80.485 53.0537 80.4565 53.0759 80.4179C53.0981 80.3793 53.1045 80.3337 53.0937 80.2906L49.3623 66.8113C49.2554 66.8468 49.1481 66.8815 49.0405 66.9153ZM52.3157 65.5699L58.2873 78.3857C58.3015 78.4143 58.3234 78.4384 58.3505 78.4553C58.3776 78.4722 58.4089 78.4813 58.4408 78.4815C58.4711 78.4851 58.5018 78.4797 58.5291 78.4662C58.569 78.4471 58.5999 78.4131 58.6149 78.3715C58.63 78.3299 58.6281 78.2841 58.6097 78.2439L52.6218 65.4094C52.5203 65.4637 52.4183 65.5172 52.3157 65.5699ZM51.139 27.871L56.986 13.5025C57.0028 13.4608 57.0023 13.4142 56.9847 13.3729C56.9671 13.3315 56.9337 13.2989 56.892 13.2821C56.8502 13.2653 56.8035 13.2658 56.7621 13.2834C56.7207 13.301 56.688 13.3343 56.6712 13.376L50.8303 27.7389C50.9336 27.7821 51.0365 27.8261 51.139 27.871ZM48.005 26.7885L51.3779 11.7279C51.383 11.7065 51.3838 11.6843 51.3801 11.6626C51.3765 11.6409 51.3685 11.6202 51.3567 11.6016C51.3449 11.583 51.3295 11.567 51.3114 11.5545C51.2933 11.542 51.2728 11.5332 51.2513 11.5286C51.208 11.5195 51.1629 11.5276 51.1256 11.5512C51.0883 11.5748 51.0618 11.6122 51.0517 11.6551L47.6841 26.7083C47.7914 26.7342 47.8984 26.7609 48.005 26.7885ZM44.7538 26.2184L45.5856 10.9039C45.5877 10.8588 45.572 10.8147 45.5419 10.781C45.5117 10.7473 45.4695 10.7268 45.4244 10.7238C45.3799 10.7227 45.3366 10.7389 45.3037 10.7689C45.2708 10.7989 45.2508 10.8404 45.2478 10.8848L44.4165 26.1891C44.5292 26.198 44.6416 26.2077 44.7538 26.2184ZM41.4016 26.1659L39.7012 11.0419C39.6993 11.02 39.693 10.9987 39.6826 10.9793C39.6721 10.96 39.6579 10.9429 39.6406 10.9293C39.6233 10.9156 39.6035 10.9057 39.5822 10.9C39.5609 10.8943 39.5387 10.893 39.5169 10.8963C39.4949 10.8981 39.4734 10.9045 39.4538 10.9148C39.4342 10.9252 39.417 10.9394 39.403 10.9565C39.389 10.9737 39.3786 10.9935 39.3725 11.0147C39.3664 11.036 39.3646 11.0583 39.3672 11.0802L41.066 26.1898C41.1777 26.1809 41.2895 26.173 41.4016 26.1659ZM38.0742 26.6457L33.9357 12.1495C33.93 12.1282 33.92 12.1082 33.9064 12.0908C33.8928 12.0734 33.8758 12.0589 33.8565 12.0482C33.8371 12.0375 33.8158 12.0308 33.7938 12.0284C33.7718 12.0261 33.7496 12.0282 33.7284 12.0346C33.707 12.0403 33.6869 12.0503 33.6693 12.0638C33.6518 12.0773 33.637 12.0942 33.626 12.1134C33.6149 12.1326 33.6078 12.1538 33.6049 12.1758C33.6021 12.1978 33.6036 12.2201 33.6094 12.2415L37.744 26.7237C37.8537 26.6969 37.9638 26.6709 38.0742 26.6457ZM34.8427 27.664L28.4313 14.1886C28.4119 14.1479 28.3772 14.1166 28.3347 14.1015C28.2923 14.0864 28.2455 14.0888 28.2048 14.1081C28.1641 14.1274 28.1327 14.1621 28.1176 14.2045C28.1025 14.2469 28.1049 14.2935 28.1242 14.3342L34.53 27.7943C34.6338 27.7501 34.738 27.7066 34.8427 27.664ZM31.7959 29.2069L23.3376 17.1052C23.312 17.0687 23.2731 17.0439 23.2292 17.036C23.1853 17.0281 23.1401 17.0378 23.1034 17.063C23.0669 17.0886 23.042 17.1275 23.0341 17.1713C23.0262 17.215 23.0359 17.2602 23.0612 17.2968L31.5104 29.3854C31.6051 29.3252 31.7002 29.2657 31.7959 29.2069ZM24.1245 80.1986L24.1319 80.2119C22.7485 79.4392 21.4171 78.5824 20.1448 77.6475L21.801 75.4401C22.5101 77.1032 23.2855 78.6929 24.1245 80.1986ZM21.6494 75.081C21.2685 74.1699 20.9074 73.2373 20.5663 72.2849L20.0902 72.8207C20.0741 72.8394 20.0541 72.8543 20.0315 72.8642C20.0089 72.8742 19.9843 72.8789 19.9597 72.8782C19.9189 72.8768 19.8798 72.862 19.8484 72.836C19.8169 72.8044 19.7993 72.7617 19.7993 72.7172C19.7993 72.6727 19.8169 72.63 19.8484 72.5984L20.4409 71.9313C20.1342 71.0578 19.8443 70.168 19.5714 69.2631L15.2603 73.3729C16.6868 74.8539 18.2301 76.2161 19.8742 77.4468L21.6494 75.081ZM18.773 66.3808C18.989 67.2335 19.2195 68.0748 19.4642 68.9037L15.0299 73.1316C13.6256 71.6479 12.3372 70.0478 11.1802 68.344L18.1342 63.6275C18.3047 64.4348 18.4878 65.2333 18.6832 66.0224L15.8026 68.3442C15.7851 68.358 15.7706 68.3751 15.7598 68.3945C15.749 68.4139 15.7421 68.4353 15.7396 68.4574C15.7371 68.4795 15.739 68.5018 15.7452 68.5232C15.7514 68.5445 15.7618 68.5644 15.7757 68.5818C15.7919 68.6006 15.8119 68.6158 15.8344 68.6264C15.8569 68.6369 15.8813 68.6426 15.9062 68.6431C15.9455 68.6438 15.9837 68.6302 16.0137 68.6048L18.773 66.3808ZM18.0597 63.2706C17.9048 62.5185 17.7607 61.759 17.6275 60.9926L12.6895 63.7756C12.664 63.7907 12.6348 63.7987 12.6051 63.7986C12.575 63.7985 12.5456 63.7903 12.5199 63.7748C12.4942 63.7592 12.4732 63.737 12.4592 63.7104C12.4479 63.6915 12.4405 63.6704 12.4377 63.6486C12.4348 63.6267 12.4365 63.6044 12.4426 63.5832C12.4488 63.562 12.4592 63.5423 12.4733 63.5253C12.4873 63.5083 12.5048 63.4943 12.5245 63.4843L17.5675 60.6421C17.4461 59.9233 17.3343 59.1985 17.2322 58.4684L8.01264 62.7007C8.85619 64.5577 9.85125 66.3519 10.992 68.0642L18.0597 63.2706ZM16.9298 56.0289C17.0059 56.7303 17.0907 57.4274 17.1843 58.1197L7.87484 62.3937C7.04471 60.5225 6.3676 58.5889 5.84935 56.6122L16.7086 53.6666C16.7621 54.3431 16.8237 55.0162 16.8933 55.6853L10.0947 58.1492C10.0525 58.164 10.0178 58.1949 9.9984 58.2351C9.97897 58.2754 9.97633 58.3217 9.99105 58.3639C10.0035 58.3965 10.0256 58.4246 10.0543 58.4445C10.0831 58.4643 10.1173 58.475 10.1523 58.475C10.172 58.4749 10.1916 58.471 10.2098 58.4635L16.9298 56.0289ZM16.6824 53.3264C16.6335 52.6736 16.5922 52.0176 16.5584 51.3587L8.63989 52.818L8.60918 52.8218C8.5679 52.8206 8.52849 52.8044 8.49838 52.7762C8.46827 52.748 8.44956 52.7097 8.44578 52.6687C8.442 52.6276 8.45341 52.5866 8.47786 52.5534C8.50231 52.5202 8.5381 52.497 8.57847 52.4884L16.5418 51.0208C16.5117 50.3816 16.4887 49.7397 16.473 49.0955L4.74914 50.2663C4.92657 52.3029 5.26745 54.3166 5.766 56.2886L16.6824 53.3264ZM16.4474 47C16.4474 47.5877 16.4534 48.1738 16.4654 48.758L4.72136 49.9302C4.64532 48.9577 4.60652 47.9803 4.60561 47C4.60259 45.9439 4.64388 44.89 4.72896 43.8408L16.4806 44.6162C16.463 45.2463 16.4524 45.8787 16.4488 46.5131L8.02572 46.6551C7.98093 46.6551 7.93797 46.6728 7.90629 46.7045C7.87462 46.7361 7.85682 46.779 7.85682 46.8237C7.85682 46.8684 7.87462 46.9113 7.90629 46.943C7.93797 46.9746 7.98093 46.9924 8.02572 46.9924H8.02956L16.4476 46.8504L16.4474 47ZM16.4907 44.2783C16.5111 43.6395 16.5387 43.003 16.5733 42.3692L8.38655 41.1437C8.36414 41.141 8.3425 41.1338 8.32291 41.1226C8.30332 41.1114 8.28618 41.0964 8.2725 41.0784C8.25882 41.0605 8.24888 41.04 8.24327 41.0182C8.23765 40.9964 8.23648 40.9736 8.23981 40.9513C8.24315 40.929 8.25093 40.9076 8.26269 40.8884C8.27445 40.8692 8.28996 40.8525 8.30829 40.8393C8.32662 40.8262 8.34741 40.8168 8.36942 40.8118C8.39143 40.8068 8.41423 40.8063 8.43645 40.8102L16.5924 42.0311C16.6304 41.3848 16.6757 40.7413 16.7283 40.101L5.78665 37.5226C5.28397 39.4846 4.93974 41.4849 4.75779 43.504L16.4907 44.2783ZM16.9517 37.7864C16.8788 38.4428 16.8137 39.1029 16.7565 39.7665L5.87097 37.1994C6.30169 35.578 6.84093 33.9836 7.48654 32.427C7.61606 32.1147 7.74969 31.8044 7.88737 31.496L17.25 35.4222C17.1551 36.0922 17.0685 36.7668 16.9902 37.4456L9.81447 35.1149C9.79278 35.1046 9.76915 35.0991 9.74515 35.0987C9.72116 35.0983 9.69735 35.103 9.67531 35.1124C9.65327 35.1219 9.63351 35.136 9.61734 35.1537C9.60117 35.1714 9.58897 35.1923 9.58155 35.2151C9.57412 35.2379 9.57165 35.262 9.57429 35.2858C9.57693 35.3097 9.58462 35.3326 9.59685 35.3533C9.60908 35.3739 9.62557 35.3916 9.64523 35.4054C9.66488 35.4192 9.68724 35.4286 9.71082 35.433L16.9517 37.7864ZM17.2999 35.0752C17.4028 34.3707 17.5148 33.6715 17.6358 32.9778L11.9564 30.0213C11.9174 30.0002 11.8884 29.9646 11.8755 29.9224C11.8626 29.8801 11.8668 29.8344 11.8873 29.7952C11.897 29.7752 11.9107 29.7575 11.9275 29.743C11.9443 29.7284 11.9638 29.7174 11.985 29.7106C12.0061 29.7038 12.0284 29.7014 12.0506 29.7034C12.0727 29.7054 12.0942 29.7119 12.1137 29.7224L17.698 32.6259C17.8296 31.892 17.9713 31.1644 18.123 30.4438L10.9592 25.9293C9.84454 27.5996 8.86307 29.3586 8.02546 31.1905L17.2999 35.0752ZM18.7292 27.8109C18.5416 28.5597 18.3652 29.3171 18.2 30.0825L11.1531 25.6415C12.2754 23.9928 13.5283 22.4325 14.9015 20.9762L19.4806 25.0572C19.2473 25.8453 19.0268 26.6447 18.8195 27.4544L15.2728 24.7859C15.2555 24.7723 15.2357 24.7623 15.2145 24.7564C15.1933 24.7506 15.1711 24.7491 15.1493 24.752C15.1275 24.7548 15.1065 24.762 15.0875 24.7731C15.0685 24.7842 15.0519 24.7989 15.0387 24.8165C15.025 24.8341 15.0149 24.8542 15.009 24.8757C15.0031 24.8972 15.0016 24.9196 15.0044 24.9417C15.0073 24.9638 15.0145 24.9851 15.0256 25.0044C15.0368 25.0237 15.0517 25.0406 15.0694 25.0541L18.7292 27.8109ZM20.0003 24.5451C19.9582 24.6823 19.9166 24.8199 19.8752 24.9579L24.9208 29.4547L20.0003 24.5451ZM19.587 24.7011C19.631 24.5556 19.6754 24.4105 19.7203 24.2657L15.6501 20.2046C15.4762 20.3789 15.3041 20.5547 15.1337 20.7322L19.587 24.7011ZM19.834 23.9024C19.9575 23.5122 20.0842 23.1249 20.2141 22.7406L18.5548 21.049C18.5243 21.017 18.5073 20.9744 18.5073 20.9302C18.5073 20.886 18.5243 20.8434 18.5548 20.8114C18.5864 20.78 18.6292 20.7624 18.6738 20.7624C18.7184 20.7624 18.7611 20.78 18.7928 20.8114L20.3357 22.3843C20.6405 21.5002 20.9623 20.6325 21.3007 19.7825L19.0984 17.1314C17.9801 18.0127 16.9084 18.9588 15.8894 19.9665L19.834 23.9024ZM24.1245 13.7976C23.1429 15.5641 22.2479 17.446 21.444 19.4261L19.3649 16.9233C20.8776 15.7527 22.4739 14.6995 24.1392 13.7712L24.1245 13.7976ZM28.0378 11.5371C27.0112 11.9615 26.0063 12.4288 25.0255 12.9371C26.1774 10.9987 27.4273 9.24643 28.7602 7.70728L29.9328 10.8117C29.296 11.0364 28.6641 11.2783 28.0378 11.5371ZM30.2504 10.7012L29.0115 7.42074C32.9973 2.93338 37.7058 0.337275 42.7451 0.337275C47.4673 0.337275 51.9002 2.61643 55.7205 6.5952L54.5139 10.4503C53.1223 10.0047 51.7018 9.63719 50.2586 9.351C49.77 9.25413 49.2803 9.16686 48.7898 9.08917L49.5853 3.33059C49.5908 3.2864 49.5785 3.24185 49.5512 3.20667C49.5239 3.17149 49.4837 3.14852 49.4395 3.14278C49.4177 3.13899 49.3954 3.1397 49.3739 3.14488C49.3524 3.15006 49.3322 3.15959 49.3146 3.17289C49.297 3.18619 49.2822 3.20297 49.2714 3.22219C49.2605 3.2414 49.2537 3.26264 49.2514 3.28459L48.4565 9.0379C46.5973 8.76012 44.7262 8.6196 42.8581 8.61488L42.7374 2.91668C42.7364 2.87262 42.7182 2.83071 42.6866 2.79991C42.6551 2.7691 42.6127 2.75186 42.5685 2.75188C42.5241 2.75385 42.4821 2.77289 42.4513 2.80502C42.4206 2.83716 42.4034 2.8799 42.4035 2.92435L42.524 8.61548C40.4503 8.62821 38.3814 8.80824 36.3376 9.15357L35.26 3.69852C35.2575 3.67527 35.2502 3.6528 35.2385 3.63253C35.2268 3.61226 35.211 3.59464 35.1921 3.58079C35.1733 3.56694 35.1517 3.55716 35.1288 3.55207C35.106 3.54698 35.0823 3.54669 35.0593 3.55123C35.0364 3.55576 35.0146 3.56502 34.9954 3.57841C34.9762 3.5918 34.96 3.60904 34.9478 3.62901C34.9356 3.64899 34.9277 3.67128 34.9247 3.69447C34.9216 3.71765 34.9234 3.74122 34.9299 3.76368L36.006 9.2111C34.0576 9.55783 32.1332 10.0551 30.2504 10.7012ZM54.8346 10.5545L55.9862 6.87573C57.5435 8.54224 58.9962 10.4932 60.3219 12.6884L60.2577 12.815C58.5134 11.9262 56.7006 11.17 54.8346 10.5545ZM63.8376 18.9171C64.1935 19.7683 64.5323 20.6383 64.8535 21.5256L66.6706 19.447C66.7008 19.4162 66.7417 19.3982 66.7849 19.3966C66.828 19.3951 66.8701 19.41 66.9025 19.4385C66.935 19.4669 66.9553 19.5067 66.9592 19.5496C66.9632 19.5925 66.9506 19.6353 66.9239 19.6692L64.9838 21.8891C65.272 22.7018 65.5457 23.5288 65.8045 24.369L69.9606 20.3425C68.6038 18.963 67.1446 17.6894 65.596 16.5324L63.8376 18.9171ZM70.9966 23.889L66.6693 27.4399C66.8569 28.1725 67.0338 28.9135 67.1999 29.6624L73.8929 25.0434C72.7714 23.4595 71.5347 21.9694 70.1957 20.5836L65.915 24.7314C66.1479 25.5036 66.3683 26.2868 66.5761 27.0801L70.7816 23.6322C70.7986 23.6176 70.8183 23.6066 70.8396 23.5998C70.8609 23.593 70.8833 23.5906 70.9056 23.5928C70.9278 23.5949 70.9494 23.6016 70.969 23.6123C70.9886 23.623 71.0059 23.6376 71.0196 23.6552C71.0342 23.6718 71.0452 23.6911 71.0519 23.7121C71.0587 23.733 71.061 23.7552 71.0589 23.7771C71.0567 23.799 71.0501 23.8202 71.0394 23.8395C71.0286 23.8587 71.0141 23.8756 70.9966 23.889ZM74.3131 28.7412L67.769 32.4941C67.8891 33.1589 68.001 33.8289 68.1044 34.5039L77.0247 30.3224C76.2712 28.7815 75.4116 27.2872 74.4492 25.851C74.3295 25.6724 74.2084 25.4949 74.0859 25.3186L67.2776 30.0172C67.4295 30.7193 67.5719 31.4282 67.7047 32.1433L74.1442 28.4499C74.1634 28.4371 74.185 28.4284 74.2077 28.4242C74.2304 28.4201 74.2538 28.4206 74.2763 28.4259C74.2988 28.4311 74.3199 28.4409 74.3385 28.4546C74.3571 28.4683 74.3726 28.4857 74.3842 28.5056C74.3958 28.5256 74.4031 28.5477 74.4058 28.5706C74.4084 28.5935 74.4064 28.6167 74.3997 28.6388C74.3931 28.6609 74.3819 28.6813 74.367 28.699C74.3521 28.7166 74.3338 28.7309 74.3131 28.7412ZM76.7851 34.0456L68.4619 37.1331C68.5358 37.7546 68.6027 38.3795 68.6626 39.0078L79.2686 36.0399C78.7092 34.1871 78.0084 32.377 77.1713 30.6257L68.1566 34.8497C68.2522 35.4923 68.3401 36.1393 68.4204 36.7902L76.6699 33.7275C76.7122 33.7122 76.7588 33.7144 76.7994 33.7334C76.8401 33.7525 76.8715 33.7869 76.8868 33.8291C76.9021 33.8712 76.8999 33.9178 76.8809 33.9584C76.8618 33.999 76.8273 34.0303 76.7851 34.0456ZM78.3435 39.6911L68.8626 41.5109C68.9012 42.1063 68.9334 42.7042 68.9594 43.3044L80.5641 42.0493C80.3094 40.1229 79.9078 38.2218 79.3644 36.3625L68.694 39.3445C68.7493 39.9518 68.7981 40.562 68.8402 41.175L78.2821 39.3577C78.3264 39.3495 78.3721 39.3593 78.4092 39.3848C78.4463 39.4103 78.4717 39.4495 78.4798 39.4937C78.4879 39.538 78.4782 39.5836 78.4526 39.6206C78.4271 39.6576 78.3878 39.683 78.3435 39.6911ZM78.9538 45.5168L69.0301 45.7624C69.036 46.1741 69.039 46.5866 69.039 47C69.039 47.1821 69.0384 47.3641 69.0372 47.5459L80.8872 48.2332C80.8995 47.8226 80.905 47.4114 80.9038 47H80.8923C80.8909 45.4518 80.7949 43.9108 80.607 42.3852L68.9733 43.6423C68.9965 44.2345 69.0136 44.8288 69.0246 45.425L78.9423 45.1795C78.9645 45.179 78.9866 45.1828 79.0073 45.1908C79.0279 45.1989 79.0469 45.2108 79.0629 45.2262C79.0789 45.2415 79.0918 45.2598 79.1008 45.28C79.1097 45.3003 79.1146 45.3221 79.1151 45.3443C79.1161 45.3662 79.1127 45.3882 79.1051 45.4088C79.0975 45.4295 79.0859 45.4484 79.0709 45.4644C79.0558 45.4805 79.0377 45.4934 79.0176 45.5024C78.9976 45.5114 78.9759 45.5163 78.9538 45.5168ZM78.5815 51.3578L68.9868 49.9965C68.9654 50.6098 68.9374 51.2209 68.9029 51.8294L80.1938 54.3941C80.5715 52.4755 80.7999 50.5275 80.8758 48.5676L69.0345 47.8818C69.0284 48.4757 69.0162 49.0679 68.9979 49.658L78.6276 51.0243C78.6497 51.0271 78.6711 51.0343 78.6903 51.0456C78.7096 51.0569 78.7264 51.0719 78.7397 51.0898C78.7529 51.1077 78.7624 51.1281 78.7676 51.1498C78.7727 51.1715 78.7734 51.194 78.7696 51.216C78.7633 51.2552 78.7432 51.291 78.713 51.317C78.6828 51.3429 78.6444 51.3574 78.6046 51.3578H78.5815ZM77.2495 57.0799L68.719 54.3793C68.6627 55.0221 68.599 55.6615 68.5281 56.2973L78.4927 60.3796C79.185 58.5372 79.7309 56.6468 80.127 54.7259L68.8828 52.1716C68.8451 52.7908 68.8007 53.4073 68.7497 54.0209L77.3494 56.7388C77.3879 56.7508 77.4208 56.7762 77.4422 56.8103C77.4636 56.8445 77.472 56.8851 77.466 56.925C77.46 56.9648 77.4399 57.0012 77.4093 57.0275C77.3788 57.0538 77.3398 57.0683 77.2995 57.0684V57.0799H77.2495ZM74.9925 62.4993L68.176 59.0251C68.0731 59.7252 67.9613 60.4202 67.8405 61.1097L75.8086 66.043C76.6416 64.6071 77.3807 63.1149 78.0199 61.5754C78.1387 61.2892 78.2539 61.0018 78.3655 60.7132L68.4869 56.6595C68.4084 57.3352 68.3216 58.0068 68.2267 58.6738L75.146 62.2004C75.166 62.2101 75.1838 62.2238 75.1983 62.2405C75.2129 62.2573 75.2239 62.2768 75.2307 62.2979C75.2375 62.319 75.24 62.3413 75.238 62.3634C75.236 62.3855 75.2295 62.407 75.219 62.4265C75.2025 62.4505 75.18 62.4698 75.1537 62.4826C75.1275 62.4954 75.0984 62.5011 75.0693 62.4993C75.044 62.5049 75.0178 62.5049 74.9925 62.4993ZM71.8718 67.4435L67.2668 64.0389C67.0942 64.8335 66.9095 65.6193 66.7128 66.3957L72.203 71.2109C73.476 69.6768 74.625 68.0452 75.6395 66.3317L67.7775 61.4649C67.6427 62.213 67.4975 62.9545 67.3419 63.6887L72.0637 67.1828C72.0919 67.2043 72.1126 67.2341 72.1229 67.2679C72.1333 67.3018 72.1326 67.338 72.1212 67.3715C72.1097 67.405 72.088 67.4341 72.0591 67.4545C72.0302 67.475 71.9955 67.4859 71.9601 67.4856L71.9716 67.478C71.9354 67.4777 71.9004 67.4656 71.8718 67.4435ZM67.9757 71.828L65.8179 69.5929L65.7728 69.7391L69.843 73.8003C70.5946 73.0488 71.3128 72.2673 71.9962 71.4579L66.6223 66.7485C66.406 67.5835 66.1757 68.4074 65.9315 69.2192L68.2214 71.5904C68.2528 71.622 68.2704 71.6647 68.2704 71.7092C68.2704 71.7537 68.2528 71.7964 68.2214 71.828C68.1873 71.8605 68.1418 71.8784 68.0947 71.8778C68.0725 71.8782 68.0505 71.8739 68.03 71.8653C68.0095 71.8568 67.991 71.8441 67.9757 71.828ZM64.8136 72.5889C64.466 73.5428 64.0981 74.4765 63.7102 75.3882C63.7115 75.3993 63.7117 75.4104 63.7109 75.4216C63.7104 75.4284 63.7095 75.4351 63.7081 75.4419C63.6999 75.4836 63.6765 75.5208 63.6426 75.5463C63.1878 76.6058 62.706 77.6354 62.1977 78.6322L62.6718 79.4622C64.3815 78.4179 66.0107 77.2379 67.5427 75.9312L64.8136 72.5889ZM62.3836 79.6365C62.0385 79.8432 61.6902 80.0443 61.3388 80.2399L61.3619 80.1986C61.5837 79.8012 61.801 79.398 62.0138 78.9891L62.3836 79.6365ZM57.4712 82.4824C58.4843 82.064 59.4773 81.6033 60.4477 81.1018C59.6466 82.4461 58.7981 83.7005 57.9076 84.856L57.0905 82.6372C57.2177 82.5863 57.3445 82.5347 57.4712 82.4824ZM65.659 70.1024C65.4334 70.8152 65.197 71.5182 64.9499 72.2108L67.805 75.7054C68.421 75.1702 69.0209 74.6143 69.6037 74.0383L65.659 70.1024ZM61.3619 13.8014C62.2008 15.3058 62.9759 16.8939 63.6848 18.5554L65.3246 16.3316C64.0558 15.401 62.7283 14.5481 61.3492 13.7787L61.3619 13.8014Z" fill="#828282"/>
<path d="M42.7419 68.0452C37.1774 68.0325 31.8455 65.8148 27.9176 61.8794C23.9896 57.9439 21.7869 52.6126 21.7932 47.0566C21.7996 41.5005 24.0145 36.1743 27.9515 32.2478C31.8884 28.3213 37.2254 26.1158 42.7899 26.1158C48.3544 26.1158 53.6914 28.3213 57.6283 32.2478C61.5653 36.1743 63.7802 41.5005 63.7866 47.0566C63.7929 52.6126 61.5902 57.9439 57.6622 61.8794C53.7343 65.8148 48.4024 68.0325 42.8379 68.0452H42.7419ZM27.883 32.3055L28.002 32.4244C25.1144 35.3263 23.1529 39.0175 22.3651 43.0318C21.5773 47.0462 21.9986 51.2036 23.5758 54.979C25.153 58.7545 27.8153 61.9785 31.2266 64.244C34.6378 66.5096 38.645 67.7149 42.7419 67.7079H42.8379C46.2446 67.6894 49.5943 66.8328 52.5905 65.2138C55.5867 63.5948 58.137 61.2635 60.0159 58.4259C61.8947 55.5884 63.0442 52.3322 63.3625 48.9455C63.6808 45.5588 63.1582 42.146 61.8408 39.009C60.5235 35.872 58.4521 33.1075 55.8099 30.9602C53.1677 28.8129 50.0361 27.349 46.6923 26.698C43.3485 26.047 39.8955 26.2289 36.6389 27.2277C33.3823 28.2265 30.4224 30.0113 28.0212 32.4244L27.883 32.3055Z" fill="#828282"/>
<path d="M3.223 48.3199C3.57357 48.6699 4.04905 48.8666 4.54483 48.8666C5.04062 48.8666 5.5161 48.6699 5.86667 48.3199C6.21724 47.9698 6.41419 47.4951 6.41419 47.0001C6.41419 46.505 6.21724 46.0303 5.86667 45.6802C5.5161 45.3302 5.04062 45.1335 4.54483 45.1335C4.04905 45.1335 3.57357 45.3302 3.223 45.6802C2.87243 46.0303 2.67548 46.505 2.67548 47.0001C2.67548 47.4951 2.87243 47.9698 3.223 48.3199Z" fill="#828282"/>
<path d="M5.98043 10.3214C5.78866 10.5129 5.56096 10.6649 5.31036 10.7686C5.05975 10.8722 4.79114 10.9256 4.51988 10.9256C4.24861 10.9256 3.98 10.8722 3.7294 10.7686C3.47879 10.6649 3.25109 10.5129 3.05932 10.3214C2.8499 10.1113 2.68764 9.85917 2.58334 9.58167C2.9533 9.71935 3.35508 9.74804 3.7409 9.66434C4.12671 9.58064 4.48034 9.38806 4.75972 9.10951C5.0391 8.83095 5.23249 8.47815 5.31687 8.09304C5.40127 7.70793 5.37311 7.30673 5.23576 6.93713C5.51581 7.03926 5.77001 7.20149 5.98043 7.41238C6.36649 7.79829 6.58334 8.32143 6.58334 8.86688C6.58334 9.41233 6.36649 9.93547 5.98043 10.3214Z" fill="#828282"/>
<path d="M79.5111 83.6825C79.7028 83.4909 79.9305 83.339 80.1811 83.2353C80.4318 83.1316 80.7004 83.0782 80.9716 83.0782C81.2429 83.0782 81.5115 83.1316 81.7621 83.2353C82.0127 83.339 82.2404 83.4909 82.4322 83.6825C82.6421 83.8936 82.8043 84.1472 82.9082 84.426C82.5382 84.2883 82.1364 84.2596 81.7506 84.3434C81.3648 84.4271 81.0112 84.6196 80.7318 84.8982C80.4524 85.1767 80.259 85.5295 80.1746 85.9146C80.0902 86.2998 80.1184 86.701 80.2557 87.0706C79.9757 86.9684 79.7215 86.8062 79.5111 86.5953C79.3193 86.4042 79.1672 86.1771 79.0634 85.9272C78.9597 85.6773 78.9062 85.4094 78.9062 85.1389C78.9062 84.8684 78.9597 84.6005 79.0634 84.3506C79.1672 84.1007 79.3193 83.8736 79.5111 83.6825Z" fill="#828282"/>
<path d="M42.7419 65.8529C39.0133 65.8556 35.3674 64.756 32.2639 62.6928C29.1603 60.6295 26.738 57.695 25.3024 54.2591C23.8667 50.8233 23.482 47.0399 24.1968 43.3861C24.9115 39.7322 26.6937 36.3715 29.3186 33.7275L29.4376 33.8463L29.3186 33.7275C31.0629 31.9639 33.1396 30.5624 35.4289 29.604C37.7183 28.6456 40.175 28.1491 42.6575 28.1433H42.7457C47.7545 28.1433 52.5581 30.13 56.0998 33.6663C59.6415 37.2026 61.6312 41.9989 61.6312 47C61.6312 52.0012 59.6415 56.7974 56.0998 60.3338C52.5581 63.8701 47.7545 65.8568 42.7457 65.8568L42.7419 65.8529ZM42.7419 28.4768H42.6575C40.2191 28.4813 37.8059 28.9683 35.5572 29.9097C33.3086 30.8511 31.269 32.2282 29.5566 33.9613C26.5324 37.0051 24.6578 41.0011 24.2518 45.2694C23.8458 49.5376 24.9334 53.8145 27.3296 57.3724C29.7257 60.9302 33.2825 63.5493 37.3947 64.7838C41.5068 66.0184 45.9204 65.7922 49.8844 64.1439C53.8484 62.4955 57.118 59.5267 59.1368 55.7426C61.1557 51.9585 61.7991 47.5929 60.9576 43.3886C60.1161 39.1842 57.8417 35.4008 54.5213 32.6821C51.201 29.9634 47.0398 28.4774 42.7457 28.4768H42.7419Z" fill="#828282"/>
<path fill-rule="evenodd" clip-rule="evenodd" d="M42.5769 0.168579H42.9147V1.71037C42.9155 1.71054 42.9164 1.71071 42.9173 1.71088C43.0878 1.74475 43.2444 1.82834 43.3673 1.95109C43.4903 2.07383 43.574 2.23022 43.6079 2.40047C43.6418 2.57073 43.6244 2.7472 43.5579 2.90758C43.4913 3.06795 43.3787 3.20503 43.2341 3.30147C43.1369 3.36631 43.0283 3.41082 42.9147 3.43303V4.75592C43.3993 4.77565 43.8794 4.88027 44.3322 5.06757C45.0897 5.38086 45.7372 5.9114 46.1927 6.5921C46.6482 7.2728 46.8914 8.07309 46.8914 8.89177C46.8893 9.98895 46.4519 11.0406 45.6749 11.8164C44.8979 12.5923 43.8446 13.029 42.7458 13.031C41.9258 13.031 41.1243 12.7883 40.4426 12.3335C39.7608 11.8786 39.2295 11.2322 38.9157 10.4758C38.602 9.71944 38.5199 8.88717 38.6798 8.08423C38.8398 7.28129 39.2346 6.54374 39.8144 5.96485C40.3942 5.38596 41.1328 4.99173 41.937 4.83202C42.1489 4.78994 42.3628 4.76463 42.5769 4.75592V3.43303C42.4066 3.39974 42.2487 3.31659 42.1242 3.19232C41.9594 3.02772 41.8667 2.80448 41.8667 2.5717C41.8667 2.39811 41.9183 2.22842 42.0149 2.08409C42.1115 1.93975 42.2488 1.82726 42.4094 1.76083C42.4637 1.73838 42.5198 1.72154 42.5769 1.71038V0.168579ZM42.5769 7.19695V5.0935C41.883 5.12425 41.2095 5.34403 40.6303 5.73051C40.0041 6.14828 39.516 6.74207 39.2278 7.4368C38.9396 8.13153 38.8642 8.89598 39.0111 9.6335C39.158 10.371 39.5207 11.0485 40.0532 11.5802C40.5858 12.1119 41.2643 12.474 42.0029 12.6207C42.7415 12.7674 43.5072 12.6921 44.2029 12.4044C44.8987 12.1166 45.4934 11.6293 45.9118 11.004C46.3303 10.3788 46.5536 9.64373 46.5536 8.89177C46.5536 7.88306 46.1525 6.91561 45.4385 6.20198C44.7644 5.52823 43.8634 5.13277 42.9147 5.08983V7.19778C43.7749 7.28461 44.445 8.0113 44.4421 8.89259C44.4389 9.8303 43.6751 10.5879 42.736 10.5848C41.7968 10.5817 41.038 9.81903 41.0411 8.88133C41.0441 8.00103 41.7174 7.27943 42.5769 7.19695Z" fill="#828282"/>
<path fill-rule="evenodd" clip-rule="evenodd" d="M45.676 88.0379C44.9387 88.7741 43.9524 89.2046 42.9147 89.2478V90.6053C43.0284 90.6275 43.1372 90.6721 43.2345 90.7371C43.3791 90.8337 43.4918 90.971 43.5582 91.1316C43.6246 91.2922 43.6418 91.4689 43.6076 91.6393C43.5734 91.8096 43.4893 91.966 43.3659 92.0886C43.2426 92.2112 43.0856 92.2945 42.9149 92.3279C42.9148 92.3279 42.9149 92.3279 42.9149 92.3279L42.9147 93.8314H42.5769V92.3279C42.5188 92.3166 42.4618 92.2994 42.4067 92.2764C42.2461 92.2094 42.1091 92.0963 42.013 91.9514C41.9169 91.8066 41.866 91.6365 41.8667 91.4628C41.8677 91.2307 41.9608 91.0084 42.1255 90.8446C42.2498 90.7211 42.4072 90.6384 42.5769 90.6053V89.2479C41.8161 89.2169 41.0774 88.9773 40.4426 88.5537C39.7608 88.0989 39.2295 87.4525 38.9157 86.6961C38.602 85.9397 38.5199 85.1075 38.6798 84.3045C38.8398 83.5016 39.2346 82.764 39.8144 82.1851C40.3942 81.6063 41.1328 81.212 41.937 81.0523C42.7412 80.8926 43.5747 80.9746 44.3322 81.2879C45.0897 81.6012 45.7372 82.1317 46.1927 82.8124C46.6482 83.4931 46.8914 84.2934 46.8914 85.1121C46.8903 86.2096 46.4533 87.2618 45.676 88.0379ZM44.2029 88.6247C43.7913 88.7949 43.3552 88.8908 42.9147 88.9103V86.8012C42.9699 86.7955 43.025 86.7872 43.0798 86.7761C43.4092 86.7094 43.7115 86.5467 43.9484 86.3086C44.1853 86.0704 44.3462 85.7675 44.4107 85.4381C44.4753 85.1087 44.4406 84.7676 44.3111 84.4579C44.1816 84.1482 43.963 83.8837 43.6831 83.6979C43.4031 83.5122 43.0742 83.4134 42.7381 83.4142C42.2867 83.4162 41.8546 83.5969 41.5366 83.9167C41.2185 84.2364 41.0404 84.6691 41.0415 85.1197C41.043 85.4554 41.1441 85.783 41.332 86.0613C41.52 86.3396 41.7863 86.556 42.0974 86.6832C42.2514 86.7462 42.413 86.786 42.5769 86.8019V88.9103C42.3849 88.9018 42.193 88.8788 42.0029 88.841C41.2643 88.6943 40.5858 88.3322 40.0532 87.8005C39.5207 87.2688 39.158 86.5913 39.0111 85.8538C38.8642 85.1163 38.9396 84.3518 39.2278 83.6571C39.516 82.9624 40.0041 82.3686 40.6303 81.9508C41.2564 81.533 41.9926 81.3101 42.7458 81.3101C43.7553 81.3111 44.7233 81.712 45.4372 82.4248C46.1511 83.1376 46.5526 84.104 46.5536 85.1121C46.5536 85.864 46.3303 86.5991 45.9118 87.2243C45.4934 87.8496 44.8987 88.3369 44.2029 88.6247Z" fill="#828282"/>
</svg>
